%TF.GenerationSoftware,KiCad,Pcbnew,8.0.6*%
%TF.CreationDate,2024-10-30T22:23:04+00:00*%
%TF.ProjectId,NORMMotorControlBoard,4e4f524d-4d6f-4746-9f72-436f6e74726f,rev?*%
%TF.SameCoordinates,Original*%
%TF.FileFunction,Soldermask,Bot*%
%TF.FilePolarity,Negative*%
%FSLAX46Y46*%
G04 Gerber Fmt 4.6, Leading zero omitted, Abs format (unit mm)*
G04 Created by KiCad (PCBNEW 8.0.6) date 2024-10-30 22:23:04*
%MOMM*%
%LPD*%
G01*
G04 APERTURE LIST*
%ADD10C,5.400000*%
%ADD11O,1.700000X1.700000*%
%ADD12R,1.700000X1.700000*%
%ADD13R,2.800000X2.800000*%
%ADD14C,2.800000*%
%ADD15R,1.600000X1.600000*%
%ADD16O,1.600000X1.600000*%
%ADD17C,2.000000*%
G04 APERTURE END LIST*
D10*
%TO.C,H4*%
X155000000Y-115000000D03*
%TD*%
%TO.C,H3*%
X75000000Y-115000000D03*
%TD*%
%TO.C,H2*%
X155000000Y-65000000D03*
%TD*%
%TO.C,H1*%
X75000000Y-65000000D03*
%TD*%
D11*
%TO.C,J6*%
X134620000Y-66040000D03*
X137160000Y-66040000D03*
X139700000Y-66040000D03*
D12*
X142240000Y-66040000D03*
%TD*%
D13*
%TO.C,J5*%
X154940000Y-101600000D03*
D14*
X154940000Y-96520000D03*
%TD*%
D12*
%TO.C,J4*%
X148577450Y-109224536D03*
D11*
X146037450Y-109224536D03*
X143497450Y-109224536D03*
X140957450Y-109224536D03*
X138417450Y-109224536D03*
X135877450Y-109224536D03*
%TD*%
%TO.C,J3*%
X119380000Y-109224536D03*
X121920000Y-109224536D03*
X124460000Y-109224536D03*
X127000000Y-109224536D03*
X129540000Y-109224536D03*
D12*
X132080000Y-109224536D03*
%TD*%
%TO.C,J2*%
X114300000Y-109224536D03*
D11*
X111760000Y-109224536D03*
X109220000Y-109224536D03*
X106680000Y-109224536D03*
X104140000Y-109224536D03*
X101600000Y-109224536D03*
%TD*%
%TO.C,U3*%
X83820000Y-88900000D03*
X83820000Y-91440000D03*
X83820000Y-93980000D03*
X83820000Y-96520000D03*
X83820000Y-99060000D03*
X83820000Y-101600000D03*
X101600000Y-101600000D03*
X101600000Y-99060000D03*
X101600000Y-96520000D03*
X101600000Y-93980000D03*
X101600000Y-91440000D03*
X101600000Y-88900000D03*
%TD*%
D12*
%TO.C,J1*%
X96520000Y-109224536D03*
D11*
X93980000Y-109224536D03*
X91440000Y-109224536D03*
X88900000Y-109224536D03*
X86360000Y-109224536D03*
X83820000Y-109224536D03*
%TD*%
D15*
%TO.C,U1*%
X119380000Y-86360000D03*
D16*
X121920000Y-86360000D03*
X124460000Y-86360000D03*
X127000000Y-86360000D03*
X129540000Y-86360000D03*
X132080000Y-86360000D03*
X134620000Y-86360000D03*
X137160000Y-86360000D03*
X139700000Y-86360000D03*
X142240000Y-86360000D03*
X144780000Y-86360000D03*
X147320000Y-86360000D03*
X149860000Y-86360000D03*
X152400000Y-86360000D03*
X154940000Y-86360000D03*
X154940000Y-71120000D03*
X152400000Y-71120000D03*
X149860000Y-71120000D03*
X147320000Y-71120000D03*
X144780000Y-71120000D03*
X142240000Y-71120000D03*
X139700000Y-71120000D03*
X137160000Y-71120000D03*
X134620000Y-71120000D03*
X132080000Y-71120000D03*
X129540000Y-71120000D03*
X127000000Y-71120000D03*
X124460000Y-71120000D03*
X121920000Y-71120000D03*
X119380000Y-71120000D03*
%TD*%
D17*
%TO.C,SW1*%
X73375000Y-88615000D03*
X79025000Y-88615000D03*
%TD*%
D11*
%TO.C,U2*%
X83820000Y-66040000D03*
X83820000Y-68580000D03*
X83820000Y-71120000D03*
X83820000Y-73660000D03*
X83820000Y-76200000D03*
X83820000Y-78740000D03*
X101600000Y-78740000D03*
X101600000Y-76200000D03*
X101600000Y-73660000D03*
X101600000Y-71120000D03*
X101600000Y-68580000D03*
X101600000Y-66040000D03*
%TD*%
M02*
