%TF.GenerationSoftware,KiCad,Pcbnew,8.0.6*%
%TF.CreationDate,2024-11-20T18:20:58+00:00*%
%TF.ProjectId,NORMMotorControlBoard,4e4f524d-4d6f-4746-9f72-436f6e74726f,rev?*%
%TF.SameCoordinates,Original*%
%TF.FileFunction,Copper,L2,Bot*%
%TF.FilePolarity,Positive*%
%FSLAX46Y46*%
G04 Gerber Fmt 4.6, Leading zero omitted, Abs format (unit mm)*
G04 Created by KiCad (PCBNEW 8.0.6) date 2024-11-20 18:20:58*
%MOMM*%
%LPD*%
G01*
G04 APERTURE LIST*
%TA.AperFunction,EtchedComponent*%
%ADD10C,0.010000*%
%TD*%
%TA.AperFunction,ComponentPad*%
%ADD11R,1.700000X1.700000*%
%TD*%
%TA.AperFunction,ComponentPad*%
%ADD12O,1.700000X1.700000*%
%TD*%
%TA.AperFunction,ComponentPad*%
%ADD13C,5.400000*%
%TD*%
%TA.AperFunction,ComponentPad*%
%ADD14C,2.000000*%
%TD*%
%TA.AperFunction,ComponentPad*%
%ADD15O,1.600000X0.800000*%
%TD*%
%TA.AperFunction,ComponentPad*%
%ADD16R,1.600000X1.600000*%
%TD*%
%TA.AperFunction,ComponentPad*%
%ADD17O,1.600000X1.600000*%
%TD*%
%TA.AperFunction,ViaPad*%
%ADD18C,0.600000*%
%TD*%
%TA.AperFunction,Conductor*%
%ADD19C,0.200000*%
%TD*%
%TA.AperFunction,Conductor*%
%ADD20C,0.500000*%
%TD*%
G04 APERTURE END LIST*
D10*
%TO.C,J5*%
X153920000Y-94951000D02*
X153948000Y-94953000D01*
X153977000Y-94957000D01*
X154005000Y-94962000D01*
X154033000Y-94969000D01*
X154061000Y-94977000D01*
X154088000Y-94987000D01*
X154115000Y-94998000D01*
X154141000Y-95010000D01*
X154166000Y-95024000D01*
X154191000Y-95039000D01*
X154214000Y-95055000D01*
X154237000Y-95073000D01*
X154259000Y-95091000D01*
X154280000Y-95111000D01*
X154300000Y-95132000D01*
X154318000Y-95154000D01*
X154336000Y-95177000D01*
X154352000Y-95200000D01*
X154367000Y-95225000D01*
X154381000Y-95250000D01*
X154393000Y-95276000D01*
X154404000Y-95303000D01*
X154414000Y-95330000D01*
X154422000Y-95358000D01*
X154429000Y-95386000D01*
X154434000Y-95414000D01*
X154438000Y-95443000D01*
X154440000Y-95471000D01*
X154441000Y-95500000D01*
X154440000Y-95529000D01*
X154438000Y-95557000D01*
X154434000Y-95586000D01*
X154429000Y-95614000D01*
X154422000Y-95642000D01*
X154414000Y-95670000D01*
X154404000Y-95697000D01*
X154393000Y-95724000D01*
X154381000Y-95750000D01*
X154367000Y-95775000D01*
X154352000Y-95800000D01*
X154336000Y-95823000D01*
X154318000Y-95846000D01*
X154300000Y-95868000D01*
X154280000Y-95889000D01*
X154259000Y-95909000D01*
X154237000Y-95927000D01*
X154214000Y-95945000D01*
X154191000Y-95961000D01*
X154166000Y-95976000D01*
X154141000Y-95990000D01*
X154115000Y-96002000D01*
X154088000Y-96013000D01*
X154061000Y-96023000D01*
X154033000Y-96031000D01*
X154005000Y-96038000D01*
X153977000Y-96043000D01*
X153948000Y-96047000D01*
X153920000Y-96049000D01*
X153891000Y-96050000D01*
X153291000Y-96050000D01*
X153262000Y-96049000D01*
X153234000Y-96047000D01*
X153205000Y-96043000D01*
X153177000Y-96038000D01*
X153149000Y-96031000D01*
X153121000Y-96023000D01*
X153094000Y-96013000D01*
X153067000Y-96002000D01*
X153041000Y-95990000D01*
X153016000Y-95976000D01*
X152991000Y-95961000D01*
X152968000Y-95945000D01*
X152945000Y-95927000D01*
X152923000Y-95909000D01*
X152902000Y-95889000D01*
X152882000Y-95868000D01*
X152864000Y-95846000D01*
X152846000Y-95823000D01*
X152830000Y-95800000D01*
X152815000Y-95775000D01*
X152801000Y-95750000D01*
X152789000Y-95724000D01*
X152778000Y-95697000D01*
X152768000Y-95670000D01*
X152760000Y-95642000D01*
X152753000Y-95614000D01*
X152748000Y-95586000D01*
X152744000Y-95557000D01*
X152742000Y-95529000D01*
X152741000Y-95500000D01*
X152742000Y-95471000D01*
X152744000Y-95443000D01*
X152748000Y-95414000D01*
X152753000Y-95386000D01*
X152760000Y-95358000D01*
X152768000Y-95330000D01*
X152778000Y-95303000D01*
X152789000Y-95276000D01*
X152801000Y-95250000D01*
X152815000Y-95225000D01*
X152830000Y-95200000D01*
X152846000Y-95177000D01*
X152864000Y-95154000D01*
X152882000Y-95132000D01*
X152902000Y-95111000D01*
X152923000Y-95091000D01*
X152945000Y-95073000D01*
X152968000Y-95055000D01*
X152991000Y-95039000D01*
X153016000Y-95024000D01*
X153041000Y-95010000D01*
X153067000Y-94998000D01*
X153094000Y-94987000D01*
X153121000Y-94977000D01*
X153149000Y-94969000D01*
X153177000Y-94962000D01*
X153205000Y-94957000D01*
X153234000Y-94953000D01*
X153262000Y-94951000D01*
X153291000Y-94950000D01*
X153891000Y-94950000D01*
X153920000Y-94951000D01*
%TA.AperFunction,EtchedComponent*%
G36*
X153920000Y-94951000D02*
G01*
X153948000Y-94953000D01*
X153977000Y-94957000D01*
X154005000Y-94962000D01*
X154033000Y-94969000D01*
X154061000Y-94977000D01*
X154088000Y-94987000D01*
X154115000Y-94998000D01*
X154141000Y-95010000D01*
X154166000Y-95024000D01*
X154191000Y-95039000D01*
X154214000Y-95055000D01*
X154237000Y-95073000D01*
X154259000Y-95091000D01*
X154280000Y-95111000D01*
X154300000Y-95132000D01*
X154318000Y-95154000D01*
X154336000Y-95177000D01*
X154352000Y-95200000D01*
X154367000Y-95225000D01*
X154381000Y-95250000D01*
X154393000Y-95276000D01*
X154404000Y-95303000D01*
X154414000Y-95330000D01*
X154422000Y-95358000D01*
X154429000Y-95386000D01*
X154434000Y-95414000D01*
X154438000Y-95443000D01*
X154440000Y-95471000D01*
X154441000Y-95500000D01*
X154440000Y-95529000D01*
X154438000Y-95557000D01*
X154434000Y-95586000D01*
X154429000Y-95614000D01*
X154422000Y-95642000D01*
X154414000Y-95670000D01*
X154404000Y-95697000D01*
X154393000Y-95724000D01*
X154381000Y-95750000D01*
X154367000Y-95775000D01*
X154352000Y-95800000D01*
X154336000Y-95823000D01*
X154318000Y-95846000D01*
X154300000Y-95868000D01*
X154280000Y-95889000D01*
X154259000Y-95909000D01*
X154237000Y-95927000D01*
X154214000Y-95945000D01*
X154191000Y-95961000D01*
X154166000Y-95976000D01*
X154141000Y-95990000D01*
X154115000Y-96002000D01*
X154088000Y-96013000D01*
X154061000Y-96023000D01*
X154033000Y-96031000D01*
X154005000Y-96038000D01*
X153977000Y-96043000D01*
X153948000Y-96047000D01*
X153920000Y-96049000D01*
X153891000Y-96050000D01*
X153291000Y-96050000D01*
X153262000Y-96049000D01*
X153234000Y-96047000D01*
X153205000Y-96043000D01*
X153177000Y-96038000D01*
X153149000Y-96031000D01*
X153121000Y-96023000D01*
X153094000Y-96013000D01*
X153067000Y-96002000D01*
X153041000Y-95990000D01*
X153016000Y-95976000D01*
X152991000Y-95961000D01*
X152968000Y-95945000D01*
X152945000Y-95927000D01*
X152923000Y-95909000D01*
X152902000Y-95889000D01*
X152882000Y-95868000D01*
X152864000Y-95846000D01*
X152846000Y-95823000D01*
X152830000Y-95800000D01*
X152815000Y-95775000D01*
X152801000Y-95750000D01*
X152789000Y-95724000D01*
X152778000Y-95697000D01*
X152768000Y-95670000D01*
X152760000Y-95642000D01*
X152753000Y-95614000D01*
X152748000Y-95586000D01*
X152744000Y-95557000D01*
X152742000Y-95529000D01*
X152741000Y-95500000D01*
X152742000Y-95471000D01*
X152744000Y-95443000D01*
X152748000Y-95414000D01*
X152753000Y-95386000D01*
X152760000Y-95358000D01*
X152768000Y-95330000D01*
X152778000Y-95303000D01*
X152789000Y-95276000D01*
X152801000Y-95250000D01*
X152815000Y-95225000D01*
X152830000Y-95200000D01*
X152846000Y-95177000D01*
X152864000Y-95154000D01*
X152882000Y-95132000D01*
X152902000Y-95111000D01*
X152923000Y-95091000D01*
X152945000Y-95073000D01*
X152968000Y-95055000D01*
X152991000Y-95039000D01*
X153016000Y-95024000D01*
X153041000Y-95010000D01*
X153067000Y-94998000D01*
X153094000Y-94987000D01*
X153121000Y-94977000D01*
X153149000Y-94969000D01*
X153177000Y-94962000D01*
X153205000Y-94957000D01*
X153234000Y-94953000D01*
X153262000Y-94951000D01*
X153291000Y-94950000D01*
X153891000Y-94950000D01*
X153920000Y-94951000D01*
G37*
%TD.AperFunction*%
X153920000Y-103591000D02*
X153948000Y-103593000D01*
X153977000Y-103597000D01*
X154005000Y-103602000D01*
X154033000Y-103609000D01*
X154061000Y-103617000D01*
X154088000Y-103627000D01*
X154115000Y-103638000D01*
X154141000Y-103650000D01*
X154166000Y-103664000D01*
X154191000Y-103679000D01*
X154214000Y-103695000D01*
X154237000Y-103713000D01*
X154259000Y-103731000D01*
X154280000Y-103751000D01*
X154300000Y-103772000D01*
X154318000Y-103794000D01*
X154336000Y-103817000D01*
X154352000Y-103840000D01*
X154367000Y-103865000D01*
X154381000Y-103890000D01*
X154393000Y-103916000D01*
X154404000Y-103943000D01*
X154414000Y-103970000D01*
X154422000Y-103998000D01*
X154429000Y-104026000D01*
X154434000Y-104054000D01*
X154438000Y-104083000D01*
X154440000Y-104111000D01*
X154441000Y-104140000D01*
X154440000Y-104169000D01*
X154438000Y-104197000D01*
X154434000Y-104226000D01*
X154429000Y-104254000D01*
X154422000Y-104282000D01*
X154414000Y-104310000D01*
X154404000Y-104337000D01*
X154393000Y-104364000D01*
X154381000Y-104390000D01*
X154367000Y-104415000D01*
X154352000Y-104440000D01*
X154336000Y-104463000D01*
X154318000Y-104486000D01*
X154300000Y-104508000D01*
X154280000Y-104529000D01*
X154259000Y-104549000D01*
X154237000Y-104567000D01*
X154214000Y-104585000D01*
X154191000Y-104601000D01*
X154166000Y-104616000D01*
X154141000Y-104630000D01*
X154115000Y-104642000D01*
X154088000Y-104653000D01*
X154061000Y-104663000D01*
X154033000Y-104671000D01*
X154005000Y-104678000D01*
X153977000Y-104683000D01*
X153948000Y-104687000D01*
X153920000Y-104689000D01*
X153891000Y-104690000D01*
X153291000Y-104690000D01*
X153262000Y-104689000D01*
X153234000Y-104687000D01*
X153205000Y-104683000D01*
X153177000Y-104678000D01*
X153149000Y-104671000D01*
X153121000Y-104663000D01*
X153094000Y-104653000D01*
X153067000Y-104642000D01*
X153041000Y-104630000D01*
X153016000Y-104616000D01*
X152991000Y-104601000D01*
X152968000Y-104585000D01*
X152945000Y-104567000D01*
X152923000Y-104549000D01*
X152902000Y-104529000D01*
X152882000Y-104508000D01*
X152864000Y-104486000D01*
X152846000Y-104463000D01*
X152830000Y-104440000D01*
X152815000Y-104415000D01*
X152801000Y-104390000D01*
X152789000Y-104364000D01*
X152778000Y-104337000D01*
X152768000Y-104310000D01*
X152760000Y-104282000D01*
X152753000Y-104254000D01*
X152748000Y-104226000D01*
X152744000Y-104197000D01*
X152742000Y-104169000D01*
X152741000Y-104140000D01*
X152742000Y-104111000D01*
X152744000Y-104083000D01*
X152748000Y-104054000D01*
X152753000Y-104026000D01*
X152760000Y-103998000D01*
X152768000Y-103970000D01*
X152778000Y-103943000D01*
X152789000Y-103916000D01*
X152801000Y-103890000D01*
X152815000Y-103865000D01*
X152830000Y-103840000D01*
X152846000Y-103817000D01*
X152864000Y-103794000D01*
X152882000Y-103772000D01*
X152902000Y-103751000D01*
X152923000Y-103731000D01*
X152945000Y-103713000D01*
X152968000Y-103695000D01*
X152991000Y-103679000D01*
X153016000Y-103664000D01*
X153041000Y-103650000D01*
X153067000Y-103638000D01*
X153094000Y-103627000D01*
X153121000Y-103617000D01*
X153149000Y-103609000D01*
X153177000Y-103602000D01*
X153205000Y-103597000D01*
X153234000Y-103593000D01*
X153262000Y-103591000D01*
X153291000Y-103590000D01*
X153891000Y-103590000D01*
X153920000Y-103591000D01*
%TA.AperFunction,EtchedComponent*%
G36*
X153920000Y-103591000D02*
G01*
X153948000Y-103593000D01*
X153977000Y-103597000D01*
X154005000Y-103602000D01*
X154033000Y-103609000D01*
X154061000Y-103617000D01*
X154088000Y-103627000D01*
X154115000Y-103638000D01*
X154141000Y-103650000D01*
X154166000Y-103664000D01*
X154191000Y-103679000D01*
X154214000Y-103695000D01*
X154237000Y-103713000D01*
X154259000Y-103731000D01*
X154280000Y-103751000D01*
X154300000Y-103772000D01*
X154318000Y-103794000D01*
X154336000Y-103817000D01*
X154352000Y-103840000D01*
X154367000Y-103865000D01*
X154381000Y-103890000D01*
X154393000Y-103916000D01*
X154404000Y-103943000D01*
X154414000Y-103970000D01*
X154422000Y-103998000D01*
X154429000Y-104026000D01*
X154434000Y-104054000D01*
X154438000Y-104083000D01*
X154440000Y-104111000D01*
X154441000Y-104140000D01*
X154440000Y-104169000D01*
X154438000Y-104197000D01*
X154434000Y-104226000D01*
X154429000Y-104254000D01*
X154422000Y-104282000D01*
X154414000Y-104310000D01*
X154404000Y-104337000D01*
X154393000Y-104364000D01*
X154381000Y-104390000D01*
X154367000Y-104415000D01*
X154352000Y-104440000D01*
X154336000Y-104463000D01*
X154318000Y-104486000D01*
X154300000Y-104508000D01*
X154280000Y-104529000D01*
X154259000Y-104549000D01*
X154237000Y-104567000D01*
X154214000Y-104585000D01*
X154191000Y-104601000D01*
X154166000Y-104616000D01*
X154141000Y-104630000D01*
X154115000Y-104642000D01*
X154088000Y-104653000D01*
X154061000Y-104663000D01*
X154033000Y-104671000D01*
X154005000Y-104678000D01*
X153977000Y-104683000D01*
X153948000Y-104687000D01*
X153920000Y-104689000D01*
X153891000Y-104690000D01*
X153291000Y-104690000D01*
X153262000Y-104689000D01*
X153234000Y-104687000D01*
X153205000Y-104683000D01*
X153177000Y-104678000D01*
X153149000Y-104671000D01*
X153121000Y-104663000D01*
X153094000Y-104653000D01*
X153067000Y-104642000D01*
X153041000Y-104630000D01*
X153016000Y-104616000D01*
X152991000Y-104601000D01*
X152968000Y-104585000D01*
X152945000Y-104567000D01*
X152923000Y-104549000D01*
X152902000Y-104529000D01*
X152882000Y-104508000D01*
X152864000Y-104486000D01*
X152846000Y-104463000D01*
X152830000Y-104440000D01*
X152815000Y-104415000D01*
X152801000Y-104390000D01*
X152789000Y-104364000D01*
X152778000Y-104337000D01*
X152768000Y-104310000D01*
X152760000Y-104282000D01*
X152753000Y-104254000D01*
X152748000Y-104226000D01*
X152744000Y-104197000D01*
X152742000Y-104169000D01*
X152741000Y-104140000D01*
X152742000Y-104111000D01*
X152744000Y-104083000D01*
X152748000Y-104054000D01*
X152753000Y-104026000D01*
X152760000Y-103998000D01*
X152768000Y-103970000D01*
X152778000Y-103943000D01*
X152789000Y-103916000D01*
X152801000Y-103890000D01*
X152815000Y-103865000D01*
X152830000Y-103840000D01*
X152846000Y-103817000D01*
X152864000Y-103794000D01*
X152882000Y-103772000D01*
X152902000Y-103751000D01*
X152923000Y-103731000D01*
X152945000Y-103713000D01*
X152968000Y-103695000D01*
X152991000Y-103679000D01*
X153016000Y-103664000D01*
X153041000Y-103650000D01*
X153067000Y-103638000D01*
X153094000Y-103627000D01*
X153121000Y-103617000D01*
X153149000Y-103609000D01*
X153177000Y-103602000D01*
X153205000Y-103597000D01*
X153234000Y-103593000D01*
X153262000Y-103591000D01*
X153291000Y-103590000D01*
X153891000Y-103590000D01*
X153920000Y-103591000D01*
G37*
%TD.AperFunction*%
X157720000Y-94951000D02*
X157748000Y-94953000D01*
X157777000Y-94957000D01*
X157805000Y-94962000D01*
X157833000Y-94969000D01*
X157861000Y-94977000D01*
X157888000Y-94987000D01*
X157915000Y-94998000D01*
X157941000Y-95010000D01*
X157966000Y-95024000D01*
X157991000Y-95039000D01*
X158014000Y-95055000D01*
X158037000Y-95073000D01*
X158059000Y-95091000D01*
X158080000Y-95111000D01*
X158100000Y-95132000D01*
X158118000Y-95154000D01*
X158136000Y-95177000D01*
X158152000Y-95200000D01*
X158167000Y-95225000D01*
X158181000Y-95250000D01*
X158193000Y-95276000D01*
X158204000Y-95303000D01*
X158214000Y-95330000D01*
X158222000Y-95358000D01*
X158229000Y-95386000D01*
X158234000Y-95414000D01*
X158238000Y-95443000D01*
X158240000Y-95471000D01*
X158241000Y-95500000D01*
X158240000Y-95529000D01*
X158238000Y-95557000D01*
X158234000Y-95586000D01*
X158229000Y-95614000D01*
X158222000Y-95642000D01*
X158214000Y-95670000D01*
X158204000Y-95697000D01*
X158193000Y-95724000D01*
X158181000Y-95750000D01*
X158167000Y-95775000D01*
X158152000Y-95800000D01*
X158136000Y-95823000D01*
X158118000Y-95846000D01*
X158100000Y-95868000D01*
X158080000Y-95889000D01*
X158059000Y-95909000D01*
X158037000Y-95927000D01*
X158014000Y-95945000D01*
X157991000Y-95961000D01*
X157966000Y-95976000D01*
X157941000Y-95990000D01*
X157915000Y-96002000D01*
X157888000Y-96013000D01*
X157861000Y-96023000D01*
X157833000Y-96031000D01*
X157805000Y-96038000D01*
X157777000Y-96043000D01*
X157748000Y-96047000D01*
X157720000Y-96049000D01*
X157691000Y-96050000D01*
X157091000Y-96050000D01*
X157062000Y-96049000D01*
X157034000Y-96047000D01*
X157005000Y-96043000D01*
X156977000Y-96038000D01*
X156949000Y-96031000D01*
X156921000Y-96023000D01*
X156894000Y-96013000D01*
X156867000Y-96002000D01*
X156841000Y-95990000D01*
X156816000Y-95976000D01*
X156791000Y-95961000D01*
X156768000Y-95945000D01*
X156745000Y-95927000D01*
X156723000Y-95909000D01*
X156702000Y-95889000D01*
X156682000Y-95868000D01*
X156664000Y-95846000D01*
X156646000Y-95823000D01*
X156630000Y-95800000D01*
X156615000Y-95775000D01*
X156601000Y-95750000D01*
X156589000Y-95724000D01*
X156578000Y-95697000D01*
X156568000Y-95670000D01*
X156560000Y-95642000D01*
X156553000Y-95614000D01*
X156548000Y-95586000D01*
X156544000Y-95557000D01*
X156542000Y-95529000D01*
X156541000Y-95500000D01*
X156542000Y-95471000D01*
X156544000Y-95443000D01*
X156548000Y-95414000D01*
X156553000Y-95386000D01*
X156560000Y-95358000D01*
X156568000Y-95330000D01*
X156578000Y-95303000D01*
X156589000Y-95276000D01*
X156601000Y-95250000D01*
X156615000Y-95225000D01*
X156630000Y-95200000D01*
X156646000Y-95177000D01*
X156664000Y-95154000D01*
X156682000Y-95132000D01*
X156702000Y-95111000D01*
X156723000Y-95091000D01*
X156745000Y-95073000D01*
X156768000Y-95055000D01*
X156791000Y-95039000D01*
X156816000Y-95024000D01*
X156841000Y-95010000D01*
X156867000Y-94998000D01*
X156894000Y-94987000D01*
X156921000Y-94977000D01*
X156949000Y-94969000D01*
X156977000Y-94962000D01*
X157005000Y-94957000D01*
X157034000Y-94953000D01*
X157062000Y-94951000D01*
X157091000Y-94950000D01*
X157691000Y-94950000D01*
X157720000Y-94951000D01*
%TA.AperFunction,EtchedComponent*%
G36*
X157720000Y-94951000D02*
G01*
X157748000Y-94953000D01*
X157777000Y-94957000D01*
X157805000Y-94962000D01*
X157833000Y-94969000D01*
X157861000Y-94977000D01*
X157888000Y-94987000D01*
X157915000Y-94998000D01*
X157941000Y-95010000D01*
X157966000Y-95024000D01*
X157991000Y-95039000D01*
X158014000Y-95055000D01*
X158037000Y-95073000D01*
X158059000Y-95091000D01*
X158080000Y-95111000D01*
X158100000Y-95132000D01*
X158118000Y-95154000D01*
X158136000Y-95177000D01*
X158152000Y-95200000D01*
X158167000Y-95225000D01*
X158181000Y-95250000D01*
X158193000Y-95276000D01*
X158204000Y-95303000D01*
X158214000Y-95330000D01*
X158222000Y-95358000D01*
X158229000Y-95386000D01*
X158234000Y-95414000D01*
X158238000Y-95443000D01*
X158240000Y-95471000D01*
X158241000Y-95500000D01*
X158240000Y-95529000D01*
X158238000Y-95557000D01*
X158234000Y-95586000D01*
X158229000Y-95614000D01*
X158222000Y-95642000D01*
X158214000Y-95670000D01*
X158204000Y-95697000D01*
X158193000Y-95724000D01*
X158181000Y-95750000D01*
X158167000Y-95775000D01*
X158152000Y-95800000D01*
X158136000Y-95823000D01*
X158118000Y-95846000D01*
X158100000Y-95868000D01*
X158080000Y-95889000D01*
X158059000Y-95909000D01*
X158037000Y-95927000D01*
X158014000Y-95945000D01*
X157991000Y-95961000D01*
X157966000Y-95976000D01*
X157941000Y-95990000D01*
X157915000Y-96002000D01*
X157888000Y-96013000D01*
X157861000Y-96023000D01*
X157833000Y-96031000D01*
X157805000Y-96038000D01*
X157777000Y-96043000D01*
X157748000Y-96047000D01*
X157720000Y-96049000D01*
X157691000Y-96050000D01*
X157091000Y-96050000D01*
X157062000Y-96049000D01*
X157034000Y-96047000D01*
X157005000Y-96043000D01*
X156977000Y-96038000D01*
X156949000Y-96031000D01*
X156921000Y-96023000D01*
X156894000Y-96013000D01*
X156867000Y-96002000D01*
X156841000Y-95990000D01*
X156816000Y-95976000D01*
X156791000Y-95961000D01*
X156768000Y-95945000D01*
X156745000Y-95927000D01*
X156723000Y-95909000D01*
X156702000Y-95889000D01*
X156682000Y-95868000D01*
X156664000Y-95846000D01*
X156646000Y-95823000D01*
X156630000Y-95800000D01*
X156615000Y-95775000D01*
X156601000Y-95750000D01*
X156589000Y-95724000D01*
X156578000Y-95697000D01*
X156568000Y-95670000D01*
X156560000Y-95642000D01*
X156553000Y-95614000D01*
X156548000Y-95586000D01*
X156544000Y-95557000D01*
X156542000Y-95529000D01*
X156541000Y-95500000D01*
X156542000Y-95471000D01*
X156544000Y-95443000D01*
X156548000Y-95414000D01*
X156553000Y-95386000D01*
X156560000Y-95358000D01*
X156568000Y-95330000D01*
X156578000Y-95303000D01*
X156589000Y-95276000D01*
X156601000Y-95250000D01*
X156615000Y-95225000D01*
X156630000Y-95200000D01*
X156646000Y-95177000D01*
X156664000Y-95154000D01*
X156682000Y-95132000D01*
X156702000Y-95111000D01*
X156723000Y-95091000D01*
X156745000Y-95073000D01*
X156768000Y-95055000D01*
X156791000Y-95039000D01*
X156816000Y-95024000D01*
X156841000Y-95010000D01*
X156867000Y-94998000D01*
X156894000Y-94987000D01*
X156921000Y-94977000D01*
X156949000Y-94969000D01*
X156977000Y-94962000D01*
X157005000Y-94957000D01*
X157034000Y-94953000D01*
X157062000Y-94951000D01*
X157091000Y-94950000D01*
X157691000Y-94950000D01*
X157720000Y-94951000D01*
G37*
%TD.AperFunction*%
X157720000Y-103591000D02*
X157748000Y-103593000D01*
X157777000Y-103597000D01*
X157805000Y-103602000D01*
X157833000Y-103609000D01*
X157861000Y-103617000D01*
X157888000Y-103627000D01*
X157915000Y-103638000D01*
X157941000Y-103650000D01*
X157966000Y-103664000D01*
X157991000Y-103679000D01*
X158014000Y-103695000D01*
X158037000Y-103713000D01*
X158059000Y-103731000D01*
X158080000Y-103751000D01*
X158100000Y-103772000D01*
X158118000Y-103794000D01*
X158136000Y-103817000D01*
X158152000Y-103840000D01*
X158167000Y-103865000D01*
X158181000Y-103890000D01*
X158193000Y-103916000D01*
X158204000Y-103943000D01*
X158214000Y-103970000D01*
X158222000Y-103998000D01*
X158229000Y-104026000D01*
X158234000Y-104054000D01*
X158238000Y-104083000D01*
X158240000Y-104111000D01*
X158241000Y-104140000D01*
X158240000Y-104169000D01*
X158238000Y-104197000D01*
X158234000Y-104226000D01*
X158229000Y-104254000D01*
X158222000Y-104282000D01*
X158214000Y-104310000D01*
X158204000Y-104337000D01*
X158193000Y-104364000D01*
X158181000Y-104390000D01*
X158167000Y-104415000D01*
X158152000Y-104440000D01*
X158136000Y-104463000D01*
X158118000Y-104486000D01*
X158100000Y-104508000D01*
X158080000Y-104529000D01*
X158059000Y-104549000D01*
X158037000Y-104567000D01*
X158014000Y-104585000D01*
X157991000Y-104601000D01*
X157966000Y-104616000D01*
X157941000Y-104630000D01*
X157915000Y-104642000D01*
X157888000Y-104653000D01*
X157861000Y-104663000D01*
X157833000Y-104671000D01*
X157805000Y-104678000D01*
X157777000Y-104683000D01*
X157748000Y-104687000D01*
X157720000Y-104689000D01*
X157691000Y-104690000D01*
X157091000Y-104690000D01*
X157062000Y-104689000D01*
X157034000Y-104687000D01*
X157005000Y-104683000D01*
X156977000Y-104678000D01*
X156949000Y-104671000D01*
X156921000Y-104663000D01*
X156894000Y-104653000D01*
X156867000Y-104642000D01*
X156841000Y-104630000D01*
X156816000Y-104616000D01*
X156791000Y-104601000D01*
X156768000Y-104585000D01*
X156745000Y-104567000D01*
X156723000Y-104549000D01*
X156702000Y-104529000D01*
X156682000Y-104508000D01*
X156664000Y-104486000D01*
X156646000Y-104463000D01*
X156630000Y-104440000D01*
X156615000Y-104415000D01*
X156601000Y-104390000D01*
X156589000Y-104364000D01*
X156578000Y-104337000D01*
X156568000Y-104310000D01*
X156560000Y-104282000D01*
X156553000Y-104254000D01*
X156548000Y-104226000D01*
X156544000Y-104197000D01*
X156542000Y-104169000D01*
X156541000Y-104140000D01*
X156542000Y-104111000D01*
X156544000Y-104083000D01*
X156548000Y-104054000D01*
X156553000Y-104026000D01*
X156560000Y-103998000D01*
X156568000Y-103970000D01*
X156578000Y-103943000D01*
X156589000Y-103916000D01*
X156601000Y-103890000D01*
X156615000Y-103865000D01*
X156630000Y-103840000D01*
X156646000Y-103817000D01*
X156664000Y-103794000D01*
X156682000Y-103772000D01*
X156702000Y-103751000D01*
X156723000Y-103731000D01*
X156745000Y-103713000D01*
X156768000Y-103695000D01*
X156791000Y-103679000D01*
X156816000Y-103664000D01*
X156841000Y-103650000D01*
X156867000Y-103638000D01*
X156894000Y-103627000D01*
X156921000Y-103617000D01*
X156949000Y-103609000D01*
X156977000Y-103602000D01*
X157005000Y-103597000D01*
X157034000Y-103593000D01*
X157062000Y-103591000D01*
X157091000Y-103590000D01*
X157691000Y-103590000D01*
X157720000Y-103591000D01*
%TA.AperFunction,EtchedComponent*%
G36*
X157720000Y-103591000D02*
G01*
X157748000Y-103593000D01*
X157777000Y-103597000D01*
X157805000Y-103602000D01*
X157833000Y-103609000D01*
X157861000Y-103617000D01*
X157888000Y-103627000D01*
X157915000Y-103638000D01*
X157941000Y-103650000D01*
X157966000Y-103664000D01*
X157991000Y-103679000D01*
X158014000Y-103695000D01*
X158037000Y-103713000D01*
X158059000Y-103731000D01*
X158080000Y-103751000D01*
X158100000Y-103772000D01*
X158118000Y-103794000D01*
X158136000Y-103817000D01*
X158152000Y-103840000D01*
X158167000Y-103865000D01*
X158181000Y-103890000D01*
X158193000Y-103916000D01*
X158204000Y-103943000D01*
X158214000Y-103970000D01*
X158222000Y-103998000D01*
X158229000Y-104026000D01*
X158234000Y-104054000D01*
X158238000Y-104083000D01*
X158240000Y-104111000D01*
X158241000Y-104140000D01*
X158240000Y-104169000D01*
X158238000Y-104197000D01*
X158234000Y-104226000D01*
X158229000Y-104254000D01*
X158222000Y-104282000D01*
X158214000Y-104310000D01*
X158204000Y-104337000D01*
X158193000Y-104364000D01*
X158181000Y-104390000D01*
X158167000Y-104415000D01*
X158152000Y-104440000D01*
X158136000Y-104463000D01*
X158118000Y-104486000D01*
X158100000Y-104508000D01*
X158080000Y-104529000D01*
X158059000Y-104549000D01*
X158037000Y-104567000D01*
X158014000Y-104585000D01*
X157991000Y-104601000D01*
X157966000Y-104616000D01*
X157941000Y-104630000D01*
X157915000Y-104642000D01*
X157888000Y-104653000D01*
X157861000Y-104663000D01*
X157833000Y-104671000D01*
X157805000Y-104678000D01*
X157777000Y-104683000D01*
X157748000Y-104687000D01*
X157720000Y-104689000D01*
X157691000Y-104690000D01*
X157091000Y-104690000D01*
X157062000Y-104689000D01*
X157034000Y-104687000D01*
X157005000Y-104683000D01*
X156977000Y-104678000D01*
X156949000Y-104671000D01*
X156921000Y-104663000D01*
X156894000Y-104653000D01*
X156867000Y-104642000D01*
X156841000Y-104630000D01*
X156816000Y-104616000D01*
X156791000Y-104601000D01*
X156768000Y-104585000D01*
X156745000Y-104567000D01*
X156723000Y-104549000D01*
X156702000Y-104529000D01*
X156682000Y-104508000D01*
X156664000Y-104486000D01*
X156646000Y-104463000D01*
X156630000Y-104440000D01*
X156615000Y-104415000D01*
X156601000Y-104390000D01*
X156589000Y-104364000D01*
X156578000Y-104337000D01*
X156568000Y-104310000D01*
X156560000Y-104282000D01*
X156553000Y-104254000D01*
X156548000Y-104226000D01*
X156544000Y-104197000D01*
X156542000Y-104169000D01*
X156541000Y-104140000D01*
X156542000Y-104111000D01*
X156544000Y-104083000D01*
X156548000Y-104054000D01*
X156553000Y-104026000D01*
X156560000Y-103998000D01*
X156568000Y-103970000D01*
X156578000Y-103943000D01*
X156589000Y-103916000D01*
X156601000Y-103890000D01*
X156615000Y-103865000D01*
X156630000Y-103840000D01*
X156646000Y-103817000D01*
X156664000Y-103794000D01*
X156682000Y-103772000D01*
X156702000Y-103751000D01*
X156723000Y-103731000D01*
X156745000Y-103713000D01*
X156768000Y-103695000D01*
X156791000Y-103679000D01*
X156816000Y-103664000D01*
X156841000Y-103650000D01*
X156867000Y-103638000D01*
X156894000Y-103627000D01*
X156921000Y-103617000D01*
X156949000Y-103609000D01*
X156977000Y-103602000D01*
X157005000Y-103597000D01*
X157034000Y-103593000D01*
X157062000Y-103591000D01*
X157091000Y-103590000D01*
X157691000Y-103590000D01*
X157720000Y-103591000D01*
G37*
%TD.AperFunction*%
%TD*%
D11*
%TO.P,J2,1,Pin_1*%
%TO.N,FL_M+*%
X112395000Y-109220000D03*
D12*
%TO.P,J2,2,Pin_2*%
%TO.N,FL_M-*%
X109855000Y-109220000D03*
%TO.P,J2,3,Pin_3*%
%TO.N,+3.3V*%
X107315000Y-109220000D03*
%TO.P,J2,4,Pin_4*%
%TO.N,FL_ENC_A*%
X104775000Y-109220000D03*
%TO.P,J2,5,Pin_5*%
%TO.N,FL_ENC_B*%
X102235000Y-109220000D03*
%TO.P,J2,6,Pin_6*%
%TO.N,GND*%
X99695000Y-109220000D03*
%TD*%
D13*
%TO.P,H3,1,1*%
%TO.N,GND*%
X75000000Y-115000000D03*
%TD*%
%TO.P,H4,1,1*%
%TO.N,GND*%
X155000000Y-115000000D03*
%TD*%
D12*
%TO.P,M1,1,PWMA*%
%TO.N,FL_SPEED*%
X86360000Y-77470000D03*
%TO.P,M1,2,AIN2*%
%TO.N,FL_DIR*%
X88900000Y-77470000D03*
%TO.P,M1,3,AIN1*%
%TO.N,/FL_DIR_INV*%
X91440000Y-77470000D03*
%TO.P,M1,4,~{STBY}*%
%TO.N,+3.3V*%
X93980000Y-77470000D03*
%TO.P,M1,5,BIN1*%
%TO.N,/FR_DIR_INV*%
X96520000Y-77470000D03*
%TO.P,M1,6,BIN2*%
%TO.N,FR_DIR*%
X99060000Y-77470000D03*
%TO.P,M1,7,PWMB*%
%TO.N,FR_SPEED*%
X101600000Y-77470000D03*
D11*
%TO.P,M1,8,GND*%
%TO.N,GND*%
X104140000Y-77470000D03*
%TO.P,M1,9,GND*%
X104140000Y-64770000D03*
D12*
%TO.P,M1,10,VMOT*%
%TO.N,+5V*%
X101600000Y-64770000D03*
%TO.P,M1,11,BO1*%
%TO.N,FR_M+*%
X99060000Y-64770000D03*
%TO.P,M1,12,BO2*%
%TO.N,FR_M-*%
X96520000Y-64770000D03*
%TO.P,M1,13,AO2*%
%TO.N,FL_M-*%
X93980000Y-64770000D03*
%TO.P,M1,14,AO1*%
%TO.N,FL_M+*%
X91440000Y-64770000D03*
%TO.P,M1,15,VCC*%
%TO.N,+3.3V*%
X88900000Y-64770000D03*
D11*
%TO.P,M1,16,GND*%
%TO.N,GND*%
X86360000Y-64770000D03*
%TD*%
%TO.P,J4,1,Pin_1*%
%TO.N,BR_M+*%
X147955000Y-109220000D03*
D12*
%TO.P,J4,2,Pin_2*%
%TO.N,BR_M-*%
X145415000Y-109220000D03*
%TO.P,J4,3,Pin_3*%
%TO.N,+3.3V*%
X142875000Y-109220000D03*
%TO.P,J4,4,Pin_4*%
%TO.N,BR_ENC_A*%
X140335000Y-109220000D03*
%TO.P,J4,5,Pin_5*%
%TO.N,BR_ENC_B*%
X137795000Y-109220000D03*
%TO.P,J4,6,Pin_6*%
%TO.N,GND*%
X135255000Y-109220000D03*
%TD*%
D14*
%TO.P,SW1,1,1*%
%TO.N,GND*%
X73375000Y-88615000D03*
%TO.P,SW1,2,2*%
%TO.N,Net-(A1-~{RESET}-Pad3)*%
X79025000Y-88615000D03*
%TD*%
D15*
%TO.P,J5,S1,SHIELD*%
%TO.N,GND*%
X153591000Y-104140000D03*
%TO.P,J5,S2,SHIELD*%
X153591000Y-95500000D03*
%TO.P,J5,S3,SHIELD*%
X157391000Y-104140000D03*
%TO.P,J5,S4,SHIELD*%
X157391000Y-95500000D03*
%TD*%
D16*
%TO.P,A1,1,TX1*%
%TO.N,unconnected-(A1-TX1-Pad1)*%
X120650000Y-87630000D03*
D17*
%TO.P,A1,2,RX1*%
%TO.N,unconnected-(A1-RX1-Pad2)*%
X123190000Y-87630000D03*
%TO.P,A1,3,~{RESET}*%
%TO.N,Net-(A1-~{RESET}-Pad3)*%
X125730000Y-87630000D03*
%TO.P,A1,4,GND*%
%TO.N,GND*%
X128270000Y-87630000D03*
%TO.P,A1,5,D2*%
%TO.N,FL_SPEED*%
X130810000Y-87630000D03*
%TO.P,A1,6,D3*%
%TO.N,FR_SPEED*%
X133350000Y-87630000D03*
%TO.P,A1,7,D4*%
%TO.N,BL_SPEED*%
X135890000Y-87630000D03*
%TO.P,A1,8,D5*%
%TO.N,BR_SPEED*%
X138430000Y-87630000D03*
%TO.P,A1,9,D6*%
%TO.N,FL_ENC_A*%
X140970000Y-87630000D03*
%TO.P,A1,10,D7*%
%TO.N,FL_ENC_B*%
X143510000Y-87630000D03*
%TO.P,A1,11,D8*%
%TO.N,FR_ENC_A*%
X146050000Y-87630000D03*
%TO.P,A1,12,D9*%
%TO.N,FR_ENC_B*%
X148590000Y-87630000D03*
%TO.P,A1,13,D10*%
%TO.N,BL_ENC_A*%
X151130000Y-87630000D03*
%TO.P,A1,14,MOSI*%
%TO.N,BL_ENC_B*%
X153670000Y-87630000D03*
%TO.P,A1,15,MISO*%
%TO.N,D12*%
X156210000Y-87630000D03*
%TO.P,A1,16,SCK*%
%TO.N,D13*%
X156210000Y-72390000D03*
%TO.P,A1,17,3V3*%
%TO.N,+3.3V*%
X153670000Y-72390000D03*
%TO.P,A1,18,AREF*%
%TO.N,unconnected-(A1-AREF-Pad18)*%
X151130000Y-72390000D03*
%TO.P,A1,19,A0*%
%TO.N,FL_DIR*%
X148590000Y-72390000D03*
%TO.P,A1,20,A1*%
%TO.N,FR_DIR*%
X146050000Y-72390000D03*
%TO.P,A1,21,A2*%
%TO.N,BL_DIR*%
X143510000Y-72390000D03*
%TO.P,A1,22,A3*%
%TO.N,BR_DIR*%
X140970000Y-72390000D03*
%TO.P,A1,23,SDA/A4*%
%TO.N,A4*%
X138430000Y-72390000D03*
%TO.P,A1,24,SCL/A5*%
%TO.N,A5*%
X135890000Y-72390000D03*
%TO.P,A1,25,A6*%
%TO.N,BR_ENC_A*%
X133350000Y-72390000D03*
%TO.P,A1,26,A7*%
%TO.N,BR_ENC_B*%
X130810000Y-72390000D03*
%TO.P,A1,27,+5V*%
%TO.N,unconnected-(A1-+5V-Pad27)*%
X128270000Y-72390000D03*
%TO.P,A1,28,~{RESET}*%
%TO.N,unconnected-(A1-~{RESET}-Pad28)*%
X125730000Y-72390000D03*
%TO.P,A1,29,GND*%
%TO.N,GND*%
X123190000Y-72390000D03*
%TO.P,A1,30,VIN*%
%TO.N,+5V*%
X120650000Y-72390000D03*
%TD*%
D13*
%TO.P,H1,1,1*%
%TO.N,GND*%
X75000000Y-65000000D03*
%TD*%
D11*
%TO.P,J6,1,Pin_1*%
%TO.N,D13*%
X143500000Y-64770000D03*
D12*
%TO.P,J6,2,Pin_2*%
%TO.N,D12*%
X140960000Y-64770000D03*
%TO.P,J6,3,Pin_3*%
%TO.N,A4*%
X138420000Y-64770000D03*
%TO.P,J6,4,Pin_4*%
%TO.N,A5*%
X135880000Y-64770000D03*
%TD*%
D11*
%TO.P,J3,1,Pin_1*%
%TO.N,FR_M+*%
X130175000Y-109220000D03*
D12*
%TO.P,J3,2,Pin_2*%
%TO.N,FR_M-*%
X127635000Y-109220000D03*
%TO.P,J3,3,Pin_3*%
%TO.N,+3.3V*%
X125095000Y-109220000D03*
%TO.P,J3,4,Pin_4*%
%TO.N,FR_ENC_A*%
X122555000Y-109220000D03*
%TO.P,J3,5,Pin_5*%
%TO.N,FR_ENC_B*%
X120015000Y-109220000D03*
%TO.P,J3,6,Pin_6*%
%TO.N,GND*%
X117475000Y-109220000D03*
%TD*%
%TO.P,M2,1,PWMA*%
%TO.N,BL_SPEED*%
X86360000Y-95250000D03*
%TO.P,M2,2,AIN2*%
%TO.N,BL_DIR*%
X88900000Y-95250000D03*
%TO.P,M2,3,AIN1*%
%TO.N,/BL_DIR_INV*%
X91440000Y-95250000D03*
%TO.P,M2,4,~{STBY}*%
%TO.N,+3.3V*%
X93980000Y-95250000D03*
%TO.P,M2,5,BIN1*%
%TO.N,/BR_DIR_INV*%
X96520000Y-95250000D03*
%TO.P,M2,6,BIN2*%
%TO.N,BR_DIR*%
X99060000Y-95250000D03*
%TO.P,M2,7,PWMB*%
%TO.N,BR_SPEED*%
X101600000Y-95250000D03*
D11*
%TO.P,M2,8,GND*%
%TO.N,GND*%
X104140000Y-95250000D03*
%TO.P,M2,9,GND*%
X104140000Y-82550000D03*
D12*
%TO.P,M2,10,VMOT*%
%TO.N,+5V*%
X101600000Y-82550000D03*
%TO.P,M2,11,BO1*%
%TO.N,BR_M+*%
X99060000Y-82550000D03*
%TO.P,M2,12,BO2*%
%TO.N,BR_M-*%
X96520000Y-82550000D03*
%TO.P,M2,13,AO2*%
%TO.N,BL_M-*%
X93980000Y-82550000D03*
%TO.P,M2,14,AO1*%
%TO.N,BL_M+*%
X91440000Y-82550000D03*
%TO.P,M2,15,VCC*%
%TO.N,+3.3V*%
X88900000Y-82550000D03*
D11*
%TO.P,M2,16,GND*%
%TO.N,GND*%
X86360000Y-82550000D03*
%TD*%
%TO.P,J1,1,Pin_1*%
%TO.N,BL_M+*%
X94615000Y-109220000D03*
D12*
%TO.P,J1,2,Pin_2*%
%TO.N,BL_M-*%
X92075000Y-109220000D03*
%TO.P,J1,3,Pin_3*%
%TO.N,+3.3V*%
X89535000Y-109220000D03*
%TO.P,J1,4,Pin_4*%
%TO.N,BL_ENC_A*%
X86995000Y-109220000D03*
%TO.P,J1,5,Pin_5*%
%TO.N,BL_ENC_B*%
X84455000Y-109220000D03*
%TO.P,J1,6,Pin_6*%
%TO.N,GND*%
X81915000Y-109220000D03*
%TD*%
D13*
%TO.P,H2,1,1*%
%TO.N,GND*%
X155000000Y-65000000D03*
%TD*%
D18*
%TO.N,GND*%
X151003000Y-99822000D03*
X97409000Y-97028000D03*
X135509000Y-85979000D03*
X132969000Y-85979000D03*
X130429000Y-85979000D03*
X140716000Y-74041000D03*
X143256000Y-74041000D03*
X145796000Y-74041000D03*
X144272000Y-89789000D03*
X119888000Y-83566000D03*
X139954000Y-82169000D03*
X145415000Y-78613000D03*
X153416000Y-79375000D03*
X144399000Y-82423000D03*
X128905000Y-80645000D03*
X94996000Y-75565000D03*
X97155000Y-79121000D03*
X113665000Y-80518000D03*
X142494000Y-90551000D03*
X146558000Y-106553000D03*
X94996000Y-93218000D03*
X112268000Y-86614000D03*
X89662000Y-79629000D03*
X101219000Y-106553000D03*
X104902000Y-104267000D03*
X98425000Y-102870000D03*
X86995000Y-92075000D03*
X86868000Y-85471000D03*
X94996000Y-85852000D03*
X91694000Y-90805000D03*
X86487000Y-69723000D03*
X90678000Y-68199000D03*
X91948000Y-72136000D03*
%TO.N,+5V*%
X99949000Y-88900000D03*
%TO.N,GND*%
X104267000Y-99187000D03*
X112141000Y-92837000D03*
X136906000Y-68707000D03*
X141097000Y-68580000D03*
X147447000Y-67437000D03*
%TO.N,FL_ENC_A*%
X135948551Y-102743000D03*
%TO.N,FL_ENC_B*%
X136652000Y-102362000D03*
%TO.N,FR_ENC_A*%
X137252000Y-103943000D03*
%TO.N,FR_ENC_B*%
X137852000Y-103343000D03*
%TO.N,BL_ENC_A*%
X138452000Y-101127000D03*
%TO.N,BL_ENC_B*%
X138955539Y-101748653D03*
%TO.N,BR_ENC_A*%
X139697206Y-93977206D03*
%TO.N,BR_ENC_B*%
X137160000Y-95758000D03*
%TO.N,FL_DIR*%
X116824877Y-79883000D03*
%TO.N,FR_SPEED*%
X112649000Y-78994000D03*
%TO.N,FL_SPEED*%
X111627529Y-80845000D03*
%TO.N,FR_DIR*%
X116170000Y-79121000D03*
%TO.N,BR_SPEED*%
X114219456Y-81661000D03*
%TO.N,BR_DIR*%
X114935000Y-82550000D03*
%TO.N,BL_DIR*%
X115570000Y-83439000D03*
%TO.N,BL_SPEED*%
X113347500Y-84391500D03*
X107807000Y-84369250D03*
%TO.N,BL_DIR*%
X107823000Y-83483498D03*
%TO.N,BR_DIR*%
X107823000Y-82550000D03*
%TO.N,BR_SPEED*%
X107823000Y-81661000D03*
%TO.N,BR_DIR*%
X94234000Y-91313000D03*
%TO.N,FR_DIR*%
X94250499Y-73467000D03*
%TD*%
D19*
%TO.N,FL_SPEED*%
X128581000Y-85401000D02*
X130810000Y-87630000D01*
X112579000Y-85401000D02*
X128581000Y-85401000D01*
X111627529Y-84449529D02*
X112579000Y-85401000D01*
X111627529Y-80845000D02*
X111627529Y-84449529D01*
%TO.N,FR_SPEED*%
X130721000Y-85001000D02*
X133350000Y-87630000D01*
X113108471Y-85001000D02*
X130721000Y-85001000D01*
X112522000Y-84414529D02*
X113108471Y-85001000D01*
X112522000Y-79121000D02*
X112522000Y-84414529D01*
X112649000Y-78994000D02*
X112522000Y-79121000D01*
%TO.N,BL_SPEED*%
X132861000Y-84601000D02*
X135890000Y-87630000D01*
X114053771Y-84601000D02*
X132861000Y-84601000D01*
X113844271Y-84391500D02*
X114053771Y-84601000D01*
X113347500Y-84391500D02*
X113844271Y-84391500D01*
%TO.N,BR_SPEED*%
X135001000Y-84201000D02*
X138430000Y-87630000D01*
X114219456Y-84201000D02*
X135001000Y-84201000D01*
X114219456Y-81661000D02*
X114219456Y-84201000D01*
%TO.N,FL_DIR*%
X145104000Y-75876000D02*
X148590000Y-72390000D01*
X118618686Y-75876000D02*
X145104000Y-75876000D01*
X116824877Y-77669809D02*
X118618686Y-75876000D01*
X116824877Y-79883000D02*
X116824877Y-77669809D01*
%TO.N,FR_DIR*%
X118453000Y-75476000D02*
X142964000Y-75476000D01*
X116170000Y-77759000D02*
X118453000Y-75476000D01*
X142964000Y-75476000D02*
X146050000Y-72390000D01*
X116170000Y-79121000D02*
X116170000Y-77759000D01*
%TO.N,BL_DIR*%
X140824000Y-75076000D02*
X143510000Y-72390000D01*
X118275686Y-75076000D02*
X140824000Y-75076000D01*
X115570000Y-83439000D02*
X115570000Y-77781686D01*
X115570000Y-77781686D02*
X118275686Y-75076000D01*
%TO.N,+5V*%
X101600000Y-87249000D02*
X101600000Y-82550000D01*
X99949000Y-88900000D02*
X101600000Y-87249000D01*
D20*
%TO.N,+3.3V*%
X153670000Y-69850000D02*
X153670000Y-72390000D01*
X146050000Y-62230000D02*
X153670000Y-69850000D01*
X91440000Y-62230000D02*
X146050000Y-62230000D01*
X88900000Y-64770000D02*
X91440000Y-62230000D01*
D19*
%TO.N,D12*%
X150030000Y-81450000D02*
X156210000Y-87630000D01*
X149055635Y-70960000D02*
X150030000Y-71934365D01*
X150030000Y-71934365D02*
X150030000Y-81450000D01*
X147150000Y-70960000D02*
X149055635Y-70960000D01*
X140960000Y-64770000D02*
X147150000Y-70960000D01*
%TO.N,BR_ENC_A*%
X134620000Y-103505000D02*
X140335000Y-109220000D01*
X139697206Y-94260050D02*
X134620000Y-99337256D01*
X134620000Y-99337256D02*
X134620000Y-103505000D01*
X139697206Y-93977206D02*
X139697206Y-94260050D01*
%TO.N,BR_DIR*%
X118110000Y-74676000D02*
X138684000Y-74676000D01*
X138684000Y-74676000D02*
X140970000Y-72390000D01*
X114935000Y-82550000D02*
X114935000Y-77851000D01*
X114935000Y-77851000D02*
X118110000Y-74676000D01*
%TO.N,BL_ENC_B*%
X148221372Y-89130000D02*
X152170000Y-89130000D01*
X139052000Y-101652192D02*
X139052000Y-98299372D01*
X138955539Y-101748653D02*
X139052000Y-101652192D01*
X139052000Y-98299372D02*
X148221372Y-89130000D01*
X152170000Y-89130000D02*
X153670000Y-87630000D01*
%TO.N,BL_ENC_A*%
X150030000Y-88730000D02*
X151130000Y-87630000D01*
X148055686Y-88730000D02*
X150030000Y-88730000D01*
X138452000Y-98333686D02*
X148055686Y-88730000D01*
X138452000Y-101127000D02*
X138452000Y-98333686D01*
%TO.N,FR_ENC_B*%
X137852000Y-98368000D02*
X148590000Y-87630000D01*
X137852000Y-103343000D02*
X137852000Y-98368000D01*
%TO.N,FR_ENC_A*%
X146050000Y-89604314D02*
X146050000Y-87630000D01*
X137252000Y-103943000D02*
X137252000Y-98402314D01*
X137252000Y-98402314D02*
X146050000Y-89604314D01*
D20*
%TO.N,FR_M-*%
X99370050Y-66070000D02*
X97820000Y-66070000D01*
X110068086Y-76768036D02*
X99370050Y-66070000D01*
X110068086Y-88833036D02*
X110068086Y-76768036D01*
X127635000Y-106399950D02*
X110068086Y-88833036D01*
X127635000Y-109220000D02*
X127635000Y-106399950D01*
X97820000Y-66070000D02*
X96520000Y-64770000D01*
%TO.N,FL_M+*%
X108668086Y-77347936D02*
X98790150Y-67470000D01*
X112395000Y-107823000D02*
X108668086Y-104096086D01*
X112395000Y-109220000D02*
X112395000Y-107823000D01*
X108668086Y-104096086D02*
X108668086Y-77347936D01*
X98790150Y-67470000D02*
X94140000Y-67470000D01*
X94140000Y-67470000D02*
X91440000Y-64770000D01*
%TO.N,FL_M-*%
X113695000Y-110520000D02*
X111155000Y-110520000D01*
X113695000Y-108133050D02*
X113695000Y-110520000D01*
X109368086Y-103806136D02*
X113695000Y-108133050D01*
X109368086Y-77057986D02*
X109368086Y-103806136D01*
X111155000Y-110520000D02*
X109855000Y-109220000D01*
X95980000Y-66770000D02*
X99080100Y-66770000D01*
X99080100Y-66770000D02*
X109368086Y-77057986D01*
X93980000Y-64770000D02*
X95980000Y-66770000D01*
%TO.N,FR_M+*%
X110768086Y-88543086D02*
X110768086Y-76478086D01*
X130175000Y-107950000D02*
X110768086Y-88543086D01*
X130175000Y-109220000D02*
X130175000Y-107950000D01*
X110768086Y-76478086D02*
X99060000Y-64770000D01*
%TO.N,BL_M-*%
X92075000Y-109280000D02*
X92075000Y-109220000D01*
X94304950Y-107920000D02*
X95915000Y-107920000D01*
X84328000Y-97943050D02*
X94304950Y-107920000D01*
X93315000Y-110520000D02*
X92075000Y-109280000D01*
X84328000Y-92556950D02*
X84328000Y-97943050D01*
X93980000Y-82904950D02*
X84328000Y-92556950D01*
X95915000Y-107920000D02*
X95915000Y-110520000D01*
X93980000Y-82550000D02*
X93980000Y-82904950D01*
X95915000Y-110520000D02*
X93315000Y-110520000D01*
%TO.N,FL_M-*%
X109855000Y-109220000D02*
X110109000Y-108966000D01*
%TO.N,+3.3V*%
X89535000Y-105129950D02*
X89535000Y-109220000D01*
X82928000Y-98522950D02*
X89535000Y-105129950D01*
X82928000Y-91977050D02*
X82928000Y-98522950D01*
X88900000Y-86005050D02*
X82928000Y-91977050D01*
X88900000Y-82550000D02*
X88900000Y-86005050D01*
%TO.N,BL_M+*%
X83628000Y-92267000D02*
X83628000Y-98233000D01*
X91440000Y-84455000D02*
X83628000Y-92267000D01*
X83628000Y-98233000D02*
X94615000Y-109220000D01*
X91440000Y-82550000D02*
X91440000Y-84455000D01*
%TO.N,+3.3V*%
X92583000Y-112268000D02*
X89535000Y-109220000D01*
X107315000Y-109220000D02*
X104267000Y-112268000D01*
X104267000Y-112268000D02*
X92583000Y-112268000D01*
X122555000Y-111760000D02*
X125095000Y-109220000D01*
X109855000Y-111760000D02*
X122555000Y-111760000D01*
X107315000Y-109220000D02*
X109855000Y-111760000D01*
X127889000Y-112014000D02*
X125095000Y-109220000D01*
X140081000Y-112014000D02*
X127889000Y-112014000D01*
X142875000Y-109220000D02*
X140081000Y-112014000D01*
D19*
X93980000Y-95885000D02*
X93980000Y-95250000D01*
D20*
X88900000Y-72390000D02*
X93980000Y-77470000D01*
X88900000Y-64770000D02*
X88900000Y-72390000D01*
D19*
%TO.N,FR_DIR*%
X95057000Y-73467000D02*
X99060000Y-77470000D01*
X94250499Y-73467000D02*
X95057000Y-73467000D01*
%TO.N,BR_DIR*%
X95123000Y-91313000D02*
X99060000Y-95250000D01*
X94234000Y-91313000D02*
X95123000Y-91313000D01*
D20*
%TO.N,+3.3V*%
X93980000Y-77470000D02*
X88900000Y-82550000D01*
D19*
%TO.N,BR_ENC_B*%
X134220000Y-103670686D02*
X137795000Y-107245686D01*
X137795000Y-107245686D02*
X137795000Y-109220000D01*
X134220000Y-99171570D02*
X134220000Y-103670686D01*
X137160000Y-96231570D02*
X134220000Y-99171570D01*
X137160000Y-95758000D02*
X137160000Y-96231570D01*
%TO.N,FL_ENC_A*%
X140970000Y-93552942D02*
X140970000Y-87630000D01*
X135948551Y-98574391D02*
X140970000Y-93552942D01*
X135948551Y-102743000D02*
X135948551Y-98574391D01*
%TO.N,FL_ENC_B*%
X143510000Y-91578628D02*
X143510000Y-87630000D01*
X136652000Y-98436628D02*
X143510000Y-91578628D01*
X136652000Y-102362000D02*
X136652000Y-98436628D01*
%TO.N,BR_SPEED*%
X103194000Y-96844000D02*
X101600000Y-95250000D01*
X106184186Y-83299814D02*
X106184186Y-96215179D01*
X106184186Y-96215179D02*
X105555365Y-96844000D01*
X107823000Y-81661000D02*
X106184186Y-83299814D01*
X105555365Y-96844000D02*
X103194000Y-96844000D01*
%TO.N,BR_DIR*%
X101054000Y-97244000D02*
X99060000Y-95250000D01*
X105721051Y-97244000D02*
X101054000Y-97244000D01*
X106584186Y-83788814D02*
X106584186Y-96380865D01*
X106584186Y-96380865D02*
X105721051Y-97244000D01*
X107823000Y-82550000D02*
X106584186Y-83788814D01*
%TO.N,BL_DIR*%
X107622997Y-83683501D02*
X107823000Y-83483498D01*
X107574471Y-83683501D02*
X107622997Y-83683501D01*
X106984186Y-96546551D02*
X106984186Y-84273786D01*
X91294000Y-97644000D02*
X105886737Y-97644000D01*
X105886737Y-97644000D02*
X106984186Y-96546551D01*
X106984186Y-84273786D02*
X107574471Y-83683501D01*
X88900000Y-95250000D02*
X91294000Y-97644000D01*
%TO.N,BL_SPEED*%
X89154000Y-98044000D02*
X86360000Y-95250000D01*
X107461000Y-96635423D02*
X106052423Y-98044000D01*
X106052423Y-98044000D02*
X89154000Y-98044000D01*
X107461000Y-84715250D02*
X107461000Y-96635423D01*
X107807000Y-84369250D02*
X107461000Y-84715250D01*
%TD*%
%TA.AperFunction,Conductor*%
%TO.N,GND*%
G36*
X85283703Y-96073918D02*
G01*
X85304073Y-96096506D01*
X85321505Y-96121401D01*
X85488599Y-96288495D01*
X85501554Y-96297566D01*
X85682165Y-96424032D01*
X85682167Y-96424033D01*
X85682170Y-96424035D01*
X85896337Y-96523903D01*
X86124592Y-96585063D01*
X86312918Y-96601539D01*
X86359999Y-96605659D01*
X86360000Y-96605659D01*
X86360001Y-96605659D01*
X86399234Y-96602226D01*
X86595408Y-96585063D01*
X86723757Y-96550672D01*
X86793606Y-96552335D01*
X86843530Y-96582765D01*
X88785284Y-98524520D01*
X88785286Y-98524521D01*
X88785290Y-98524524D01*
X88922209Y-98603573D01*
X88922212Y-98603575D01*
X88922216Y-98603577D01*
X89074943Y-98644501D01*
X89074945Y-98644501D01*
X89240654Y-98644501D01*
X89240670Y-98644500D01*
X105965754Y-98644500D01*
X105965770Y-98644501D01*
X105973366Y-98644501D01*
X106131477Y-98644501D01*
X106131480Y-98644501D01*
X106284208Y-98603577D01*
X106350209Y-98565471D01*
X106421139Y-98524520D01*
X106532943Y-98412716D01*
X106532943Y-98412714D01*
X106543147Y-98402511D01*
X106543150Y-98402506D01*
X107705906Y-97239750D01*
X107767228Y-97206267D01*
X107836920Y-97211251D01*
X107892853Y-97253123D01*
X107917270Y-97318587D01*
X107917586Y-97327433D01*
X107917586Y-104170004D01*
X107917586Y-104170006D01*
X107917585Y-104170006D01*
X107946426Y-104314993D01*
X107946429Y-104315003D01*
X108003000Y-104451578D01*
X108035898Y-104500813D01*
X108035899Y-104500816D01*
X108085132Y-104574500D01*
X108085138Y-104574507D01*
X111278208Y-107767575D01*
X111311693Y-107828898D01*
X111306709Y-107898590D01*
X111264840Y-107954522D01*
X111187451Y-108012456D01*
X111101206Y-108127664D01*
X111101203Y-108127669D01*
X111052189Y-108259083D01*
X111010317Y-108315016D01*
X110944853Y-108339433D01*
X110876580Y-108324581D01*
X110848326Y-108303430D01*
X110726402Y-108181506D01*
X110726395Y-108181501D01*
X110532834Y-108045967D01*
X110532830Y-108045965D01*
X110460970Y-108012456D01*
X110318663Y-107946097D01*
X110318659Y-107946096D01*
X110318655Y-107946094D01*
X110090413Y-107884938D01*
X110090403Y-107884936D01*
X109855001Y-107864341D01*
X109854999Y-107864341D01*
X109619596Y-107884936D01*
X109619586Y-107884938D01*
X109391344Y-107946094D01*
X109391335Y-107946098D01*
X109177171Y-108045964D01*
X109177169Y-108045965D01*
X108983597Y-108181505D01*
X108816505Y-108348597D01*
X108686575Y-108534158D01*
X108631998Y-108577783D01*
X108562500Y-108584977D01*
X108500145Y-108553454D01*
X108483425Y-108534158D01*
X108353494Y-108348597D01*
X108186402Y-108181506D01*
X108186395Y-108181501D01*
X107992834Y-108045967D01*
X107992830Y-108045965D01*
X107920970Y-108012456D01*
X107778663Y-107946097D01*
X107778659Y-107946096D01*
X107778655Y-107946094D01*
X107550413Y-107884938D01*
X107550403Y-107884936D01*
X107315001Y-107864341D01*
X107314999Y-107864341D01*
X107079596Y-107884936D01*
X107079586Y-107884938D01*
X106851344Y-107946094D01*
X106851335Y-107946098D01*
X106637171Y-108045964D01*
X106637169Y-108045965D01*
X106443597Y-108181505D01*
X106276505Y-108348597D01*
X106146575Y-108534158D01*
X106091998Y-108577783D01*
X106022500Y-108584977D01*
X105960145Y-108553454D01*
X105943425Y-108534158D01*
X105813494Y-108348597D01*
X105646402Y-108181506D01*
X105646395Y-108181501D01*
X105452834Y-108045967D01*
X105452830Y-108045965D01*
X105380970Y-108012456D01*
X105238663Y-107946097D01*
X105238659Y-107946096D01*
X105238655Y-107946094D01*
X105010413Y-107884938D01*
X105010403Y-107884936D01*
X104775001Y-107864341D01*
X104774999Y-107864341D01*
X104539596Y-107884936D01*
X104539586Y-107884938D01*
X104311344Y-107946094D01*
X104311335Y-107946098D01*
X104097171Y-108045964D01*
X104097169Y-108045965D01*
X103903597Y-108181505D01*
X103736505Y-108348597D01*
X103606575Y-108534158D01*
X103551998Y-108577783D01*
X103482500Y-108584977D01*
X103420145Y-108553454D01*
X103403425Y-108534158D01*
X103273494Y-108348597D01*
X103106402Y-108181506D01*
X103106395Y-108181501D01*
X102912834Y-108045967D01*
X102912830Y-108045965D01*
X102840970Y-108012456D01*
X102698663Y-107946097D01*
X102698659Y-107946096D01*
X102698655Y-107946094D01*
X102470413Y-107884938D01*
X102470403Y-107884936D01*
X102235001Y-107864341D01*
X102234999Y-107864341D01*
X101999596Y-107884936D01*
X101999586Y-107884938D01*
X101771344Y-107946094D01*
X101771335Y-107946098D01*
X101557171Y-108045964D01*
X101557169Y-108045965D01*
X101363597Y-108181505D01*
X101196508Y-108348594D01*
X101066269Y-108534595D01*
X101011692Y-108578219D01*
X100942193Y-108585412D01*
X100879839Y-108553890D01*
X100863119Y-108534594D01*
X100733113Y-108348926D01*
X100733108Y-108348920D01*
X100566082Y-108181894D01*
X100372578Y-108046399D01*
X100158492Y-107946570D01*
X100158486Y-107946567D01*
X99945000Y-107889364D01*
X99945000Y-108786988D01*
X99887993Y-108754075D01*
X99760826Y-108720000D01*
X99629174Y-108720000D01*
X99502007Y-108754075D01*
X99445000Y-108786988D01*
X99445000Y-107889364D01*
X99444999Y-107889364D01*
X99231513Y-107946567D01*
X99231507Y-107946570D01*
X99017422Y-108046399D01*
X99017420Y-108046400D01*
X98823926Y-108181886D01*
X98823920Y-108181891D01*
X98656891Y-108348920D01*
X98656886Y-108348926D01*
X98521400Y-108542420D01*
X98521399Y-108542422D01*
X98421570Y-108756507D01*
X98421567Y-108756513D01*
X98364364Y-108969999D01*
X98364364Y-108970000D01*
X99261988Y-108970000D01*
X99229075Y-109027007D01*
X99195000Y-109154174D01*
X99195000Y-109285826D01*
X99229075Y-109412993D01*
X99261988Y-109470000D01*
X98364364Y-109470000D01*
X98421567Y-109683486D01*
X98421570Y-109683492D01*
X98521399Y-109897578D01*
X98656894Y-110091082D01*
X98823917Y-110258105D01*
X99017421Y-110393600D01*
X99231507Y-110493429D01*
X99231516Y-110493433D01*
X99445000Y-110550634D01*
X99445000Y-109653012D01*
X99502007Y-109685925D01*
X99629174Y-109720000D01*
X99760826Y-109720000D01*
X99887993Y-109685925D01*
X99945000Y-109653012D01*
X99945000Y-110550633D01*
X100158483Y-110493433D01*
X100158492Y-110493429D01*
X100372578Y-110393600D01*
X100566082Y-110258105D01*
X100733105Y-110091082D01*
X100863119Y-109905405D01*
X100917696Y-109861781D01*
X100987195Y-109854588D01*
X101049549Y-109886110D01*
X101066269Y-109905405D01*
X101196505Y-110091401D01*
X101363599Y-110258495D01*
X101460384Y-110326265D01*
X101557165Y-110394032D01*
X101557167Y-110394033D01*
X101557170Y-110394035D01*
X101771337Y-110493903D01*
X101999592Y-110555063D01*
X102179337Y-110570789D01*
X102234999Y-110575659D01*
X102235000Y-110575659D01*
X102235001Y-110575659D01*
X102290663Y-110570789D01*
X102470408Y-110555063D01*
X102698663Y-110493903D01*
X102912830Y-110394035D01*
X103106401Y-110258495D01*
X103273495Y-110091401D01*
X103403425Y-109905842D01*
X103458002Y-109862217D01*
X103527500Y-109855023D01*
X103589855Y-109886546D01*
X103606575Y-109905842D01*
X103736281Y-110091082D01*
X103736505Y-110091401D01*
X103903599Y-110258495D01*
X104000384Y-110326265D01*
X104097165Y-110394032D01*
X104097167Y-110394033D01*
X104097170Y-110394035D01*
X104311337Y-110493903D01*
X104539592Y-110555063D01*
X104623173Y-110562375D01*
X104688241Y-110587827D01*
X104729220Y-110644418D01*
X104733098Y-110714180D01*
X104700046Y-110773584D01*
X103992451Y-111481181D01*
X103931128Y-111514666D01*
X103904770Y-111517500D01*
X96005165Y-111517500D01*
X95938126Y-111497815D01*
X95892371Y-111445011D01*
X95882427Y-111375853D01*
X95911452Y-111312297D01*
X95970230Y-111274523D01*
X95983012Y-111272039D01*
X95982943Y-111271689D01*
X96123069Y-111243815D01*
X96133913Y-111241658D01*
X96270495Y-111185084D01*
X96393416Y-111102951D01*
X96497951Y-110998416D01*
X96580084Y-110875495D01*
X96636658Y-110738913D01*
X96655455Y-110644418D01*
X96665500Y-110593920D01*
X96665500Y-107846079D01*
X96636659Y-107701092D01*
X96636658Y-107701091D01*
X96636658Y-107701087D01*
X96636656Y-107701082D01*
X96580087Y-107564511D01*
X96580080Y-107564498D01*
X96497951Y-107441584D01*
X96497948Y-107441580D01*
X96393419Y-107337051D01*
X96393415Y-107337048D01*
X96270501Y-107254919D01*
X96270488Y-107254912D01*
X96133917Y-107198343D01*
X96133907Y-107198340D01*
X95988920Y-107169500D01*
X95988918Y-107169500D01*
X94667180Y-107169500D01*
X94600141Y-107149815D01*
X94579499Y-107133181D01*
X85114819Y-97668501D01*
X85081334Y-97607178D01*
X85078500Y-97580820D01*
X85078500Y-96167631D01*
X85098185Y-96100592D01*
X85150989Y-96054837D01*
X85220147Y-96044893D01*
X85283703Y-96073918D01*
G37*
%TD.AperFunction*%
%TA.AperFunction,Conductor*%
G36*
X111723789Y-85395470D02*
G01*
X111730267Y-85401502D01*
X112094139Y-85765374D01*
X112094149Y-85765385D01*
X112098479Y-85769715D01*
X112098480Y-85769716D01*
X112210284Y-85881520D01*
X112296217Y-85931133D01*
X112296218Y-85931134D01*
X112347209Y-85960574D01*
X112347210Y-85960574D01*
X112347215Y-85960577D01*
X112499942Y-86001500D01*
X112499943Y-86001500D01*
X128280903Y-86001500D01*
X128347942Y-86021185D01*
X128368584Y-86037819D01*
X128511621Y-86180856D01*
X128545106Y-86242179D01*
X128540122Y-86311871D01*
X128520000Y-86339086D01*
X128520000Y-87196988D01*
X128462993Y-87164075D01*
X128335826Y-87130000D01*
X128204174Y-87130000D01*
X128077007Y-87164075D01*
X128020000Y-87196988D01*
X128020000Y-86351127D01*
X127823671Y-86403734D01*
X127617517Y-86499865D01*
X127431179Y-86630342D01*
X127270342Y-86791179D01*
X127139867Y-86977515D01*
X127112657Y-87035867D01*
X127066484Y-87088306D01*
X126999290Y-87107457D01*
X126932409Y-87087241D01*
X126887893Y-87035865D01*
X126878602Y-87015941D01*
X126860568Y-86977266D01*
X126730047Y-86790861D01*
X126730045Y-86790858D01*
X126569141Y-86629954D01*
X126382734Y-86499432D01*
X126382732Y-86499431D01*
X126176497Y-86403261D01*
X126176488Y-86403258D01*
X125956697Y-86344366D01*
X125956693Y-86344365D01*
X125956692Y-86344365D01*
X125956691Y-86344364D01*
X125956686Y-86344364D01*
X125730002Y-86324532D01*
X125729998Y-86324532D01*
X125503313Y-86344364D01*
X125503302Y-86344366D01*
X125283511Y-86403258D01*
X125283502Y-86403261D01*
X125077267Y-86499431D01*
X125077265Y-86499432D01*
X124890858Y-86629954D01*
X124729954Y-86790858D01*
X124599432Y-86977265D01*
X124599431Y-86977267D01*
X124572382Y-87035275D01*
X124526209Y-87087714D01*
X124459016Y-87106866D01*
X124392135Y-87086650D01*
X124347618Y-87035275D01*
X124320568Y-86977266D01*
X124190047Y-86790861D01*
X124190045Y-86790858D01*
X124029141Y-86629954D01*
X123842734Y-86499432D01*
X123842732Y-86499431D01*
X123636497Y-86403261D01*
X123636488Y-86403258D01*
X123416697Y-86344366D01*
X123416693Y-86344365D01*
X123416692Y-86344365D01*
X123416691Y-86344364D01*
X123416686Y-86344364D01*
X123190002Y-86324532D01*
X123189998Y-86324532D01*
X122963313Y-86344364D01*
X122963302Y-86344366D01*
X122743511Y-86403258D01*
X122743502Y-86403261D01*
X122537267Y-86499431D01*
X122537265Y-86499432D01*
X122350858Y-86629954D01*
X122189954Y-86790858D01*
X122172725Y-86815464D01*
X122118147Y-86859088D01*
X122048648Y-86866280D01*
X121986294Y-86834757D01*
X121950882Y-86774526D01*
X121947861Y-86757591D01*
X121944091Y-86722516D01*
X121893797Y-86587671D01*
X121893793Y-86587664D01*
X121807547Y-86472455D01*
X121807544Y-86472452D01*
X121692335Y-86386206D01*
X121692328Y-86386202D01*
X121557482Y-86335908D01*
X121557483Y-86335908D01*
X121497883Y-86329501D01*
X121497881Y-86329500D01*
X121497873Y-86329500D01*
X121497864Y-86329500D01*
X119802129Y-86329500D01*
X119802123Y-86329501D01*
X119742516Y-86335908D01*
X119607671Y-86386202D01*
X119607664Y-86386206D01*
X119492455Y-86472452D01*
X119492452Y-86472455D01*
X119406206Y-86587664D01*
X119406202Y-86587671D01*
X119355908Y-86722517D01*
X119349501Y-86782116D01*
X119349500Y-86782135D01*
X119349500Y-88477870D01*
X119349501Y-88477876D01*
X119355908Y-88537483D01*
X119406202Y-88672328D01*
X119406206Y-88672335D01*
X119492452Y-88787544D01*
X119492455Y-88787547D01*
X119607664Y-88873793D01*
X119607671Y-88873797D01*
X119742517Y-88924091D01*
X119742516Y-88924091D01*
X119749444Y-88924835D01*
X119802127Y-88930500D01*
X121497872Y-88930499D01*
X121557483Y-88924091D01*
X121692331Y-88873796D01*
X121807546Y-88787546D01*
X121893796Y-88672331D01*
X121944091Y-88537483D01*
X121947862Y-88502401D01*
X121974599Y-88437855D01*
X122031990Y-88398006D01*
X122101816Y-88395511D01*
X122161905Y-88431163D01*
X122172726Y-88444536D01*
X122189956Y-88469143D01*
X122350858Y-88630045D01*
X122350861Y-88630047D01*
X122537266Y-88760568D01*
X122743504Y-88856739D01*
X122743509Y-88856740D01*
X122743511Y-88856741D01*
X122796415Y-88870916D01*
X122963308Y-88915635D01*
X123125230Y-88929801D01*
X123189998Y-88935468D01*
X123190000Y-88935468D01*
X123190002Y-88935468D01*
X123246807Y-88930498D01*
X123416692Y-88915635D01*
X123636496Y-88856739D01*
X123842734Y-88760568D01*
X124029139Y-88630047D01*
X124190047Y-88469139D01*
X124320568Y-88282734D01*
X124347618Y-88224724D01*
X124393790Y-88172285D01*
X124460983Y-88153133D01*
X124527865Y-88173348D01*
X124572382Y-88224725D01*
X124599429Y-88282728D01*
X124599432Y-88282734D01*
X124729954Y-88469141D01*
X124890858Y-88630045D01*
X124890861Y-88630047D01*
X125077266Y-88760568D01*
X125283504Y-88856739D01*
X125283509Y-88856740D01*
X125283511Y-88856741D01*
X125336415Y-88870916D01*
X125503308Y-88915635D01*
X125665230Y-88929801D01*
X125729998Y-88935468D01*
X125730000Y-88935468D01*
X125730002Y-88935468D01*
X125786807Y-88930498D01*
X125956692Y-88915635D01*
X126176496Y-88856739D01*
X126382734Y-88760568D01*
X126569139Y-88630047D01*
X126730047Y-88469139D01*
X126860568Y-88282734D01*
X126887895Y-88224129D01*
X126934064Y-88171695D01*
X127001257Y-88152542D01*
X127068139Y-88172757D01*
X127112657Y-88224133D01*
X127139865Y-88282482D01*
X127270342Y-88468820D01*
X127431179Y-88629657D01*
X127617517Y-88760134D01*
X127823673Y-88856265D01*
X127823682Y-88856269D01*
X128019999Y-88908872D01*
X128020000Y-88908871D01*
X128020000Y-88063012D01*
X128077007Y-88095925D01*
X128204174Y-88130000D01*
X128335826Y-88130000D01*
X128462993Y-88095925D01*
X128520000Y-88063012D01*
X128520000Y-88908872D01*
X128716317Y-88856269D01*
X128716326Y-88856265D01*
X128922482Y-88760134D01*
X129108820Y-88629657D01*
X129269657Y-88468820D01*
X129400132Y-88282484D01*
X129427341Y-88224134D01*
X129473513Y-88171695D01*
X129540707Y-88152542D01*
X129607588Y-88172757D01*
X129652106Y-88224133D01*
X129679431Y-88282732D01*
X129679432Y-88282734D01*
X129809954Y-88469141D01*
X129970858Y-88630045D01*
X129970861Y-88630047D01*
X130157266Y-88760568D01*
X130363504Y-88856739D01*
X130363509Y-88856740D01*
X130363511Y-88856741D01*
X130416415Y-88870916D01*
X130583308Y-88915635D01*
X130745230Y-88929801D01*
X130809998Y-88935468D01*
X130810000Y-88935468D01*
X130810002Y-88935468D01*
X130866807Y-88930498D01*
X131036692Y-88915635D01*
X131256496Y-88856739D01*
X131462734Y-88760568D01*
X131649139Y-88630047D01*
X131810047Y-88469139D01*
X131940568Y-88282734D01*
X131967618Y-88224724D01*
X132013790Y-88172285D01*
X132080983Y-88153133D01*
X132147865Y-88173348D01*
X132192382Y-88224725D01*
X132219429Y-88282728D01*
X132219432Y-88282734D01*
X132349954Y-88469141D01*
X132510858Y-88630045D01*
X132510861Y-88630047D01*
X132697266Y-88760568D01*
X132903504Y-88856739D01*
X132903509Y-88856740D01*
X132903511Y-88856741D01*
X132956415Y-88870916D01*
X133123308Y-88915635D01*
X133285230Y-88929801D01*
X133349998Y-88935468D01*
X133350000Y-88935468D01*
X133350002Y-88935468D01*
X133406807Y-88930498D01*
X133576692Y-88915635D01*
X133796496Y-88856739D01*
X134002734Y-88760568D01*
X134189139Y-88630047D01*
X134350047Y-88469139D01*
X134480568Y-88282734D01*
X134507618Y-88224724D01*
X134553790Y-88172285D01*
X134620983Y-88153133D01*
X134687865Y-88173348D01*
X134732382Y-88224725D01*
X134759429Y-88282728D01*
X134759432Y-88282734D01*
X134889954Y-88469141D01*
X135050858Y-88630045D01*
X135050861Y-88630047D01*
X135237266Y-88760568D01*
X135443504Y-88856739D01*
X135443509Y-88856740D01*
X135443511Y-88856741D01*
X135496415Y-88870916D01*
X135663308Y-88915635D01*
X135825230Y-88929801D01*
X135889998Y-88935468D01*
X135890000Y-88935468D01*
X135890002Y-88935468D01*
X135946807Y-88930498D01*
X136116692Y-88915635D01*
X136336496Y-88856739D01*
X136542734Y-88760568D01*
X136729139Y-88630047D01*
X136890047Y-88469139D01*
X137020568Y-88282734D01*
X137047618Y-88224724D01*
X137093790Y-88172285D01*
X137160983Y-88153133D01*
X137227865Y-88173348D01*
X137272382Y-88224725D01*
X137299429Y-88282728D01*
X137299432Y-88282734D01*
X137429954Y-88469141D01*
X137590858Y-88630045D01*
X137590861Y-88630047D01*
X137777266Y-88760568D01*
X137983504Y-88856739D01*
X137983509Y-88856740D01*
X137983511Y-88856741D01*
X138036415Y-88870916D01*
X138203308Y-88915635D01*
X138365230Y-88929801D01*
X138429998Y-88935468D01*
X138430000Y-88935468D01*
X138430002Y-88935468D01*
X138486807Y-88930498D01*
X138656692Y-88915635D01*
X138876496Y-88856739D01*
X139082734Y-88760568D01*
X139269139Y-88630047D01*
X139430047Y-88469139D01*
X139560568Y-88282734D01*
X139587618Y-88224724D01*
X139633790Y-88172285D01*
X139700983Y-88153133D01*
X139767865Y-88173348D01*
X139812382Y-88224725D01*
X139839429Y-88282728D01*
X139839432Y-88282734D01*
X139969954Y-88469141D01*
X140130858Y-88630045D01*
X140130861Y-88630047D01*
X140316624Y-88760118D01*
X140360248Y-88814693D01*
X140369500Y-88861692D01*
X140369500Y-93229867D01*
X140349815Y-93296906D01*
X140297011Y-93342661D01*
X140227853Y-93352605D01*
X140179528Y-93334861D01*
X140046729Y-93251417D01*
X139876460Y-93191837D01*
X139876455Y-93191836D01*
X139697210Y-93171641D01*
X139697202Y-93171641D01*
X139517956Y-93191836D01*
X139517951Y-93191837D01*
X139347682Y-93251417D01*
X139194943Y-93347390D01*
X139067390Y-93474943D01*
X138971417Y-93627682D01*
X138911837Y-93797951D01*
X138911836Y-93797956D01*
X138891641Y-93977202D01*
X138891641Y-93977210D01*
X138909173Y-94132820D01*
X138897118Y-94201642D01*
X138873634Y-94234384D01*
X137908729Y-95199289D01*
X137847406Y-95232774D01*
X137777714Y-95227790D01*
X137733367Y-95199289D01*
X137662262Y-95128184D01*
X137509523Y-95032211D01*
X137339254Y-94972631D01*
X137339249Y-94972630D01*
X137160004Y-94952435D01*
X137159996Y-94952435D01*
X136980750Y-94972630D01*
X136980745Y-94972631D01*
X136810476Y-95032211D01*
X136657737Y-95128184D01*
X136530184Y-95255737D01*
X136434211Y-95408476D01*
X136374631Y-95578745D01*
X136374630Y-95578750D01*
X136354435Y-95757996D01*
X136354435Y-95758003D01*
X136374630Y-95937249D01*
X136374632Y-95937257D01*
X136408633Y-96034426D01*
X136412194Y-96104204D01*
X136379272Y-96163061D01*
X133851286Y-98691048D01*
X133739481Y-98802852D01*
X133739480Y-98802854D01*
X133695838Y-98878445D01*
X133660423Y-98939785D01*
X133619499Y-99092513D01*
X133619499Y-99092515D01*
X133619499Y-99260616D01*
X133619500Y-99260629D01*
X133619500Y-103584016D01*
X133619499Y-103584034D01*
X133619499Y-103749740D01*
X133619498Y-103749740D01*
X133653726Y-103877476D01*
X133660423Y-103902471D01*
X133683823Y-103943000D01*
X133720927Y-104007268D01*
X133739479Y-104039401D01*
X133858349Y-104158271D01*
X133858355Y-104158276D01*
X137158181Y-107458102D01*
X137191666Y-107519425D01*
X137194500Y-107545783D01*
X137194500Y-107930908D01*
X137174815Y-107997947D01*
X137122914Y-108043286D01*
X137117173Y-108045963D01*
X137117169Y-108045965D01*
X136923597Y-108181505D01*
X136756508Y-108348594D01*
X136626269Y-108534595D01*
X136571692Y-108578219D01*
X136502193Y-108585412D01*
X136439839Y-108553890D01*
X136423119Y-108534594D01*
X136293113Y-108348926D01*
X136293108Y-108348920D01*
X136126082Y-108181894D01*
X135932578Y-108046399D01*
X135718492Y-107946570D01*
X135718486Y-107946567D01*
X135505000Y-107889364D01*
X135505000Y-108786988D01*
X135447993Y-108754075D01*
X135320826Y-108720000D01*
X135189174Y-108720000D01*
X135062007Y-108754075D01*
X135005000Y-108786988D01*
X135005000Y-107889364D01*
X135004999Y-107889364D01*
X134791513Y-107946567D01*
X134791507Y-107946570D01*
X134577422Y-108046399D01*
X134577420Y-108046400D01*
X134383926Y-108181886D01*
X134383920Y-108181891D01*
X134216891Y-108348920D01*
X134216886Y-108348926D01*
X134081400Y-108542420D01*
X134081399Y-108542422D01*
X133981570Y-108756507D01*
X133981567Y-108756513D01*
X133924364Y-108969999D01*
X133924364Y-108970000D01*
X134821988Y-108970000D01*
X134789075Y-109027007D01*
X134755000Y-109154174D01*
X134755000Y-109285826D01*
X134789075Y-109412993D01*
X134821988Y-109470000D01*
X133924364Y-109470000D01*
X133981567Y-109683486D01*
X133981570Y-109683492D01*
X134081399Y-109897578D01*
X134216894Y-110091082D01*
X134383917Y-110258105D01*
X134577421Y-110393600D01*
X134791507Y-110493429D01*
X134791516Y-110493433D01*
X135005000Y-110550634D01*
X135005000Y-109653012D01*
X135062007Y-109685925D01*
X135189174Y-109720000D01*
X135320826Y-109720000D01*
X135447993Y-109685925D01*
X135505000Y-109653012D01*
X135505000Y-110550633D01*
X135718483Y-110493433D01*
X135718492Y-110493429D01*
X135932578Y-110393600D01*
X136126082Y-110258105D01*
X136293105Y-110091082D01*
X136423119Y-109905405D01*
X136477696Y-109861781D01*
X136547195Y-109854588D01*
X136609549Y-109886110D01*
X136626269Y-109905405D01*
X136756505Y-110091401D01*
X136923599Y-110258495D01*
X137020384Y-110326265D01*
X137117165Y-110394032D01*
X137117167Y-110394033D01*
X137117170Y-110394035D01*
X137331337Y-110493903D01*
X137559592Y-110555063D01*
X137739337Y-110570789D01*
X137794999Y-110575659D01*
X137795000Y-110575659D01*
X137795001Y-110575659D01*
X137850663Y-110570789D01*
X138030408Y-110555063D01*
X138258663Y-110493903D01*
X138472830Y-110394035D01*
X138666401Y-110258495D01*
X138833495Y-110091401D01*
X138963425Y-109905842D01*
X139018002Y-109862217D01*
X139087500Y-109855023D01*
X139149855Y-109886546D01*
X139166575Y-109905842D01*
X139296281Y-110091082D01*
X139296505Y-110091401D01*
X139463599Y-110258495D01*
X139560384Y-110326265D01*
X139657165Y-110394032D01*
X139657167Y-110394033D01*
X139657170Y-110394035D01*
X139871337Y-110493903D01*
X140099592Y-110555063D01*
X140183173Y-110562375D01*
X140248241Y-110587827D01*
X140289220Y-110644418D01*
X140293098Y-110714180D01*
X140260046Y-110773584D01*
X139806451Y-111227181D01*
X139745128Y-111260666D01*
X139718770Y-111263500D01*
X128251230Y-111263500D01*
X128184191Y-111243815D01*
X128163549Y-111227181D01*
X127709952Y-110773584D01*
X127676467Y-110712261D01*
X127681451Y-110642569D01*
X127723323Y-110586636D01*
X127786823Y-110562375D01*
X127870408Y-110555063D01*
X128098663Y-110493903D01*
X128312830Y-110394035D01*
X128506401Y-110258495D01*
X128628329Y-110136566D01*
X128689648Y-110103084D01*
X128759340Y-110108068D01*
X128815274Y-110149939D01*
X128832189Y-110180917D01*
X128881202Y-110312328D01*
X128881206Y-110312335D01*
X128967452Y-110427544D01*
X128967455Y-110427547D01*
X129082664Y-110513793D01*
X129082671Y-110513797D01*
X129217517Y-110564091D01*
X129217516Y-110564091D01*
X129224444Y-110564835D01*
X129277127Y-110570500D01*
X131072872Y-110570499D01*
X131132483Y-110564091D01*
X131267331Y-110513796D01*
X131382546Y-110427546D01*
X131468796Y-110312331D01*
X131519091Y-110177483D01*
X131525500Y-110117873D01*
X131525499Y-108322128D01*
X131519091Y-108262517D01*
X131517810Y-108259083D01*
X131468797Y-108127671D01*
X131468793Y-108127664D01*
X131382547Y-108012455D01*
X131382544Y-108012452D01*
X131267335Y-107926206D01*
X131267328Y-107926202D01*
X131132482Y-107875908D01*
X131132483Y-107875908D01*
X131072883Y-107869501D01*
X131072881Y-107869500D01*
X131072873Y-107869500D01*
X131072865Y-107869500D01*
X131025954Y-107869500D01*
X130958915Y-107849815D01*
X130913160Y-107797011D01*
X130904337Y-107769694D01*
X130896658Y-107731087D01*
X130840084Y-107594505D01*
X130807186Y-107545270D01*
X130807185Y-107545268D01*
X130757956Y-107471589D01*
X130757952Y-107471584D01*
X111554905Y-88268537D01*
X111521420Y-88207214D01*
X111518586Y-88180856D01*
X111518586Y-85489183D01*
X111538271Y-85422144D01*
X111591075Y-85376389D01*
X111660233Y-85366445D01*
X111723789Y-85395470D01*
G37*
%TD.AperFunction*%
%TA.AperFunction,Conductor*%
G36*
X110323789Y-90150553D02*
G01*
X110330267Y-90156585D01*
X126848181Y-106674499D01*
X126881666Y-106735822D01*
X126884500Y-106762180D01*
X126884500Y-108032298D01*
X126864815Y-108099337D01*
X126831625Y-108133872D01*
X126763595Y-108181507D01*
X126596505Y-108348597D01*
X126466575Y-108534158D01*
X126411998Y-108577783D01*
X126342500Y-108584977D01*
X126280145Y-108553454D01*
X126263425Y-108534158D01*
X126133494Y-108348597D01*
X125966402Y-108181506D01*
X125966395Y-108181501D01*
X125772834Y-108045967D01*
X125772830Y-108045965D01*
X125700970Y-108012456D01*
X125558663Y-107946097D01*
X125558659Y-107946096D01*
X125558655Y-107946094D01*
X125330413Y-107884938D01*
X125330403Y-107884936D01*
X125095001Y-107864341D01*
X125094999Y-107864341D01*
X124859596Y-107884936D01*
X124859586Y-107884938D01*
X124631344Y-107946094D01*
X124631335Y-107946098D01*
X124417171Y-108045964D01*
X124417169Y-108045965D01*
X124223597Y-108181505D01*
X124056505Y-108348597D01*
X123926575Y-108534158D01*
X123871998Y-108577783D01*
X123802500Y-108584977D01*
X123740145Y-108553454D01*
X123723425Y-108534158D01*
X123593494Y-108348597D01*
X123426402Y-108181506D01*
X123426395Y-108181501D01*
X123232834Y-108045967D01*
X123232830Y-108045965D01*
X123160970Y-108012456D01*
X123018663Y-107946097D01*
X123018659Y-107946096D01*
X123018655Y-107946094D01*
X122790413Y-107884938D01*
X122790403Y-107884936D01*
X122555001Y-107864341D01*
X122554999Y-107864341D01*
X122319596Y-107884936D01*
X122319586Y-107884938D01*
X122091344Y-107946094D01*
X122091335Y-107946098D01*
X121877171Y-108045964D01*
X121877169Y-108045965D01*
X121683597Y-108181505D01*
X121516505Y-108348597D01*
X121386575Y-108534158D01*
X121331998Y-108577783D01*
X121262500Y-108584977D01*
X121200145Y-108553454D01*
X121183425Y-108534158D01*
X121053494Y-108348597D01*
X120886402Y-108181506D01*
X120886395Y-108181501D01*
X120692834Y-108045967D01*
X120692830Y-108045965D01*
X120620970Y-108012456D01*
X120478663Y-107946097D01*
X120478659Y-107946096D01*
X120478655Y-107946094D01*
X120250413Y-107884938D01*
X120250403Y-107884936D01*
X120015001Y-107864341D01*
X120014999Y-107864341D01*
X119779596Y-107884936D01*
X119779586Y-107884938D01*
X119551344Y-107946094D01*
X119551335Y-107946098D01*
X119337171Y-108045964D01*
X119337169Y-108045965D01*
X119143597Y-108181505D01*
X118976508Y-108348594D01*
X118846269Y-108534595D01*
X118791692Y-108578219D01*
X118722193Y-108585412D01*
X118659839Y-108553890D01*
X118643119Y-108534594D01*
X118513113Y-108348926D01*
X118513108Y-108348920D01*
X118346082Y-108181894D01*
X118152578Y-108046399D01*
X117938492Y-107946570D01*
X117938486Y-107946567D01*
X117725000Y-107889364D01*
X117725000Y-108786988D01*
X117667993Y-108754075D01*
X117540826Y-108720000D01*
X117409174Y-108720000D01*
X117282007Y-108754075D01*
X117225000Y-108786988D01*
X117225000Y-107889364D01*
X117224999Y-107889364D01*
X117011513Y-107946567D01*
X117011507Y-107946570D01*
X116797422Y-108046399D01*
X116797420Y-108046400D01*
X116603926Y-108181886D01*
X116603920Y-108181891D01*
X116436891Y-108348920D01*
X116436886Y-108348926D01*
X116301400Y-108542420D01*
X116301399Y-108542422D01*
X116201570Y-108756507D01*
X116201567Y-108756513D01*
X116144364Y-108969999D01*
X116144364Y-108970000D01*
X117041988Y-108970000D01*
X117009075Y-109027007D01*
X116975000Y-109154174D01*
X116975000Y-109285826D01*
X117009075Y-109412993D01*
X117041988Y-109470000D01*
X116144364Y-109470000D01*
X116201567Y-109683486D01*
X116201570Y-109683492D01*
X116301399Y-109897578D01*
X116436894Y-110091082D01*
X116603917Y-110258105D01*
X116797421Y-110393600D01*
X117011507Y-110493429D01*
X117011516Y-110493433D01*
X117225000Y-110550634D01*
X117225000Y-109653012D01*
X117282007Y-109685925D01*
X117409174Y-109720000D01*
X117540826Y-109720000D01*
X117667993Y-109685925D01*
X117725000Y-109653012D01*
X117725000Y-110550633D01*
X117938483Y-110493433D01*
X117938492Y-110493429D01*
X118152578Y-110393600D01*
X118346082Y-110258105D01*
X118513105Y-110091082D01*
X118643119Y-109905405D01*
X118697696Y-109861781D01*
X118767195Y-109854588D01*
X118829549Y-109886110D01*
X118846269Y-109905405D01*
X118976505Y-110091401D01*
X119143599Y-110258495D01*
X119240384Y-110326265D01*
X119337165Y-110394032D01*
X119337167Y-110394033D01*
X119337170Y-110394035D01*
X119551337Y-110493903D01*
X119779592Y-110555063D01*
X119959337Y-110570789D01*
X120014999Y-110575659D01*
X120015000Y-110575659D01*
X120015001Y-110575659D01*
X120070663Y-110570789D01*
X120250408Y-110555063D01*
X120478663Y-110493903D01*
X120692830Y-110394035D01*
X120886401Y-110258495D01*
X121053495Y-110091401D01*
X121183425Y-109905842D01*
X121238002Y-109862217D01*
X121307500Y-109855023D01*
X121369855Y-109886546D01*
X121386575Y-109905842D01*
X121516281Y-110091082D01*
X121516505Y-110091401D01*
X121683599Y-110258495D01*
X121780384Y-110326265D01*
X121877165Y-110394032D01*
X121877167Y-110394033D01*
X121877170Y-110394035D01*
X122091337Y-110493903D01*
X122319592Y-110555063D01*
X122403173Y-110562375D01*
X122468241Y-110587827D01*
X122509220Y-110644418D01*
X122513098Y-110714180D01*
X122480047Y-110773584D01*
X122419529Y-110834102D01*
X122280449Y-110973182D01*
X122219129Y-111006666D01*
X122192770Y-111009500D01*
X114490157Y-111009500D01*
X114423118Y-110989815D01*
X114377363Y-110937011D01*
X114367419Y-110867853D01*
X114375596Y-110838048D01*
X114416656Y-110738917D01*
X114416658Y-110738913D01*
X114435455Y-110644418D01*
X114445500Y-110593920D01*
X114445500Y-108059129D01*
X114416659Y-107914142D01*
X114416658Y-107914141D01*
X114416658Y-107914137D01*
X114405514Y-107887233D01*
X114360087Y-107777561D01*
X114360080Y-107777548D01*
X114277952Y-107654635D01*
X114277951Y-107654634D01*
X114173416Y-107550099D01*
X110154905Y-103531587D01*
X110121420Y-103470264D01*
X110118586Y-103443906D01*
X110118586Y-90244266D01*
X110138271Y-90177227D01*
X110191075Y-90131472D01*
X110260233Y-90121528D01*
X110323789Y-90150553D01*
G37*
%TD.AperFunction*%
%TA.AperFunction,Conductor*%
G36*
X97874855Y-95916546D02*
G01*
X97891575Y-95935842D01*
X98011786Y-96107522D01*
X98021505Y-96121401D01*
X98188599Y-96288495D01*
X98201554Y-96297566D01*
X98382165Y-96424032D01*
X98382167Y-96424033D01*
X98382170Y-96424035D01*
X98596337Y-96523903D01*
X98824592Y-96585063D01*
X99012918Y-96601539D01*
X99059999Y-96605659D01*
X99060000Y-96605659D01*
X99060001Y-96605659D01*
X99099234Y-96602226D01*
X99295408Y-96585063D01*
X99423757Y-96550672D01*
X99493606Y-96552335D01*
X99543531Y-96582766D01*
X99792584Y-96831819D01*
X99826069Y-96893142D01*
X99821085Y-96962834D01*
X99779213Y-97018767D01*
X99713749Y-97043184D01*
X99704903Y-97043500D01*
X91594097Y-97043500D01*
X91527058Y-97023815D01*
X91506416Y-97007181D01*
X91313666Y-96814431D01*
X91280181Y-96753108D01*
X91285165Y-96683416D01*
X91327037Y-96627483D01*
X91392501Y-96603066D01*
X91412144Y-96603221D01*
X91440000Y-96605659D01*
X91675408Y-96585063D01*
X91903663Y-96523903D01*
X92117830Y-96424035D01*
X92311401Y-96288495D01*
X92478495Y-96121401D01*
X92608425Y-95935842D01*
X92663002Y-95892217D01*
X92732500Y-95885023D01*
X92794855Y-95916546D01*
X92811575Y-95935842D01*
X92931786Y-96107522D01*
X92941505Y-96121401D01*
X93108599Y-96288495D01*
X93121554Y-96297566D01*
X93302165Y-96424032D01*
X93302167Y-96424033D01*
X93302170Y-96424035D01*
X93516337Y-96523903D01*
X93744592Y-96585063D01*
X93932918Y-96601539D01*
X93979999Y-96605659D01*
X93980000Y-96605659D01*
X93980001Y-96605659D01*
X94019234Y-96602226D01*
X94215408Y-96585063D01*
X94443663Y-96523903D01*
X94657830Y-96424035D01*
X94851401Y-96288495D01*
X95018495Y-96121401D01*
X95148425Y-95935842D01*
X95203002Y-95892217D01*
X95272500Y-95885023D01*
X95334855Y-95916546D01*
X95351575Y-95935842D01*
X95471786Y-96107522D01*
X95481505Y-96121401D01*
X95648599Y-96288495D01*
X95661554Y-96297566D01*
X95842165Y-96424032D01*
X95842167Y-96424033D01*
X95842170Y-96424035D01*
X96056337Y-96523903D01*
X96284592Y-96585063D01*
X96472918Y-96601539D01*
X96519999Y-96605659D01*
X96520000Y-96605659D01*
X96520001Y-96605659D01*
X96559234Y-96602226D01*
X96755408Y-96585063D01*
X96983663Y-96523903D01*
X97197830Y-96424035D01*
X97391401Y-96288495D01*
X97558495Y-96121401D01*
X97688425Y-95935842D01*
X97743002Y-95892217D01*
X97812500Y-95885023D01*
X97874855Y-95916546D01*
G37*
%TD.AperFunction*%
%TA.AperFunction,Conductor*%
G36*
X104390000Y-83900000D02*
G01*
X105037828Y-83900000D01*
X105037844Y-83899999D01*
X105097372Y-83893598D01*
X105097379Y-83893596D01*
X105232086Y-83843354D01*
X105232093Y-83843350D01*
X105347186Y-83757191D01*
X105360419Y-83739515D01*
X105416353Y-83697644D01*
X105486045Y-83692660D01*
X105547368Y-83726145D01*
X105580852Y-83787468D01*
X105583686Y-83813826D01*
X105583686Y-93986173D01*
X105564001Y-94053212D01*
X105511197Y-94098967D01*
X105442039Y-94108911D01*
X105378483Y-94079886D01*
X105360421Y-94060486D01*
X105347189Y-94042811D01*
X105347187Y-94042809D01*
X105232093Y-93956649D01*
X105232086Y-93956645D01*
X105097379Y-93906403D01*
X105097372Y-93906401D01*
X105037844Y-93900000D01*
X104390000Y-93900000D01*
X104390000Y-94816988D01*
X104332993Y-94784075D01*
X104205826Y-94750000D01*
X104074174Y-94750000D01*
X103947007Y-94784075D01*
X103890000Y-94816988D01*
X103890000Y-93900000D01*
X103242155Y-93900000D01*
X103182627Y-93906401D01*
X103182620Y-93906403D01*
X103047913Y-93956645D01*
X103047906Y-93956649D01*
X102932812Y-94042809D01*
X102932809Y-94042812D01*
X102846649Y-94157906D01*
X102846645Y-94157913D01*
X102797578Y-94289470D01*
X102755707Y-94345404D01*
X102690242Y-94369821D01*
X102621969Y-94354969D01*
X102593715Y-94333819D01*
X102549366Y-94289470D01*
X102471401Y-94211505D01*
X102471397Y-94211502D01*
X102471396Y-94211501D01*
X102277834Y-94075967D01*
X102277830Y-94075965D01*
X102206727Y-94042809D01*
X102063663Y-93976097D01*
X102063659Y-93976096D01*
X102063655Y-93976094D01*
X101835413Y-93914938D01*
X101835403Y-93914936D01*
X101600001Y-93894341D01*
X101599999Y-93894341D01*
X101364596Y-93914936D01*
X101364586Y-93914938D01*
X101136344Y-93976094D01*
X101136335Y-93976098D01*
X100922171Y-94075964D01*
X100922169Y-94075965D01*
X100728597Y-94211505D01*
X100561505Y-94378597D01*
X100431575Y-94564158D01*
X100376998Y-94607783D01*
X100307500Y-94614977D01*
X100245145Y-94583454D01*
X100228425Y-94564158D01*
X100098494Y-94378597D01*
X99931402Y-94211506D01*
X99931395Y-94211501D01*
X99737834Y-94075967D01*
X99737830Y-94075965D01*
X99666727Y-94042809D01*
X99523663Y-93976097D01*
X99523659Y-93976096D01*
X99523655Y-93976094D01*
X99295413Y-93914938D01*
X99295403Y-93914936D01*
X99060001Y-93894341D01*
X99059999Y-93894341D01*
X98824596Y-93914936D01*
X98824586Y-93914938D01*
X98696243Y-93949327D01*
X98626393Y-93947664D01*
X98576469Y-93917233D01*
X95610590Y-90951355D01*
X95610588Y-90951352D01*
X95491717Y-90832481D01*
X95491709Y-90832475D01*
X95389936Y-90773717D01*
X95389934Y-90773716D01*
X95354790Y-90753425D01*
X95354789Y-90753424D01*
X95342263Y-90750067D01*
X95202057Y-90712499D01*
X95043943Y-90712499D01*
X95036347Y-90712499D01*
X95036331Y-90712500D01*
X94816412Y-90712500D01*
X94749373Y-90692815D01*
X94739097Y-90685445D01*
X94736263Y-90683185D01*
X94736262Y-90683184D01*
X94679496Y-90647515D01*
X94583523Y-90587211D01*
X94413254Y-90527631D01*
X94413249Y-90527630D01*
X94234004Y-90507435D01*
X94233996Y-90507435D01*
X94054750Y-90527630D01*
X94054745Y-90527631D01*
X93884476Y-90587211D01*
X93731737Y-90683184D01*
X93604184Y-90810737D01*
X93508211Y-90963476D01*
X93448631Y-91133745D01*
X93448630Y-91133750D01*
X93428435Y-91312996D01*
X93428435Y-91313003D01*
X93448630Y-91492249D01*
X93448631Y-91492254D01*
X93508211Y-91662523D01*
X93568289Y-91758136D01*
X93604184Y-91815262D01*
X93731738Y-91942816D01*
X93884478Y-92038789D01*
X94054745Y-92098368D01*
X94054750Y-92098369D01*
X94233996Y-92118565D01*
X94234000Y-92118565D01*
X94234004Y-92118565D01*
X94413249Y-92098369D01*
X94413252Y-92098368D01*
X94413255Y-92098368D01*
X94583522Y-92038789D01*
X94736262Y-91942816D01*
X94736267Y-91942810D01*
X94739097Y-91940555D01*
X94741275Y-91939665D01*
X94742158Y-91939111D01*
X94742255Y-91939265D01*
X94803783Y-91914145D01*
X94816412Y-91913500D01*
X94822903Y-91913500D01*
X94889942Y-91933185D01*
X94910584Y-91949819D01*
X96646333Y-93685568D01*
X96679818Y-93746891D01*
X96674834Y-93816583D01*
X96632962Y-93872516D01*
X96567498Y-93896933D01*
X96547844Y-93896777D01*
X96520001Y-93894341D01*
X96519999Y-93894341D01*
X96284596Y-93914936D01*
X96284586Y-93914938D01*
X96056344Y-93976094D01*
X96056335Y-93976098D01*
X95842171Y-94075964D01*
X95842169Y-94075965D01*
X95648597Y-94211505D01*
X95481505Y-94378597D01*
X95351575Y-94564158D01*
X95296998Y-94607783D01*
X95227500Y-94614977D01*
X95165145Y-94583454D01*
X95148425Y-94564158D01*
X95018494Y-94378597D01*
X94851402Y-94211506D01*
X94851395Y-94211501D01*
X94657834Y-94075967D01*
X94657830Y-94075965D01*
X94586727Y-94042809D01*
X94443663Y-93976097D01*
X94443659Y-93976096D01*
X94443655Y-93976094D01*
X94215413Y-93914938D01*
X94215403Y-93914936D01*
X93980001Y-93894341D01*
X93979999Y-93894341D01*
X93744596Y-93914936D01*
X93744586Y-93914938D01*
X93516344Y-93976094D01*
X93516335Y-93976098D01*
X93302171Y-94075964D01*
X93302169Y-94075965D01*
X93108597Y-94211505D01*
X92941505Y-94378597D01*
X92811575Y-94564158D01*
X92756998Y-94607783D01*
X92687500Y-94614977D01*
X92625145Y-94583454D01*
X92608425Y-94564158D01*
X92478494Y-94378597D01*
X92311402Y-94211506D01*
X92311395Y-94211501D01*
X92117834Y-94075967D01*
X92117830Y-94075965D01*
X92046727Y-94042809D01*
X91903663Y-93976097D01*
X91903659Y-93976096D01*
X91903655Y-93976094D01*
X91675413Y-93914938D01*
X91675403Y-93914936D01*
X91440001Y-93894341D01*
X91439999Y-93894341D01*
X91204596Y-93914936D01*
X91204586Y-93914938D01*
X90976344Y-93976094D01*
X90976335Y-93976098D01*
X90762171Y-94075964D01*
X90762169Y-94075965D01*
X90568597Y-94211505D01*
X90401505Y-94378597D01*
X90271575Y-94564158D01*
X90216998Y-94607783D01*
X90147500Y-94614977D01*
X90085145Y-94583454D01*
X90068425Y-94564158D01*
X89938494Y-94378597D01*
X89771402Y-94211506D01*
X89771395Y-94211501D01*
X89577834Y-94075967D01*
X89577830Y-94075965D01*
X89506727Y-94042809D01*
X89363663Y-93976097D01*
X89363659Y-93976096D01*
X89363655Y-93976094D01*
X89135413Y-93914938D01*
X89135403Y-93914936D01*
X88900001Y-93894341D01*
X88899999Y-93894341D01*
X88664596Y-93914936D01*
X88664586Y-93914938D01*
X88436344Y-93976094D01*
X88436335Y-93976098D01*
X88222171Y-94075964D01*
X88222169Y-94075965D01*
X88028597Y-94211505D01*
X87861505Y-94378597D01*
X87731575Y-94564158D01*
X87676998Y-94607783D01*
X87607500Y-94614977D01*
X87545145Y-94583454D01*
X87528425Y-94564158D01*
X87398494Y-94378597D01*
X87231402Y-94211506D01*
X87231395Y-94211501D01*
X87037834Y-94075967D01*
X87037830Y-94075965D01*
X86966727Y-94042809D01*
X86823663Y-93976097D01*
X86823659Y-93976096D01*
X86823655Y-93976094D01*
X86595413Y-93914938D01*
X86595403Y-93914936D01*
X86360001Y-93894341D01*
X86359999Y-93894341D01*
X86124596Y-93914936D01*
X86124586Y-93914938D01*
X85896344Y-93976094D01*
X85896335Y-93976098D01*
X85682171Y-94075964D01*
X85682169Y-94075965D01*
X85488597Y-94211505D01*
X85321508Y-94378594D01*
X85304075Y-94403492D01*
X85249498Y-94447116D01*
X85179999Y-94454309D01*
X85117645Y-94422787D01*
X85082231Y-94362557D01*
X85078500Y-94332368D01*
X85078500Y-92919178D01*
X85098185Y-92852139D01*
X85114814Y-92831502D01*
X94014561Y-83931754D01*
X94075882Y-83898271D01*
X94091425Y-83895910D01*
X94215408Y-83885063D01*
X94443663Y-83823903D01*
X94657830Y-83724035D01*
X94851401Y-83588495D01*
X95018495Y-83421401D01*
X95148425Y-83235842D01*
X95203002Y-83192217D01*
X95272500Y-83185023D01*
X95334855Y-83216546D01*
X95351575Y-83235842D01*
X95481505Y-83421401D01*
X95648599Y-83588495D01*
X95696646Y-83622138D01*
X95842165Y-83724032D01*
X95842167Y-83724033D01*
X95842170Y-83724035D01*
X96056337Y-83823903D01*
X96056343Y-83823904D01*
X96056344Y-83823905D01*
X96087623Y-83832286D01*
X96284592Y-83885063D01*
X96455319Y-83900000D01*
X96519999Y-83905659D01*
X96520000Y-83905659D01*
X96520001Y-83905659D01*
X96584681Y-83900000D01*
X96755408Y-83885063D01*
X96983663Y-83823903D01*
X97197830Y-83724035D01*
X97391401Y-83588495D01*
X97558495Y-83421401D01*
X97688425Y-83235842D01*
X97743002Y-83192217D01*
X97812500Y-83185023D01*
X97874855Y-83216546D01*
X97891575Y-83235842D01*
X98021505Y-83421401D01*
X98188599Y-83588495D01*
X98236646Y-83622138D01*
X98382165Y-83724032D01*
X98382167Y-83724033D01*
X98382170Y-83724035D01*
X98596337Y-83823903D01*
X98596343Y-83823904D01*
X98596344Y-83823905D01*
X98627623Y-83832286D01*
X98824592Y-83885063D01*
X98995319Y-83900000D01*
X99059999Y-83905659D01*
X99060000Y-83905659D01*
X99060001Y-83905659D01*
X99124681Y-83900000D01*
X99295408Y-83885063D01*
X99523663Y-83823903D01*
X99737830Y-83724035D01*
X99931401Y-83588495D01*
X100098495Y-83421401D01*
X100228425Y-83235842D01*
X100283002Y-83192217D01*
X100352500Y-83185023D01*
X100414855Y-83216546D01*
X100431575Y-83235842D01*
X100561505Y-83421401D01*
X100728599Y-83588495D01*
X100776646Y-83622138D01*
X100922165Y-83724032D01*
X100922167Y-83724033D01*
X100922170Y-83724035D01*
X100927898Y-83726706D01*
X100980339Y-83772872D01*
X100999500Y-83839090D01*
X100999500Y-86948902D01*
X100979815Y-87015941D01*
X100963181Y-87036583D01*
X99930465Y-88069298D01*
X99869142Y-88102783D01*
X99856668Y-88104837D01*
X99769750Y-88114630D01*
X99599478Y-88174210D01*
X99446737Y-88270184D01*
X99319184Y-88397737D01*
X99223211Y-88550476D01*
X99163631Y-88720745D01*
X99163630Y-88720750D01*
X99143435Y-88899996D01*
X99143435Y-88900003D01*
X99163630Y-89079249D01*
X99163631Y-89079254D01*
X99223211Y-89249523D01*
X99312672Y-89391898D01*
X99319184Y-89402262D01*
X99446738Y-89529816D01*
X99462599Y-89539782D01*
X99575177Y-89610520D01*
X99599478Y-89625789D01*
X99769745Y-89685368D01*
X99769750Y-89685369D01*
X99948996Y-89705565D01*
X99949000Y-89705565D01*
X99949004Y-89705565D01*
X100128249Y-89685369D01*
X100128252Y-89685368D01*
X100128255Y-89685368D01*
X100298522Y-89625789D01*
X100451262Y-89529816D01*
X100578816Y-89402262D01*
X100674789Y-89249522D01*
X100734368Y-89079255D01*
X100744161Y-88992329D01*
X100771226Y-88927918D01*
X100779690Y-88918543D01*
X102080520Y-87617716D01*
X102159577Y-87480784D01*
X102200501Y-87328057D01*
X102200501Y-87169942D01*
X102200501Y-87162347D01*
X102200500Y-87162329D01*
X102200500Y-83839090D01*
X102220185Y-83772051D01*
X102272101Y-83726706D01*
X102277830Y-83724035D01*
X102471401Y-83588495D01*
X102593717Y-83466178D01*
X102655036Y-83432696D01*
X102724728Y-83437680D01*
X102780662Y-83479551D01*
X102797577Y-83510528D01*
X102846646Y-83642088D01*
X102846649Y-83642093D01*
X102932809Y-83757187D01*
X102932812Y-83757190D01*
X103047906Y-83843350D01*
X103047913Y-83843354D01*
X103182620Y-83893596D01*
X103182627Y-83893598D01*
X103242155Y-83899999D01*
X103242172Y-83900000D01*
X103890000Y-83900000D01*
X103890000Y-82983012D01*
X103947007Y-83015925D01*
X104074174Y-83050000D01*
X104205826Y-83050000D01*
X104332993Y-83015925D01*
X104390000Y-82983012D01*
X104390000Y-83900000D01*
G37*
%TD.AperFunction*%
%TA.AperFunction,Conductor*%
G36*
X142307865Y-88173348D02*
G01*
X142352382Y-88224725D01*
X142379429Y-88282728D01*
X142379432Y-88282734D01*
X142509954Y-88469141D01*
X142670858Y-88630045D01*
X142670861Y-88630047D01*
X142856624Y-88760118D01*
X142900248Y-88814693D01*
X142909500Y-88861692D01*
X142909500Y-91278530D01*
X142889815Y-91345569D01*
X142873181Y-91366211D01*
X141782181Y-92457211D01*
X141720858Y-92490696D01*
X141651166Y-92485712D01*
X141595233Y-92443840D01*
X141570816Y-92378376D01*
X141570500Y-92369530D01*
X141570500Y-88861692D01*
X141590185Y-88794653D01*
X141623374Y-88760119D01*
X141809139Y-88630047D01*
X141970047Y-88469139D01*
X142100568Y-88282734D01*
X142127618Y-88224724D01*
X142173790Y-88172285D01*
X142240983Y-88153133D01*
X142307865Y-88173348D01*
G37*
%TD.AperFunction*%
%TA.AperFunction,Conductor*%
G36*
X144847865Y-88173348D02*
G01*
X144892382Y-88224725D01*
X144919429Y-88282728D01*
X144919432Y-88282734D01*
X145049954Y-88469141D01*
X145210858Y-88630045D01*
X145210861Y-88630047D01*
X145396624Y-88760118D01*
X145440248Y-88814693D01*
X145449500Y-88861692D01*
X145449500Y-89304217D01*
X145429815Y-89371256D01*
X145413181Y-89391898D01*
X144322181Y-90482898D01*
X144260858Y-90516383D01*
X144191166Y-90511399D01*
X144135233Y-90469527D01*
X144110816Y-90404063D01*
X144110500Y-90395217D01*
X144110500Y-88861692D01*
X144130185Y-88794653D01*
X144163374Y-88760119D01*
X144349139Y-88630047D01*
X144510047Y-88469139D01*
X144640568Y-88282734D01*
X144667618Y-88224724D01*
X144713790Y-88172285D01*
X144780983Y-88153133D01*
X144847865Y-88173348D01*
G37*
%TD.AperFunction*%
%TA.AperFunction,Conductor*%
G36*
X149377419Y-73526499D02*
G01*
X149420614Y-73581417D01*
X149429500Y-73627512D01*
X149429500Y-81363330D01*
X149429499Y-81363348D01*
X149429499Y-81529054D01*
X149429498Y-81529054D01*
X149470423Y-81681785D01*
X149499358Y-81731900D01*
X149499359Y-81731904D01*
X149499360Y-81731904D01*
X149549479Y-81818714D01*
X149549481Y-81818717D01*
X149668349Y-81937585D01*
X149668355Y-81937590D01*
X153851336Y-86120571D01*
X153884821Y-86181894D01*
X153879837Y-86251586D01*
X153837965Y-86307519D01*
X153772501Y-86331936D01*
X153752848Y-86331780D01*
X153670002Y-86324532D01*
X153669998Y-86324532D01*
X153443313Y-86344364D01*
X153443302Y-86344366D01*
X153223511Y-86403258D01*
X153223502Y-86403261D01*
X153017267Y-86499431D01*
X153017265Y-86499432D01*
X152830858Y-86629954D01*
X152669954Y-86790858D01*
X152539432Y-86977265D01*
X152539431Y-86977267D01*
X152512382Y-87035275D01*
X152466209Y-87087714D01*
X152399016Y-87106866D01*
X152332135Y-87086650D01*
X152287618Y-87035275D01*
X152260568Y-86977266D01*
X152130047Y-86790861D01*
X152130045Y-86790858D01*
X151969141Y-86629954D01*
X151782734Y-86499432D01*
X151782732Y-86499431D01*
X151576497Y-86403261D01*
X151576488Y-86403258D01*
X151356697Y-86344366D01*
X151356693Y-86344365D01*
X151356692Y-86344365D01*
X151356691Y-86344364D01*
X151356686Y-86344364D01*
X151130002Y-86324532D01*
X151129998Y-86324532D01*
X150903313Y-86344364D01*
X150903302Y-86344366D01*
X150683511Y-86403258D01*
X150683502Y-86403261D01*
X150477267Y-86499431D01*
X150477265Y-86499432D01*
X150290858Y-86629954D01*
X150129954Y-86790858D01*
X149999432Y-86977265D01*
X149999431Y-86977267D01*
X149972382Y-87035275D01*
X149926209Y-87087714D01*
X149859016Y-87106866D01*
X149792135Y-87086650D01*
X149747618Y-87035275D01*
X149720568Y-86977266D01*
X149590047Y-86790861D01*
X149590045Y-86790858D01*
X149429141Y-86629954D01*
X149242734Y-86499432D01*
X149242732Y-86499431D01*
X149036497Y-86403261D01*
X149036488Y-86403258D01*
X148816697Y-86344366D01*
X148816693Y-86344365D01*
X148816692Y-86344365D01*
X148816691Y-86344364D01*
X148816686Y-86344364D01*
X148590002Y-86324532D01*
X148589998Y-86324532D01*
X148363313Y-86344364D01*
X148363302Y-86344366D01*
X148143511Y-86403258D01*
X148143502Y-86403261D01*
X147937267Y-86499431D01*
X147937265Y-86499432D01*
X147750858Y-86629954D01*
X147589954Y-86790858D01*
X147459432Y-86977265D01*
X147459431Y-86977267D01*
X147432382Y-87035275D01*
X147386209Y-87087714D01*
X147319016Y-87106866D01*
X147252135Y-87086650D01*
X147207618Y-87035275D01*
X147180568Y-86977266D01*
X147050047Y-86790861D01*
X147050045Y-86790858D01*
X146889141Y-86629954D01*
X146702734Y-86499432D01*
X146702732Y-86499431D01*
X146496497Y-86403261D01*
X146496488Y-86403258D01*
X146276697Y-86344366D01*
X146276693Y-86344365D01*
X146276692Y-86344365D01*
X146276691Y-86344364D01*
X146276686Y-86344364D01*
X146050002Y-86324532D01*
X146049998Y-86324532D01*
X145823313Y-86344364D01*
X145823302Y-86344366D01*
X145603511Y-86403258D01*
X145603502Y-86403261D01*
X145397267Y-86499431D01*
X145397265Y-86499432D01*
X145210858Y-86629954D01*
X145049954Y-86790858D01*
X144919432Y-86977265D01*
X144919431Y-86977267D01*
X144892382Y-87035275D01*
X144846209Y-87087714D01*
X144779016Y-87106866D01*
X144712135Y-87086650D01*
X144667618Y-87035275D01*
X144640568Y-86977266D01*
X144510047Y-86790861D01*
X144510045Y-86790858D01*
X144349141Y-86629954D01*
X144162734Y-86499432D01*
X144162732Y-86499431D01*
X143956497Y-86403261D01*
X143956488Y-86403258D01*
X143736697Y-86344366D01*
X143736693Y-86344365D01*
X143736692Y-86344365D01*
X143736691Y-86344364D01*
X143736686Y-86344364D01*
X143510002Y-86324532D01*
X143509998Y-86324532D01*
X143283313Y-86344364D01*
X143283302Y-86344366D01*
X143063511Y-86403258D01*
X143063502Y-86403261D01*
X142857267Y-86499431D01*
X142857265Y-86499432D01*
X142670858Y-86629954D01*
X142509954Y-86790858D01*
X142379432Y-86977265D01*
X142379431Y-86977267D01*
X142352382Y-87035275D01*
X142306209Y-87087714D01*
X142239016Y-87106866D01*
X142172135Y-87086650D01*
X142127618Y-87035275D01*
X142100568Y-86977266D01*
X141970047Y-86790861D01*
X141970045Y-86790858D01*
X141809141Y-86629954D01*
X141622734Y-86499432D01*
X141622732Y-86499431D01*
X141416497Y-86403261D01*
X141416488Y-86403258D01*
X141196697Y-86344366D01*
X141196693Y-86344365D01*
X141196692Y-86344365D01*
X141196691Y-86344364D01*
X141196686Y-86344364D01*
X140970002Y-86324532D01*
X140969998Y-86324532D01*
X140743313Y-86344364D01*
X140743302Y-86344366D01*
X140523511Y-86403258D01*
X140523502Y-86403261D01*
X140317267Y-86499431D01*
X140317265Y-86499432D01*
X140130858Y-86629954D01*
X139969954Y-86790858D01*
X139839432Y-86977265D01*
X139839431Y-86977267D01*
X139812382Y-87035275D01*
X139766209Y-87087714D01*
X139699016Y-87106866D01*
X139632135Y-87086650D01*
X139587618Y-87035275D01*
X139560568Y-86977266D01*
X139430047Y-86790861D01*
X139430045Y-86790858D01*
X139269141Y-86629954D01*
X139082734Y-86499432D01*
X139082732Y-86499431D01*
X138876497Y-86403261D01*
X138876488Y-86403258D01*
X138656697Y-86344366D01*
X138656693Y-86344365D01*
X138656692Y-86344365D01*
X138656691Y-86344364D01*
X138656686Y-86344364D01*
X138430002Y-86324532D01*
X138429998Y-86324532D01*
X138203313Y-86344364D01*
X138203302Y-86344366D01*
X138107067Y-86370152D01*
X138037217Y-86368489D01*
X137987293Y-86338058D01*
X135488590Y-83839355D01*
X135488588Y-83839352D01*
X135369717Y-83720481D01*
X135369716Y-83720480D01*
X135279735Y-83668530D01*
X135232785Y-83641423D01*
X135080057Y-83600499D01*
X134921943Y-83600499D01*
X134914347Y-83600499D01*
X134914331Y-83600500D01*
X116496124Y-83600500D01*
X116429085Y-83580815D01*
X116383330Y-83528011D01*
X116372904Y-83462615D01*
X116374569Y-83447844D01*
X116375565Y-83439000D01*
X116375416Y-83437680D01*
X116355369Y-83259750D01*
X116355368Y-83259745D01*
X116344200Y-83227830D01*
X116295789Y-83089478D01*
X116199816Y-82936738D01*
X116199814Y-82936736D01*
X116199813Y-82936734D01*
X116197550Y-82933896D01*
X116196659Y-82931715D01*
X116196111Y-82930842D01*
X116196264Y-82930745D01*
X116171144Y-82869209D01*
X116170500Y-82856587D01*
X116170500Y-80641597D01*
X116190185Y-80574558D01*
X116242989Y-80528803D01*
X116312147Y-80518859D01*
X116360471Y-80536602D01*
X116475355Y-80608789D01*
X116569115Y-80641597D01*
X116645622Y-80668368D01*
X116645627Y-80668369D01*
X116824873Y-80688565D01*
X116824877Y-80688565D01*
X116824881Y-80688565D01*
X117004126Y-80668369D01*
X117004129Y-80668368D01*
X117004132Y-80668368D01*
X117174399Y-80608789D01*
X117327139Y-80512816D01*
X117454693Y-80385262D01*
X117550666Y-80232522D01*
X117610245Y-80062255D01*
X117610835Y-80057021D01*
X117630442Y-79883003D01*
X117630442Y-79882996D01*
X117610246Y-79703750D01*
X117610245Y-79703745D01*
X117586855Y-79636901D01*
X117550666Y-79533478D01*
X117454693Y-79380738D01*
X117454691Y-79380736D01*
X117454690Y-79380734D01*
X117452427Y-79377896D01*
X117451536Y-79375715D01*
X117450988Y-79374842D01*
X117451141Y-79374745D01*
X117426021Y-79313209D01*
X117425377Y-79300587D01*
X117425377Y-77969906D01*
X117445062Y-77902867D01*
X117461696Y-77882225D01*
X118831102Y-76512819D01*
X118892425Y-76479334D01*
X118918783Y-76476500D01*
X145017331Y-76476500D01*
X145017347Y-76476501D01*
X145024943Y-76476501D01*
X145183054Y-76476501D01*
X145183057Y-76476501D01*
X145335785Y-76435577D01*
X145350523Y-76427067D01*
X145390163Y-76404182D01*
X145390174Y-76404174D01*
X145390186Y-76404168D01*
X145472716Y-76356520D01*
X145584520Y-76244716D01*
X145584520Y-76244714D01*
X145594724Y-76234511D01*
X145594728Y-76234506D01*
X148147294Y-73681939D01*
X148208615Y-73648456D01*
X148267066Y-73649847D01*
X148272646Y-73651342D01*
X148363308Y-73675635D01*
X148507144Y-73688219D01*
X148589998Y-73695468D01*
X148590000Y-73695468D01*
X148590002Y-73695468D01*
X148646673Y-73690509D01*
X148816692Y-73675635D01*
X149036496Y-73616739D01*
X149242734Y-73520568D01*
X149242746Y-73520559D01*
X149243492Y-73520130D01*
X149243868Y-73520038D01*
X149247640Y-73518280D01*
X149247993Y-73519037D01*
X149311391Y-73503652D01*
X149377419Y-73526499D01*
G37*
%TD.AperFunction*%
%TA.AperFunction,Conductor*%
G36*
X130487942Y-85621185D02*
G01*
X130508584Y-85637819D01*
X130991336Y-86120571D01*
X131024821Y-86181894D01*
X131019837Y-86251586D01*
X130977965Y-86307519D01*
X130912501Y-86331936D01*
X130892848Y-86331780D01*
X130810002Y-86324532D01*
X130809998Y-86324532D01*
X130583313Y-86344364D01*
X130583302Y-86344366D01*
X130487067Y-86370152D01*
X130417217Y-86368489D01*
X130367293Y-86338058D01*
X129842416Y-85813181D01*
X129808931Y-85751858D01*
X129813915Y-85682166D01*
X129855787Y-85626233D01*
X129921251Y-85601816D01*
X129930097Y-85601500D01*
X130420903Y-85601500D01*
X130487942Y-85621185D01*
G37*
%TD.AperFunction*%
%TA.AperFunction,Conductor*%
G36*
X132627942Y-85221185D02*
G01*
X132648584Y-85237819D01*
X133531336Y-86120571D01*
X133564821Y-86181894D01*
X133559837Y-86251586D01*
X133517965Y-86307519D01*
X133452501Y-86331936D01*
X133432848Y-86331780D01*
X133350002Y-86324532D01*
X133349998Y-86324532D01*
X133123313Y-86344364D01*
X133123302Y-86344366D01*
X133027067Y-86370152D01*
X132957217Y-86368489D01*
X132907293Y-86338058D01*
X131982416Y-85413181D01*
X131948931Y-85351858D01*
X131953915Y-85282166D01*
X131995787Y-85226233D01*
X132061251Y-85201816D01*
X132070097Y-85201500D01*
X132560903Y-85201500D01*
X132627942Y-85221185D01*
G37*
%TD.AperFunction*%
%TA.AperFunction,Conductor*%
G36*
X134767942Y-84821185D02*
G01*
X134788584Y-84837819D01*
X136071336Y-86120571D01*
X136104821Y-86181894D01*
X136099837Y-86251586D01*
X136057965Y-86307519D01*
X135992501Y-86331936D01*
X135972848Y-86331780D01*
X135890002Y-86324532D01*
X135889998Y-86324532D01*
X135663313Y-86344364D01*
X135663302Y-86344366D01*
X135567067Y-86370152D01*
X135497217Y-86368489D01*
X135447293Y-86338058D01*
X134122416Y-85013181D01*
X134088931Y-84951858D01*
X134093915Y-84882166D01*
X134135787Y-84826233D01*
X134201251Y-84801816D01*
X134210097Y-84801500D01*
X134700903Y-84801500D01*
X134767942Y-84821185D01*
G37*
%TD.AperFunction*%
%TA.AperFunction,Conductor*%
G36*
X145754809Y-63000185D02*
G01*
X145775451Y-63016819D01*
X152883181Y-70124548D01*
X152916666Y-70185871D01*
X152919500Y-70212229D01*
X152919500Y-71263336D01*
X152899815Y-71330375D01*
X152866625Y-71364910D01*
X152830863Y-71389951D01*
X152669951Y-71550862D01*
X152539432Y-71737265D01*
X152539431Y-71737267D01*
X152512382Y-71795275D01*
X152466209Y-71847714D01*
X152399016Y-71866866D01*
X152332135Y-71846650D01*
X152287618Y-71795275D01*
X152260686Y-71737520D01*
X152260568Y-71737266D01*
X152130047Y-71550861D01*
X152130045Y-71550858D01*
X151969141Y-71389954D01*
X151782734Y-71259432D01*
X151782732Y-71259431D01*
X151576497Y-71163261D01*
X151576488Y-71163258D01*
X151356697Y-71104366D01*
X151356693Y-71104365D01*
X151356692Y-71104365D01*
X151356691Y-71104364D01*
X151356686Y-71104364D01*
X151130002Y-71084532D01*
X151129998Y-71084532D01*
X150903313Y-71104364D01*
X150903302Y-71104366D01*
X150683511Y-71163258D01*
X150683502Y-71163261D01*
X150477263Y-71259433D01*
X150401947Y-71312169D01*
X150335741Y-71334496D01*
X150267974Y-71317484D01*
X150243144Y-71298274D01*
X149543225Y-70598355D01*
X149543223Y-70598352D01*
X149424352Y-70479481D01*
X149424351Y-70479480D01*
X149337539Y-70429360D01*
X149337539Y-70429359D01*
X149337535Y-70429358D01*
X149287420Y-70400423D01*
X149134692Y-70359499D01*
X148976578Y-70359499D01*
X148968982Y-70359499D01*
X148968966Y-70359500D01*
X147450097Y-70359500D01*
X147383058Y-70339815D01*
X147362416Y-70323181D01*
X143371415Y-66332180D01*
X143337930Y-66270857D01*
X143342914Y-66201165D01*
X143384786Y-66145232D01*
X143450250Y-66120815D01*
X143459096Y-66120499D01*
X144397871Y-66120499D01*
X144397872Y-66120499D01*
X144457483Y-66114091D01*
X144592331Y-66063796D01*
X144707546Y-65977546D01*
X144793796Y-65862331D01*
X144844091Y-65727483D01*
X144850500Y-65667873D01*
X144850499Y-63872128D01*
X144844091Y-63812517D01*
X144842810Y-63809083D01*
X144793797Y-63677671D01*
X144793793Y-63677664D01*
X144707547Y-63562455D01*
X144707544Y-63562452D01*
X144592335Y-63476206D01*
X144592328Y-63476202D01*
X144457482Y-63425908D01*
X144457483Y-63425908D01*
X144397883Y-63419501D01*
X144397881Y-63419500D01*
X144397873Y-63419500D01*
X144397864Y-63419500D01*
X142602129Y-63419500D01*
X142602123Y-63419501D01*
X142542516Y-63425908D01*
X142407671Y-63476202D01*
X142407664Y-63476206D01*
X142292455Y-63562452D01*
X142292452Y-63562455D01*
X142206206Y-63677664D01*
X142206203Y-63677669D01*
X142157189Y-63809083D01*
X142115317Y-63865016D01*
X142049853Y-63889433D01*
X141981580Y-63874581D01*
X141953326Y-63853430D01*
X141831402Y-63731506D01*
X141831395Y-63731501D01*
X141637834Y-63595967D01*
X141637830Y-63595965D01*
X141566727Y-63562809D01*
X141423663Y-63496097D01*
X141423659Y-63496096D01*
X141423655Y-63496094D01*
X141195413Y-63434938D01*
X141195403Y-63434936D01*
X140960001Y-63414341D01*
X140959999Y-63414341D01*
X140724596Y-63434936D01*
X140724586Y-63434938D01*
X140496344Y-63496094D01*
X140496335Y-63496098D01*
X140282171Y-63595964D01*
X140282169Y-63595965D01*
X140088597Y-63731505D01*
X139921505Y-63898597D01*
X139791575Y-64084158D01*
X139736998Y-64127783D01*
X139667500Y-64134977D01*
X139605145Y-64103454D01*
X139588425Y-64084158D01*
X139458494Y-63898597D01*
X139291402Y-63731506D01*
X139291395Y-63731501D01*
X139097834Y-63595967D01*
X139097830Y-63595965D01*
X139026727Y-63562809D01*
X138883663Y-63496097D01*
X138883659Y-63496096D01*
X138883655Y-63496094D01*
X138655413Y-63434938D01*
X138655403Y-63434936D01*
X138420001Y-63414341D01*
X138419999Y-63414341D01*
X138184596Y-63434936D01*
X138184586Y-63434938D01*
X137956344Y-63496094D01*
X137956335Y-63496098D01*
X137742171Y-63595964D01*
X137742169Y-63595965D01*
X137548597Y-63731505D01*
X137381505Y-63898597D01*
X137251575Y-64084158D01*
X137196998Y-64127783D01*
X137127500Y-64134977D01*
X137065145Y-64103454D01*
X137048425Y-64084158D01*
X136918494Y-63898597D01*
X136751402Y-63731506D01*
X136751395Y-63731501D01*
X136557834Y-63595967D01*
X136557830Y-63595965D01*
X136486727Y-63562809D01*
X136343663Y-63496097D01*
X136343659Y-63496096D01*
X136343655Y-63496094D01*
X136115413Y-63434938D01*
X136115403Y-63434936D01*
X135880001Y-63414341D01*
X135879999Y-63414341D01*
X135644596Y-63434936D01*
X135644586Y-63434938D01*
X135416344Y-63496094D01*
X135416335Y-63496098D01*
X135202171Y-63595964D01*
X135202169Y-63595965D01*
X135008597Y-63731505D01*
X134841505Y-63898597D01*
X134705965Y-64092169D01*
X134705964Y-64092171D01*
X134606098Y-64306335D01*
X134606094Y-64306344D01*
X134544938Y-64534586D01*
X134544936Y-64534596D01*
X134524341Y-64769999D01*
X134524341Y-64770000D01*
X134544936Y-65005403D01*
X134544938Y-65005413D01*
X134606094Y-65233655D01*
X134606096Y-65233659D01*
X134606097Y-65233663D01*
X134662003Y-65353553D01*
X134705965Y-65447830D01*
X134705967Y-65447834D01*
X134814281Y-65602521D01*
X134841505Y-65641401D01*
X135008599Y-65808495D01*
X135105384Y-65876265D01*
X135202165Y-65944032D01*
X135202167Y-65944033D01*
X135202170Y-65944035D01*
X135416337Y-66043903D01*
X135644592Y-66105063D01*
X135824337Y-66120789D01*
X135879999Y-66125659D01*
X135880000Y-66125659D01*
X135880001Y-66125659D01*
X135935663Y-66120789D01*
X136115408Y-66105063D01*
X136343663Y-66043903D01*
X136557830Y-65944035D01*
X136751401Y-65808495D01*
X136918495Y-65641401D01*
X137048425Y-65455842D01*
X137103002Y-65412217D01*
X137172500Y-65405023D01*
X137234855Y-65436546D01*
X137251575Y-65455842D01*
X137381500Y-65641395D01*
X137381505Y-65641401D01*
X137548599Y-65808495D01*
X137645384Y-65876265D01*
X137742165Y-65944032D01*
X137742167Y-65944033D01*
X137742170Y-65944035D01*
X137956337Y-66043903D01*
X138184592Y-66105063D01*
X138364337Y-66120789D01*
X138419999Y-66125659D01*
X138420000Y-66125659D01*
X138420001Y-66125659D01*
X138475663Y-66120789D01*
X138655408Y-66105063D01*
X138883663Y-66043903D01*
X139097830Y-65944035D01*
X139291401Y-65808495D01*
X139458495Y-65641401D01*
X139588425Y-65455842D01*
X139643002Y-65412217D01*
X139712500Y-65405023D01*
X139774855Y-65436546D01*
X139791575Y-65455842D01*
X139921500Y-65641395D01*
X139921505Y-65641401D01*
X140088599Y-65808495D01*
X140185384Y-65876265D01*
X140282165Y-65944032D01*
X140282167Y-65944033D01*
X140282170Y-65944035D01*
X140496337Y-66043903D01*
X140724592Y-66105063D01*
X140904337Y-66120789D01*
X140959999Y-66125659D01*
X140960000Y-66125659D01*
X140960001Y-66125659D01*
X141015663Y-66120789D01*
X141195408Y-66105063D01*
X141323757Y-66070672D01*
X141393606Y-66072335D01*
X141443531Y-66102766D01*
X146220377Y-70879612D01*
X146253862Y-70940935D01*
X146248878Y-71010627D01*
X146207006Y-71066560D01*
X146141542Y-71090977D01*
X146121889Y-71090821D01*
X146050002Y-71084532D01*
X146049998Y-71084532D01*
X145823313Y-71104364D01*
X145823302Y-71104366D01*
X145603511Y-71163258D01*
X145603502Y-71163261D01*
X145397267Y-71259431D01*
X145397265Y-71259432D01*
X145210858Y-71389954D01*
X145049954Y-71550858D01*
X144919432Y-71737265D01*
X144919431Y-71737267D01*
X144892382Y-71795275D01*
X144846209Y-71847714D01*
X144779016Y-71866866D01*
X144712135Y-71846650D01*
X144667618Y-71795275D01*
X144640686Y-71737520D01*
X144640568Y-71737266D01*
X144510047Y-71550861D01*
X144510045Y-71550858D01*
X144349141Y-71389954D01*
X144162734Y-71259432D01*
X144162732Y-71259431D01*
X143956497Y-71163261D01*
X143956488Y-71163258D01*
X143736697Y-71104366D01*
X143736693Y-71104365D01*
X143736692Y-71104365D01*
X143736691Y-71104364D01*
X143736686Y-71104364D01*
X143510002Y-71084532D01*
X143509998Y-71084532D01*
X143283313Y-71104364D01*
X143283302Y-71104366D01*
X143063511Y-71163258D01*
X143063502Y-71163261D01*
X142857267Y-71259431D01*
X142857265Y-71259432D01*
X142670858Y-71389954D01*
X142509954Y-71550858D01*
X142379432Y-71737265D01*
X142379431Y-71737267D01*
X142352382Y-71795275D01*
X142306209Y-71847714D01*
X142239016Y-71866866D01*
X142172135Y-71846650D01*
X142127618Y-71795275D01*
X142100686Y-71737520D01*
X142100568Y-71737266D01*
X141970047Y-71550861D01*
X141970045Y-71550858D01*
X141809141Y-71389954D01*
X141622734Y-71259432D01*
X141622732Y-71259431D01*
X141416497Y-71163261D01*
X141416488Y-71163258D01*
X141196697Y-71104366D01*
X141196693Y-71104365D01*
X141196692Y-71104365D01*
X141196691Y-71104364D01*
X141196686Y-71104364D01*
X140970002Y-71084532D01*
X140969998Y-71084532D01*
X140743313Y-71104364D01*
X140743302Y-71104366D01*
X140523511Y-71163258D01*
X140523502Y-71163261D01*
X140317267Y-71259431D01*
X140317265Y-71259432D01*
X140130858Y-71389954D01*
X139969954Y-71550858D01*
X139839432Y-71737265D01*
X139839431Y-71737267D01*
X139812382Y-71795275D01*
X139766209Y-71847714D01*
X139699016Y-71866866D01*
X139632135Y-71846650D01*
X139587618Y-71795275D01*
X139560686Y-71737520D01*
X139560568Y-71737266D01*
X139430047Y-71550861D01*
X139430045Y-71550858D01*
X139269141Y-71389954D01*
X139082734Y-71259432D01*
X139082732Y-71259431D01*
X138876497Y-71163261D01*
X138876488Y-71163258D01*
X138656697Y-71104366D01*
X138656693Y-71104365D01*
X138656692Y-71104365D01*
X138656691Y-71104364D01*
X138656686Y-71104364D01*
X138430002Y-71084532D01*
X138429998Y-71084532D01*
X138203313Y-71104364D01*
X138203302Y-71104366D01*
X137983511Y-71163258D01*
X137983502Y-71163261D01*
X137777267Y-71259431D01*
X137777265Y-71259432D01*
X137590858Y-71389954D01*
X137429954Y-71550858D01*
X137299432Y-71737265D01*
X137299431Y-71737267D01*
X137272382Y-71795275D01*
X137226209Y-71847714D01*
X137159016Y-71866866D01*
X137092135Y-71846650D01*
X137047618Y-71795275D01*
X137020686Y-71737520D01*
X137020568Y-71737266D01*
X136890047Y-71550861D01*
X136890045Y-71550858D01*
X136729141Y-71389954D01*
X136542734Y-71259432D01*
X136542732Y-71259431D01*
X136336497Y-71163261D01*
X136336488Y-71163258D01*
X136116697Y-71104366D01*
X136116693Y-71104365D01*
X136116692Y-71104365D01*
X136116691Y-71104364D01*
X136116686Y-71104364D01*
X135890002Y-71084532D01*
X135889998Y-71084532D01*
X135663313Y-71104364D01*
X135663302Y-71104366D01*
X135443511Y-71163258D01*
X135443502Y-71163261D01*
X135237267Y-71259431D01*
X135237265Y-71259432D01*
X135050858Y-71389954D01*
X134889954Y-71550858D01*
X134759432Y-71737265D01*
X134759431Y-71737267D01*
X134732382Y-71795275D01*
X134686209Y-71847714D01*
X134619016Y-71866866D01*
X134552135Y-71846650D01*
X134507618Y-71795275D01*
X134480686Y-71737520D01*
X134480568Y-71737266D01*
X134350047Y-71550861D01*
X134350045Y-71550858D01*
X134189141Y-71389954D01*
X134002734Y-71259432D01*
X134002732Y-71259431D01*
X133796497Y-71163261D01*
X133796488Y-71163258D01*
X133576697Y-71104366D01*
X133576693Y-71104365D01*
X133576692Y-71104365D01*
X133576691Y-71104364D01*
X133576686Y-71104364D01*
X133350002Y-71084532D01*
X133349998Y-71084532D01*
X133123313Y-71104364D01*
X133123302Y-71104366D01*
X132903511Y-71163258D01*
X132903502Y-71163261D01*
X132697267Y-71259431D01*
X132697265Y-71259432D01*
X132510858Y-71389954D01*
X132349954Y-71550858D01*
X132219432Y-71737265D01*
X132219431Y-71737267D01*
X132192382Y-71795275D01*
X132146209Y-71847714D01*
X132079016Y-71866866D01*
X132012135Y-71846650D01*
X131967618Y-71795275D01*
X131940686Y-71737520D01*
X131940568Y-71737266D01*
X131810047Y-71550861D01*
X131810045Y-71550858D01*
X131649141Y-71389954D01*
X131462734Y-71259432D01*
X131462732Y-71259431D01*
X131256497Y-71163261D01*
X131256488Y-71163258D01*
X131036697Y-71104366D01*
X131036693Y-71104365D01*
X131036692Y-71104365D01*
X131036691Y-71104364D01*
X131036686Y-71104364D01*
X130810002Y-71084532D01*
X130809998Y-71084532D01*
X130583313Y-71104364D01*
X130583302Y-71104366D01*
X130363511Y-71163258D01*
X130363502Y-71163261D01*
X130157267Y-71259431D01*
X130157265Y-71259432D01*
X129970858Y-71389954D01*
X129809954Y-71550858D01*
X129679432Y-71737265D01*
X129679431Y-71737267D01*
X129652382Y-71795275D01*
X129606209Y-71847714D01*
X129539016Y-71866866D01*
X129472135Y-71846650D01*
X129427618Y-71795275D01*
X129400686Y-71737520D01*
X129400568Y-71737266D01*
X129270047Y-71550861D01*
X129270045Y-71550858D01*
X129109141Y-71389954D01*
X128922734Y-71259432D01*
X128922732Y-71259431D01*
X128716497Y-71163261D01*
X128716488Y-71163258D01*
X128496697Y-71104366D01*
X128496693Y-71104365D01*
X128496692Y-71104365D01*
X128496691Y-71104364D01*
X128496686Y-71104364D01*
X128270002Y-71084532D01*
X128269998Y-71084532D01*
X128043313Y-71104364D01*
X128043302Y-71104366D01*
X127823511Y-71163258D01*
X127823502Y-71163261D01*
X127617267Y-71259431D01*
X127617265Y-71259432D01*
X127430858Y-71389954D01*
X127269954Y-71550858D01*
X127139432Y-71737265D01*
X127139431Y-71737267D01*
X127112382Y-71795275D01*
X127066209Y-71847714D01*
X126999016Y-71866866D01*
X126932135Y-71846650D01*
X126887618Y-71795275D01*
X126860686Y-71737520D01*
X126860568Y-71737266D01*
X126730047Y-71550861D01*
X126730045Y-71550858D01*
X126569141Y-71389954D01*
X126382734Y-71259432D01*
X126382732Y-71259431D01*
X126176497Y-71163261D01*
X126176488Y-71163258D01*
X125956697Y-71104366D01*
X125956693Y-71104365D01*
X125956692Y-71104365D01*
X125956691Y-71104364D01*
X125956686Y-71104364D01*
X125730002Y-71084532D01*
X125729998Y-71084532D01*
X125503313Y-71104364D01*
X125503302Y-71104366D01*
X125283511Y-71163258D01*
X125283502Y-71163261D01*
X125077267Y-71259431D01*
X125077265Y-71259432D01*
X124890858Y-71389954D01*
X124729954Y-71550858D01*
X124599433Y-71737264D01*
X124599432Y-71737266D01*
X124599315Y-71737518D01*
X124572106Y-71795867D01*
X124525933Y-71848306D01*
X124458739Y-71867457D01*
X124391858Y-71847241D01*
X124347342Y-71795865D01*
X124320135Y-71737520D01*
X124320134Y-71737518D01*
X124189657Y-71551179D01*
X124028820Y-71390342D01*
X123842482Y-71259865D01*
X123636328Y-71163734D01*
X123440000Y-71111127D01*
X123440000Y-71956988D01*
X123382993Y-71924075D01*
X123255826Y-71890000D01*
X123124174Y-71890000D01*
X122997007Y-71924075D01*
X122940000Y-71956988D01*
X122940000Y-71111127D01*
X122743671Y-71163734D01*
X122537517Y-71259865D01*
X122351179Y-71390342D01*
X122190342Y-71551179D01*
X122059867Y-71737515D01*
X122032657Y-71795867D01*
X121986484Y-71848306D01*
X121919290Y-71867457D01*
X121852409Y-71847241D01*
X121807893Y-71795865D01*
X121780685Y-71737518D01*
X121780568Y-71737266D01*
X121650047Y-71550861D01*
X121650045Y-71550858D01*
X121489141Y-71389954D01*
X121302734Y-71259432D01*
X121302732Y-71259431D01*
X121096497Y-71163261D01*
X121096488Y-71163258D01*
X120876697Y-71104366D01*
X120876693Y-71104365D01*
X120876692Y-71104365D01*
X120876691Y-71104364D01*
X120876686Y-71104364D01*
X120650002Y-71084532D01*
X120649998Y-71084532D01*
X120423313Y-71104364D01*
X120423302Y-71104366D01*
X120203511Y-71163258D01*
X120203502Y-71163261D01*
X119997267Y-71259431D01*
X119997265Y-71259432D01*
X119810858Y-71389954D01*
X119649954Y-71550858D01*
X119519432Y-71737265D01*
X119519431Y-71737267D01*
X119423261Y-71943502D01*
X119423258Y-71943511D01*
X119364366Y-72163302D01*
X119364364Y-72163313D01*
X119344532Y-72389998D01*
X119344532Y-72390001D01*
X119364364Y-72616686D01*
X119364366Y-72616697D01*
X119423258Y-72836488D01*
X119423261Y-72836497D01*
X119519431Y-73042732D01*
X119519432Y-73042734D01*
X119649954Y-73229141D01*
X119810858Y-73390045D01*
X119810861Y-73390047D01*
X119997266Y-73520568D01*
X120203504Y-73616739D01*
X120203509Y-73616740D01*
X120203511Y-73616741D01*
X120256415Y-73630916D01*
X120423308Y-73675635D01*
X120567144Y-73688219D01*
X120649998Y-73695468D01*
X120650000Y-73695468D01*
X120650002Y-73695468D01*
X120706673Y-73690509D01*
X120876692Y-73675635D01*
X121096496Y-73616739D01*
X121302734Y-73520568D01*
X121489139Y-73390047D01*
X121650047Y-73229139D01*
X121780568Y-73042734D01*
X121807895Y-72984129D01*
X121854064Y-72931695D01*
X121921257Y-72912542D01*
X121988139Y-72932757D01*
X122032657Y-72984133D01*
X122059865Y-73042482D01*
X122190342Y-73228820D01*
X122351179Y-73389657D01*
X122537517Y-73520134D01*
X122743673Y-73616265D01*
X122743682Y-73616269D01*
X122939999Y-73668872D01*
X122940000Y-73668871D01*
X122940000Y-72823012D01*
X122997007Y-72855925D01*
X123124174Y-72890000D01*
X123255826Y-72890000D01*
X123382993Y-72855925D01*
X123440000Y-72823012D01*
X123440000Y-73668872D01*
X123636317Y-73616269D01*
X123636326Y-73616265D01*
X123842482Y-73520134D01*
X124028820Y-73389657D01*
X124189657Y-73228820D01*
X124320132Y-73042484D01*
X124347341Y-72984134D01*
X124393513Y-72931695D01*
X124460707Y-72912542D01*
X124527588Y-72932757D01*
X124572106Y-72984133D01*
X124599431Y-73042732D01*
X124599432Y-73042734D01*
X124729954Y-73229141D01*
X124890858Y-73390045D01*
X124890861Y-73390047D01*
X125077266Y-73520568D01*
X125283504Y-73616739D01*
X125283509Y-73616740D01*
X125283511Y-73616741D01*
X125336415Y-73630916D01*
X125503308Y-73675635D01*
X125647144Y-73688219D01*
X125729998Y-73695468D01*
X125730000Y-73695468D01*
X125730002Y-73695468D01*
X125786673Y-73690509D01*
X125956692Y-73675635D01*
X126176496Y-73616739D01*
X126382734Y-73520568D01*
X126569139Y-73390047D01*
X126730047Y-73229139D01*
X126860568Y-73042734D01*
X126887618Y-72984724D01*
X126933790Y-72932285D01*
X127000983Y-72913133D01*
X127067865Y-72933348D01*
X127112382Y-72984725D01*
X127139429Y-73042728D01*
X127139432Y-73042734D01*
X127269954Y-73229141D01*
X127430858Y-73390045D01*
X127430861Y-73390047D01*
X127617266Y-73520568D01*
X127823504Y-73616739D01*
X127823509Y-73616740D01*
X127823511Y-73616741D01*
X127876415Y-73630916D01*
X128043308Y-73675635D01*
X128187144Y-73688219D01*
X128269998Y-73695468D01*
X128270000Y-73695468D01*
X128270002Y-73695468D01*
X128326673Y-73690509D01*
X128496692Y-73675635D01*
X128716496Y-73616739D01*
X128922734Y-73520568D01*
X129109139Y-73390047D01*
X129270047Y-73229139D01*
X129400568Y-73042734D01*
X129427618Y-72984724D01*
X129473790Y-72932285D01*
X129540983Y-72913133D01*
X129607865Y-72933348D01*
X129652382Y-72984725D01*
X129679429Y-73042728D01*
X129679432Y-73042734D01*
X129809954Y-73229141D01*
X129970858Y-73390045D01*
X129970861Y-73390047D01*
X130157266Y-73520568D01*
X130363504Y-73616739D01*
X130363509Y-73616740D01*
X130363511Y-73616741D01*
X130416415Y-73630916D01*
X130583308Y-73675635D01*
X130727144Y-73688219D01*
X130809998Y-73695468D01*
X130810000Y-73695468D01*
X130810002Y-73695468D01*
X130866673Y-73690509D01*
X131036692Y-73675635D01*
X131256496Y-73616739D01*
X131462734Y-73520568D01*
X131649139Y-73390047D01*
X131810047Y-73229139D01*
X131940568Y-73042734D01*
X131967618Y-72984724D01*
X132013790Y-72932285D01*
X132080983Y-72913133D01*
X132147865Y-72933348D01*
X132192382Y-72984725D01*
X132219429Y-73042728D01*
X132219432Y-73042734D01*
X132349954Y-73229141D01*
X132510858Y-73390045D01*
X132510861Y-73390047D01*
X132697266Y-73520568D01*
X132903504Y-73616739D01*
X132903509Y-73616740D01*
X132903511Y-73616741D01*
X132956415Y-73630916D01*
X133123308Y-73675635D01*
X133267144Y-73688219D01*
X133349998Y-73695468D01*
X133350000Y-73695468D01*
X133350002Y-73695468D01*
X133406673Y-73690509D01*
X133576692Y-73675635D01*
X133796496Y-73616739D01*
X134002734Y-73520568D01*
X134189139Y-73390047D01*
X134350047Y-73229139D01*
X134480568Y-73042734D01*
X134507618Y-72984724D01*
X134553790Y-72932285D01*
X134620983Y-72913133D01*
X134687865Y-72933348D01*
X134732382Y-72984725D01*
X134759429Y-73042728D01*
X134759432Y-73042734D01*
X134889954Y-73229141D01*
X135050858Y-73390045D01*
X135050861Y-73390047D01*
X135237266Y-73520568D01*
X135443504Y-73616739D01*
X135443509Y-73616740D01*
X135443511Y-73616741D01*
X135496415Y-73630916D01*
X135663308Y-73675635D01*
X135807144Y-73688219D01*
X135889998Y-73695468D01*
X135890000Y-73695468D01*
X135890002Y-73695468D01*
X135946673Y-73690509D01*
X136116692Y-73675635D01*
X136336496Y-73616739D01*
X136542734Y-73520568D01*
X136729139Y-73390047D01*
X136890047Y-73229139D01*
X137020568Y-73042734D01*
X137047618Y-72984724D01*
X137093790Y-72932285D01*
X137160983Y-72913133D01*
X137227865Y-72933348D01*
X137272382Y-72984725D01*
X137299429Y-73042728D01*
X137299432Y-73042734D01*
X137429954Y-73229141D01*
X137590858Y-73390045D01*
X137590861Y-73390047D01*
X137777266Y-73520568D01*
X137983504Y-73616739D01*
X137983509Y-73616740D01*
X137983511Y-73616741D01*
X138036415Y-73630916D01*
X138203308Y-73675635D01*
X138347144Y-73688219D01*
X138429998Y-73695468D01*
X138429999Y-73695468D01*
X138429999Y-73695467D01*
X138430000Y-73695468D01*
X138512848Y-73688219D01*
X138581345Y-73701985D01*
X138631529Y-73750600D01*
X138647463Y-73818628D01*
X138624088Y-73884472D01*
X138611336Y-73899428D01*
X138559818Y-73950945D01*
X138471582Y-74039182D01*
X138410262Y-74072666D01*
X138383903Y-74075500D01*
X118189057Y-74075500D01*
X118030943Y-74075500D01*
X117878215Y-74116423D01*
X117878214Y-74116423D01*
X117878212Y-74116424D01*
X117878209Y-74116425D01*
X117828096Y-74145359D01*
X117828095Y-74145360D01*
X117784689Y-74170420D01*
X117741285Y-74195479D01*
X117741282Y-74195481D01*
X114454481Y-77482282D01*
X114454480Y-77482284D01*
X114415929Y-77549057D01*
X114375423Y-77619215D01*
X114334499Y-77771943D01*
X114334499Y-77771945D01*
X114334499Y-77940046D01*
X114334500Y-77940059D01*
X114334500Y-80731659D01*
X114314815Y-80798698D01*
X114262011Y-80844453D01*
X114224384Y-80854879D01*
X114040205Y-80875630D01*
X114040201Y-80875631D01*
X113869932Y-80935211D01*
X113717193Y-81031184D01*
X113589640Y-81158737D01*
X113493667Y-81311476D01*
X113434087Y-81481745D01*
X113434086Y-81481750D01*
X113413891Y-81660996D01*
X113413891Y-81661003D01*
X113434086Y-81840249D01*
X113434087Y-81840254D01*
X113493667Y-82010523D01*
X113589641Y-82163263D01*
X113591901Y-82166097D01*
X113592790Y-82168275D01*
X113593345Y-82169158D01*
X113593190Y-82169255D01*
X113618311Y-82230783D01*
X113618956Y-82243412D01*
X113618956Y-83477764D01*
X113599271Y-83544803D01*
X113546467Y-83590558D01*
X113481073Y-83600984D01*
X113347504Y-83585935D01*
X113347496Y-83585935D01*
X113260383Y-83595750D01*
X113191561Y-83583695D01*
X113140182Y-83536346D01*
X113122500Y-83472530D01*
X113122500Y-79703940D01*
X113142185Y-79636901D01*
X113158819Y-79616259D01*
X113278816Y-79496262D01*
X113374789Y-79343522D01*
X113434368Y-79173255D01*
X113434368Y-79173252D01*
X113434369Y-79173249D01*
X113454565Y-78994003D01*
X113454565Y-78993996D01*
X113434369Y-78814750D01*
X113434368Y-78814745D01*
X113428149Y-78796972D01*
X113374789Y-78644478D01*
X113278816Y-78491738D01*
X113151262Y-78364184D01*
X113114994Y-78341395D01*
X112998523Y-78268211D01*
X112828254Y-78208631D01*
X112828249Y-78208630D01*
X112649004Y-78188435D01*
X112648996Y-78188435D01*
X112469750Y-78208630D01*
X112469745Y-78208631D01*
X112299476Y-78268211D01*
X112146737Y-78364184D01*
X112019184Y-78491737D01*
X111923211Y-78644476D01*
X111863631Y-78814745D01*
X111863630Y-78814750D01*
X111843435Y-78993996D01*
X111843435Y-78994003D01*
X111863630Y-79173246D01*
X111863631Y-79173251D01*
X111863631Y-79173253D01*
X111863632Y-79173255D01*
X111912604Y-79313209D01*
X111914542Y-79318747D01*
X111921500Y-79359701D01*
X111921500Y-79933801D01*
X111901815Y-80000840D01*
X111849011Y-80046595D01*
X111783616Y-80057021D01*
X111628702Y-80039566D01*
X111564288Y-80012499D01*
X111524733Y-79954904D01*
X111518586Y-79916346D01*
X111518586Y-76404165D01*
X111489745Y-76259178D01*
X111489744Y-76259177D01*
X111489744Y-76259173D01*
X111483756Y-76244716D01*
X111433172Y-76122595D01*
X111433171Y-76122593D01*
X111431438Y-76120000D01*
X111400272Y-76073356D01*
X111400271Y-76073354D01*
X111351042Y-75999675D01*
X111351038Y-75999670D01*
X101674952Y-66323584D01*
X101641467Y-66262261D01*
X101646451Y-66192569D01*
X101688323Y-66136636D01*
X101751823Y-66112375D01*
X101835408Y-66105063D01*
X102063663Y-66043903D01*
X102277830Y-65944035D01*
X102471401Y-65808495D01*
X102593717Y-65686178D01*
X102655036Y-65652696D01*
X102724728Y-65657680D01*
X102780662Y-65699551D01*
X102797577Y-65730528D01*
X102846646Y-65862088D01*
X102846649Y-65862093D01*
X102932809Y-65977187D01*
X102932812Y-65977190D01*
X103047906Y-66063350D01*
X103047913Y-66063354D01*
X103182620Y-66113596D01*
X103182627Y-66113598D01*
X103242155Y-66119999D01*
X103242172Y-66120000D01*
X103890000Y-66120000D01*
X103890000Y-65203012D01*
X103947007Y-65235925D01*
X104074174Y-65270000D01*
X104205826Y-65270000D01*
X104332993Y-65235925D01*
X104390000Y-65203012D01*
X104390000Y-66120000D01*
X105037828Y-66120000D01*
X105037844Y-66119999D01*
X105097372Y-66113598D01*
X105097379Y-66113596D01*
X105232086Y-66063354D01*
X105232093Y-66063350D01*
X105347187Y-65977190D01*
X105347190Y-65977187D01*
X105433350Y-65862093D01*
X105433354Y-65862086D01*
X105483596Y-65727379D01*
X105483598Y-65727372D01*
X105489999Y-65667844D01*
X105490000Y-65667827D01*
X105490000Y-65020000D01*
X104573012Y-65020000D01*
X104605925Y-64962993D01*
X104640000Y-64835826D01*
X104640000Y-64704174D01*
X104605925Y-64577007D01*
X104573012Y-64520000D01*
X105490000Y-64520000D01*
X105490000Y-63872172D01*
X105489999Y-63872155D01*
X105483598Y-63812627D01*
X105483596Y-63812620D01*
X105433354Y-63677913D01*
X105433350Y-63677906D01*
X105347190Y-63562812D01*
X105347187Y-63562809D01*
X105232093Y-63476649D01*
X105232086Y-63476645D01*
X105097379Y-63426403D01*
X105097372Y-63426401D01*
X105037844Y-63420000D01*
X104390000Y-63420000D01*
X104390000Y-64336988D01*
X104332993Y-64304075D01*
X104205826Y-64270000D01*
X104074174Y-64270000D01*
X103947007Y-64304075D01*
X103890000Y-64336988D01*
X103890000Y-63420000D01*
X103242155Y-63420000D01*
X103182627Y-63426401D01*
X103182620Y-63426403D01*
X103047913Y-63476645D01*
X103047906Y-63476649D01*
X102932812Y-63562809D01*
X102932809Y-63562812D01*
X102846649Y-63677906D01*
X102846645Y-63677913D01*
X102797578Y-63809470D01*
X102755707Y-63865404D01*
X102690242Y-63889821D01*
X102621969Y-63874969D01*
X102593715Y-63853819D01*
X102548979Y-63809083D01*
X102471401Y-63731505D01*
X102471397Y-63731502D01*
X102471396Y-63731501D01*
X102277834Y-63595967D01*
X102277830Y-63595965D01*
X102206727Y-63562809D01*
X102063663Y-63496097D01*
X102063659Y-63496096D01*
X102063655Y-63496094D01*
X101835413Y-63434938D01*
X101835403Y-63434936D01*
X101600001Y-63414341D01*
X101599999Y-63414341D01*
X101364596Y-63434936D01*
X101364586Y-63434938D01*
X101136344Y-63496094D01*
X101136335Y-63496098D01*
X100922171Y-63595964D01*
X100922169Y-63595965D01*
X100728597Y-63731505D01*
X100561505Y-63898597D01*
X100431575Y-64084158D01*
X100376998Y-64127783D01*
X100307500Y-64134977D01*
X100245145Y-64103454D01*
X100228425Y-64084158D01*
X100098494Y-63898597D01*
X99931402Y-63731506D01*
X99931395Y-63731501D01*
X99737834Y-63595967D01*
X99737830Y-63595965D01*
X99666727Y-63562809D01*
X99523663Y-63496097D01*
X99523659Y-63496096D01*
X99523655Y-63496094D01*
X99295413Y-63434938D01*
X99295403Y-63434936D01*
X99060001Y-63414341D01*
X99059999Y-63414341D01*
X98824596Y-63434936D01*
X98824586Y-63434938D01*
X98596344Y-63496094D01*
X98596335Y-63496098D01*
X98382171Y-63595964D01*
X98382169Y-63595965D01*
X98188597Y-63731505D01*
X98021505Y-63898597D01*
X97891575Y-64084158D01*
X97836998Y-64127783D01*
X97767500Y-64134977D01*
X97705145Y-64103454D01*
X97688425Y-64084158D01*
X97558494Y-63898597D01*
X97391402Y-63731506D01*
X97391395Y-63731501D01*
X97197834Y-63595967D01*
X97197830Y-63595965D01*
X97126727Y-63562809D01*
X96983663Y-63496097D01*
X96983659Y-63496096D01*
X96983655Y-63496094D01*
X96755413Y-63434938D01*
X96755403Y-63434936D01*
X96520001Y-63414341D01*
X96519999Y-63414341D01*
X96284596Y-63434936D01*
X96284586Y-63434938D01*
X96056344Y-63496094D01*
X96056335Y-63496098D01*
X95842171Y-63595964D01*
X95842169Y-63595965D01*
X95648597Y-63731505D01*
X95481505Y-63898597D01*
X95351575Y-64084158D01*
X95296998Y-64127783D01*
X95227500Y-64134977D01*
X95165145Y-64103454D01*
X95148425Y-64084158D01*
X95018494Y-63898597D01*
X94851402Y-63731506D01*
X94851395Y-63731501D01*
X94657834Y-63595967D01*
X94657830Y-63595965D01*
X94586727Y-63562809D01*
X94443663Y-63496097D01*
X94443659Y-63496096D01*
X94443655Y-63496094D01*
X94215413Y-63434938D01*
X94215403Y-63434936D01*
X93980001Y-63414341D01*
X93979999Y-63414341D01*
X93744596Y-63434936D01*
X93744586Y-63434938D01*
X93516344Y-63496094D01*
X93516335Y-63496098D01*
X93302171Y-63595964D01*
X93302169Y-63595965D01*
X93108597Y-63731505D01*
X92941505Y-63898597D01*
X92811575Y-64084158D01*
X92756998Y-64127783D01*
X92687500Y-64134977D01*
X92625145Y-64103454D01*
X92608425Y-64084158D01*
X92478494Y-63898597D01*
X92311402Y-63731506D01*
X92311395Y-63731501D01*
X92117834Y-63595967D01*
X92117830Y-63595965D01*
X92046727Y-63562809D01*
X91903663Y-63496097D01*
X91903659Y-63496096D01*
X91903655Y-63496094D01*
X91675413Y-63434938D01*
X91675403Y-63434936D01*
X91591824Y-63427624D01*
X91526755Y-63402171D01*
X91485777Y-63345580D01*
X91481899Y-63275818D01*
X91514951Y-63216415D01*
X91714548Y-63016819D01*
X91775871Y-62983334D01*
X91802229Y-62980500D01*
X145687770Y-62980500D01*
X145754809Y-63000185D01*
G37*
%TD.AperFunction*%
%TA.AperFunction,Conductor*%
G36*
X90254855Y-65436546D02*
G01*
X90271575Y-65455842D01*
X90401500Y-65641395D01*
X90401505Y-65641401D01*
X90568599Y-65808495D01*
X90665384Y-65876265D01*
X90762165Y-65944032D01*
X90762167Y-65944033D01*
X90762170Y-65944035D01*
X90976337Y-66043903D01*
X91204592Y-66105063D01*
X91384337Y-66120789D01*
X91439999Y-66125659D01*
X91440000Y-66125659D01*
X91440001Y-66125659D01*
X91475284Y-66122571D01*
X91653013Y-66107022D01*
X91721512Y-66120788D01*
X91751501Y-66142869D01*
X93557049Y-67948416D01*
X93661584Y-68052951D01*
X93661587Y-68052953D01*
X93661588Y-68052954D01*
X93784503Y-68135083D01*
X93784506Y-68135085D01*
X93841079Y-68158518D01*
X93841080Y-68158518D01*
X93921088Y-68191659D01*
X94037241Y-68214763D01*
X94056468Y-68218587D01*
X94066081Y-68220500D01*
X94066082Y-68220500D01*
X94066083Y-68220500D01*
X94213918Y-68220500D01*
X98427920Y-68220500D01*
X98494959Y-68240185D01*
X98515601Y-68256819D01*
X107881267Y-77622485D01*
X107914752Y-77683808D01*
X107917586Y-77710166D01*
X107917586Y-80733964D01*
X107897901Y-80801003D01*
X107845097Y-80846758D01*
X107807470Y-80857184D01*
X107643749Y-80875630D01*
X107643745Y-80875631D01*
X107473476Y-80935211D01*
X107320737Y-81031184D01*
X107193184Y-81158737D01*
X107097210Y-81311478D01*
X107037630Y-81481750D01*
X107027837Y-81568668D01*
X107000770Y-81633082D01*
X106992298Y-81642465D01*
X105815472Y-82819292D01*
X105701681Y-82933083D01*
X105640358Y-82966568D01*
X105570666Y-82961584D01*
X105514733Y-82919712D01*
X105490316Y-82854248D01*
X105490000Y-82845402D01*
X105490000Y-82800000D01*
X104573012Y-82800000D01*
X104605925Y-82742993D01*
X104640000Y-82615826D01*
X104640000Y-82484174D01*
X104605925Y-82357007D01*
X104573012Y-82300000D01*
X105490000Y-82300000D01*
X105490000Y-81652172D01*
X105489999Y-81652155D01*
X105483598Y-81592627D01*
X105483596Y-81592620D01*
X105433354Y-81457913D01*
X105433350Y-81457906D01*
X105347190Y-81342812D01*
X105347187Y-81342809D01*
X105232093Y-81256649D01*
X105232086Y-81256645D01*
X105097379Y-81206403D01*
X105097372Y-81206401D01*
X105037844Y-81200000D01*
X104390000Y-81200000D01*
X104390000Y-82116988D01*
X104332993Y-82084075D01*
X104205826Y-82050000D01*
X104074174Y-82050000D01*
X103947007Y-82084075D01*
X103890000Y-82116988D01*
X103890000Y-81200000D01*
X103242155Y-81200000D01*
X103182627Y-81206401D01*
X103182620Y-81206403D01*
X103047913Y-81256645D01*
X103047906Y-81256649D01*
X102932812Y-81342809D01*
X102932809Y-81342812D01*
X102846649Y-81457906D01*
X102846645Y-81457913D01*
X102797578Y-81589470D01*
X102755707Y-81645404D01*
X102690242Y-81669821D01*
X102621969Y-81654969D01*
X102593715Y-81633819D01*
X102549366Y-81589470D01*
X102471401Y-81511505D01*
X102471397Y-81511502D01*
X102471396Y-81511501D01*
X102277834Y-81375967D01*
X102277830Y-81375965D01*
X102206727Y-81342809D01*
X102063663Y-81276097D01*
X102063659Y-81276096D01*
X102063655Y-81276094D01*
X101835413Y-81214938D01*
X101835403Y-81214936D01*
X101600001Y-81194341D01*
X101599999Y-81194341D01*
X101364596Y-81214936D01*
X101364586Y-81214938D01*
X101136344Y-81276094D01*
X101136335Y-81276098D01*
X100922171Y-81375964D01*
X100922169Y-81375965D01*
X100728597Y-81511505D01*
X100561505Y-81678597D01*
X100431575Y-81864158D01*
X100376998Y-81907783D01*
X100307500Y-81914977D01*
X100245145Y-81883454D01*
X100228425Y-81864158D01*
X100098494Y-81678597D01*
X99931402Y-81511506D01*
X99931395Y-81511501D01*
X99737834Y-81375967D01*
X99737830Y-81375965D01*
X99666727Y-81342809D01*
X99523663Y-81276097D01*
X99523659Y-81276096D01*
X99523655Y-81276094D01*
X99295413Y-81214938D01*
X99295403Y-81214936D01*
X99060001Y-81194341D01*
X99059999Y-81194341D01*
X98824596Y-81214936D01*
X98824586Y-81214938D01*
X98596344Y-81276094D01*
X98596335Y-81276098D01*
X98382171Y-81375964D01*
X98382169Y-81375965D01*
X98188597Y-81511505D01*
X98021505Y-81678597D01*
X97891575Y-81864158D01*
X97836998Y-81907783D01*
X97767500Y-81914977D01*
X97705145Y-81883454D01*
X97688425Y-81864158D01*
X97558494Y-81678597D01*
X97391402Y-81511506D01*
X97391395Y-81511501D01*
X97197834Y-81375967D01*
X97197830Y-81375965D01*
X97126727Y-81342809D01*
X96983663Y-81276097D01*
X96983659Y-81276096D01*
X96983655Y-81276094D01*
X96755413Y-81214938D01*
X96755403Y-81214936D01*
X96520001Y-81194341D01*
X96519999Y-81194341D01*
X96284596Y-81214936D01*
X96284586Y-81214938D01*
X96056344Y-81276094D01*
X96056335Y-81276098D01*
X95842171Y-81375964D01*
X95842169Y-81375965D01*
X95648597Y-81511505D01*
X95481505Y-81678597D01*
X95351575Y-81864158D01*
X95296998Y-81907783D01*
X95227500Y-81914977D01*
X95165145Y-81883454D01*
X95148425Y-81864158D01*
X95018494Y-81678597D01*
X94851402Y-81511506D01*
X94851395Y-81511501D01*
X94657834Y-81375967D01*
X94657830Y-81375965D01*
X94586727Y-81342809D01*
X94443663Y-81276097D01*
X94443659Y-81276096D01*
X94443655Y-81276094D01*
X94215413Y-81214938D01*
X94215403Y-81214936D01*
X93980001Y-81194341D01*
X93979999Y-81194341D01*
X93744596Y-81214936D01*
X93744586Y-81214938D01*
X93516344Y-81276094D01*
X93516335Y-81276098D01*
X93302171Y-81375964D01*
X93302169Y-81375965D01*
X93108597Y-81511505D01*
X92941505Y-81678597D01*
X92811575Y-81864158D01*
X92756998Y-81907783D01*
X92687500Y-81914977D01*
X92625145Y-81883454D01*
X92608425Y-81864158D01*
X92478494Y-81678597D01*
X92311402Y-81511506D01*
X92311395Y-81511501D01*
X92117834Y-81375967D01*
X92117830Y-81375965D01*
X92046727Y-81342809D01*
X91903663Y-81276097D01*
X91903659Y-81276096D01*
X91903655Y-81276094D01*
X91675413Y-81214938D01*
X91675403Y-81214936D01*
X91591824Y-81207624D01*
X91526755Y-81182171D01*
X91485777Y-81125580D01*
X91481899Y-81055818D01*
X91514949Y-80996417D01*
X93668499Y-78842867D01*
X93729820Y-78809384D01*
X93766984Y-78807022D01*
X93915319Y-78820000D01*
X93979999Y-78825659D01*
X93980000Y-78825659D01*
X93980001Y-78825659D01*
X94044681Y-78820000D01*
X94215408Y-78805063D01*
X94443663Y-78743903D01*
X94657830Y-78644035D01*
X94851401Y-78508495D01*
X95018495Y-78341401D01*
X95148425Y-78155842D01*
X95203002Y-78112217D01*
X95272500Y-78105023D01*
X95334855Y-78136546D01*
X95351575Y-78155842D01*
X95481500Y-78341395D01*
X95481505Y-78341401D01*
X95648599Y-78508495D01*
X95725135Y-78562086D01*
X95842165Y-78644032D01*
X95842167Y-78644033D01*
X95842170Y-78644035D01*
X96056337Y-78743903D01*
X96284592Y-78805063D01*
X96455319Y-78820000D01*
X96519999Y-78825659D01*
X96520000Y-78825659D01*
X96520001Y-78825659D01*
X96584681Y-78820000D01*
X96755408Y-78805063D01*
X96983663Y-78743903D01*
X97197830Y-78644035D01*
X97391401Y-78508495D01*
X97558495Y-78341401D01*
X97688425Y-78155842D01*
X97743002Y-78112217D01*
X97812500Y-78105023D01*
X97874855Y-78136546D01*
X97891575Y-78155842D01*
X98021500Y-78341395D01*
X98021505Y-78341401D01*
X98188599Y-78508495D01*
X98265135Y-78562086D01*
X98382165Y-78644032D01*
X98382167Y-78644033D01*
X98382170Y-78644035D01*
X98596337Y-78743903D01*
X98824592Y-78805063D01*
X98995319Y-78820000D01*
X99059999Y-78825659D01*
X99060000Y-78825659D01*
X99060001Y-78825659D01*
X99124681Y-78820000D01*
X99295408Y-78805063D01*
X99523663Y-78743903D01*
X99737830Y-78644035D01*
X99931401Y-78508495D01*
X100098495Y-78341401D01*
X100228425Y-78155842D01*
X100283002Y-78112217D01*
X100352500Y-78105023D01*
X100414855Y-78136546D01*
X100431575Y-78155842D01*
X100561500Y-78341395D01*
X100561505Y-78341401D01*
X100728599Y-78508495D01*
X100805135Y-78562086D01*
X100922165Y-78644032D01*
X100922167Y-78644033D01*
X100922170Y-78644035D01*
X101136337Y-78743903D01*
X101364592Y-78805063D01*
X101535319Y-78820000D01*
X101599999Y-78825659D01*
X101600000Y-78825659D01*
X101600001Y-78825659D01*
X101664681Y-78820000D01*
X101835408Y-78805063D01*
X102063663Y-78743903D01*
X102277830Y-78644035D01*
X102471401Y-78508495D01*
X102593717Y-78386178D01*
X102655036Y-78352696D01*
X102724728Y-78357680D01*
X102780662Y-78399551D01*
X102797577Y-78430528D01*
X102846646Y-78562088D01*
X102846649Y-78562093D01*
X102932809Y-78677187D01*
X102932812Y-78677190D01*
X103047906Y-78763350D01*
X103047913Y-78763354D01*
X103182620Y-78813596D01*
X103182627Y-78813598D01*
X103242155Y-78819999D01*
X103242172Y-78820000D01*
X103890000Y-78820000D01*
X103890000Y-77903012D01*
X103947007Y-77935925D01*
X104074174Y-77970000D01*
X104205826Y-77970000D01*
X104332993Y-77935925D01*
X104390000Y-77903012D01*
X104390000Y-78820000D01*
X105037828Y-78820000D01*
X105037844Y-78819999D01*
X105097372Y-78813598D01*
X105097379Y-78813596D01*
X105232086Y-78763354D01*
X105232093Y-78763350D01*
X105347187Y-78677190D01*
X105347190Y-78677187D01*
X105433350Y-78562093D01*
X105433354Y-78562086D01*
X105483596Y-78427379D01*
X105483598Y-78427372D01*
X105489999Y-78367844D01*
X105490000Y-78367827D01*
X105490000Y-77720000D01*
X104573012Y-77720000D01*
X104605925Y-77662993D01*
X104640000Y-77535826D01*
X104640000Y-77404174D01*
X104605925Y-77277007D01*
X104573012Y-77220000D01*
X105490000Y-77220000D01*
X105490000Y-76572172D01*
X105489999Y-76572155D01*
X105483598Y-76512627D01*
X105483596Y-76512620D01*
X105433354Y-76377913D01*
X105433350Y-76377906D01*
X105347190Y-76262812D01*
X105347187Y-76262809D01*
X105232093Y-76176649D01*
X105232086Y-76176645D01*
X105097379Y-76126403D01*
X105097372Y-76126401D01*
X105037844Y-76120000D01*
X104390000Y-76120000D01*
X104390000Y-77036988D01*
X104332993Y-77004075D01*
X104205826Y-76970000D01*
X104074174Y-76970000D01*
X103947007Y-77004075D01*
X103890000Y-77036988D01*
X103890000Y-76120000D01*
X103242155Y-76120000D01*
X103182627Y-76126401D01*
X103182620Y-76126403D01*
X103047913Y-76176645D01*
X103047906Y-76176649D01*
X102932812Y-76262809D01*
X102932809Y-76262812D01*
X102846649Y-76377906D01*
X102846645Y-76377913D01*
X102797578Y-76509470D01*
X102755707Y-76565404D01*
X102690242Y-76589821D01*
X102621969Y-76574969D01*
X102593715Y-76553819D01*
X102549366Y-76509470D01*
X102471401Y-76431505D01*
X102471397Y-76431502D01*
X102471396Y-76431501D01*
X102277834Y-76295967D01*
X102277830Y-76295965D01*
X102198940Y-76259178D01*
X102063663Y-76196097D01*
X102063659Y-76196096D01*
X102063655Y-76196094D01*
X101835413Y-76134938D01*
X101835403Y-76134936D01*
X101600001Y-76114341D01*
X101599999Y-76114341D01*
X101364596Y-76134936D01*
X101364586Y-76134938D01*
X101136344Y-76196094D01*
X101136335Y-76196098D01*
X100922171Y-76295964D01*
X100922169Y-76295965D01*
X100728597Y-76431505D01*
X100561505Y-76598597D01*
X100431575Y-76784158D01*
X100376998Y-76827783D01*
X100307500Y-76834977D01*
X100245145Y-76803454D01*
X100228425Y-76784158D01*
X100098494Y-76598597D01*
X99931402Y-76431506D01*
X99931395Y-76431501D01*
X99737834Y-76295967D01*
X99737830Y-76295965D01*
X99658940Y-76259178D01*
X99523663Y-76196097D01*
X99523659Y-76196096D01*
X99523655Y-76196094D01*
X99295413Y-76134938D01*
X99295403Y-76134936D01*
X99060001Y-76114341D01*
X99059999Y-76114341D01*
X98824596Y-76134936D01*
X98824583Y-76134939D01*
X98696241Y-76169327D01*
X98626392Y-76167664D01*
X98576468Y-76137233D01*
X95544590Y-73105355D01*
X95544588Y-73105352D01*
X95425717Y-72986481D01*
X95425709Y-72986475D01*
X95323936Y-72927717D01*
X95323934Y-72927716D01*
X95288790Y-72907425D01*
X95288789Y-72907424D01*
X95276263Y-72904067D01*
X95136057Y-72866499D01*
X94977943Y-72866499D01*
X94970347Y-72866499D01*
X94970331Y-72866500D01*
X94832911Y-72866500D01*
X94765872Y-72846815D01*
X94755596Y-72839445D01*
X94752762Y-72837185D01*
X94752761Y-72837184D01*
X94677826Y-72790099D01*
X94600022Y-72741211D01*
X94429753Y-72681631D01*
X94429748Y-72681630D01*
X94250503Y-72661435D01*
X94250495Y-72661435D01*
X94071249Y-72681630D01*
X94071244Y-72681631D01*
X93900975Y-72741211D01*
X93748236Y-72837184D01*
X93620683Y-72964737D01*
X93524710Y-73117476D01*
X93465130Y-73287745D01*
X93465129Y-73287750D01*
X93444934Y-73466996D01*
X93444934Y-73467003D01*
X93465129Y-73646249D01*
X93465130Y-73646254D01*
X93524710Y-73816523D01*
X93526033Y-73818628D01*
X93620683Y-73969262D01*
X93748237Y-74096816D01*
X93900977Y-74192789D01*
X94071244Y-74252368D01*
X94071249Y-74252369D01*
X94250495Y-74272565D01*
X94250499Y-74272565D01*
X94250503Y-74272565D01*
X94429748Y-74252369D01*
X94429751Y-74252368D01*
X94429754Y-74252368D01*
X94600021Y-74192789D01*
X94721121Y-74116696D01*
X94788357Y-74097696D01*
X94855192Y-74118063D01*
X94874774Y-74134009D01*
X96646333Y-75905568D01*
X96679818Y-75966891D01*
X96674834Y-76036583D01*
X96632962Y-76092516D01*
X96567498Y-76116933D01*
X96547844Y-76116777D01*
X96520001Y-76114341D01*
X96519999Y-76114341D01*
X96284596Y-76134936D01*
X96284586Y-76134938D01*
X96056344Y-76196094D01*
X96056335Y-76196098D01*
X95842171Y-76295964D01*
X95842169Y-76295965D01*
X95648597Y-76431505D01*
X95481505Y-76598597D01*
X95351575Y-76784158D01*
X95296998Y-76827783D01*
X95227500Y-76834977D01*
X95165145Y-76803454D01*
X95148425Y-76784158D01*
X95018494Y-76598597D01*
X94851402Y-76431506D01*
X94851395Y-76431501D01*
X94657834Y-76295967D01*
X94657830Y-76295965D01*
X94578940Y-76259178D01*
X94443663Y-76196097D01*
X94443659Y-76196096D01*
X94443655Y-76196094D01*
X94215413Y-76134938D01*
X94215403Y-76134936D01*
X93980001Y-76114341D01*
X93979998Y-76114341D01*
X93766986Y-76132977D01*
X93698486Y-76119210D01*
X93668498Y-76097130D01*
X89686819Y-72115451D01*
X89653334Y-72054128D01*
X89650500Y-72027770D01*
X89650500Y-65957700D01*
X89670185Y-65890661D01*
X89703375Y-65856126D01*
X89771401Y-65808495D01*
X89938495Y-65641401D01*
X90068425Y-65455842D01*
X90123002Y-65412217D01*
X90192500Y-65405023D01*
X90254855Y-65436546D01*
G37*
%TD.AperFunction*%
%TA.AperFunction,Conductor*%
G36*
X145727066Y-73649847D02*
G01*
X145732646Y-73651342D01*
X145823308Y-73675635D01*
X145967144Y-73688219D01*
X146049998Y-73695468D01*
X146049999Y-73695468D01*
X146049999Y-73695467D01*
X146050000Y-73695468D01*
X146132848Y-73688219D01*
X146201345Y-73701985D01*
X146251529Y-73750600D01*
X146267463Y-73818628D01*
X146244088Y-73884472D01*
X146231335Y-73899428D01*
X144891584Y-75239181D01*
X144830261Y-75272666D01*
X144803903Y-75275500D01*
X144313097Y-75275500D01*
X144246058Y-75255815D01*
X144200303Y-75203011D01*
X144190359Y-75133853D01*
X144219384Y-75070297D01*
X144225416Y-75063819D01*
X144555382Y-74733853D01*
X145607294Y-73681939D01*
X145668615Y-73648456D01*
X145727066Y-73649847D01*
G37*
%TD.AperFunction*%
%TA.AperFunction,Conductor*%
G36*
X143187066Y-73649847D02*
G01*
X143192646Y-73651342D01*
X143283308Y-73675635D01*
X143427144Y-73688219D01*
X143509998Y-73695468D01*
X143509999Y-73695468D01*
X143509999Y-73695467D01*
X143510000Y-73695468D01*
X143592848Y-73688219D01*
X143661345Y-73701985D01*
X143711529Y-73750600D01*
X143727463Y-73818628D01*
X143704088Y-73884472D01*
X143691335Y-73899428D01*
X142751584Y-74839181D01*
X142690261Y-74872666D01*
X142663903Y-74875500D01*
X142173097Y-74875500D01*
X142106058Y-74855815D01*
X142060303Y-74803011D01*
X142050359Y-74733853D01*
X142079384Y-74670297D01*
X142085416Y-74663819D01*
X142310054Y-74439181D01*
X143067294Y-73681939D01*
X143128615Y-73648456D01*
X143187066Y-73649847D01*
G37*
%TD.AperFunction*%
%TA.AperFunction,Conductor*%
G36*
X140647066Y-73649847D02*
G01*
X140652646Y-73651342D01*
X140743308Y-73675635D01*
X140887144Y-73688219D01*
X140969998Y-73695468D01*
X140969999Y-73695468D01*
X140969999Y-73695467D01*
X140970000Y-73695468D01*
X141052848Y-73688219D01*
X141121345Y-73701985D01*
X141171529Y-73750600D01*
X141187463Y-73818628D01*
X141164088Y-73884472D01*
X141151335Y-73899428D01*
X140611584Y-74439181D01*
X140550261Y-74472666D01*
X140523903Y-74475500D01*
X140033097Y-74475500D01*
X139966058Y-74455815D01*
X139920303Y-74403011D01*
X139910359Y-74333853D01*
X139939384Y-74270297D01*
X139945416Y-74263819D01*
X140075226Y-74134009D01*
X140527294Y-73681939D01*
X140588615Y-73648456D01*
X140647066Y-73649847D01*
G37*
%TD.AperFunction*%
%TA.AperFunction,Conductor*%
G36*
X155002702Y-60500617D02*
G01*
X155386771Y-60517386D01*
X155397506Y-60518326D01*
X155775971Y-60568152D01*
X155786597Y-60570025D01*
X156159284Y-60652648D01*
X156169710Y-60655442D01*
X156533765Y-60770227D01*
X156543911Y-60773920D01*
X156896578Y-60920000D01*
X156906369Y-60924566D01*
X157244942Y-61100816D01*
X157254310Y-61106224D01*
X157576244Y-61311318D01*
X157585105Y-61317523D01*
X157887930Y-61549889D01*
X157896217Y-61556843D01*
X158177635Y-61814715D01*
X158185284Y-61822364D01*
X158443156Y-62103782D01*
X158450110Y-62112069D01*
X158682476Y-62414894D01*
X158688681Y-62423755D01*
X158893775Y-62745689D01*
X158899183Y-62755057D01*
X159075430Y-63093623D01*
X159080002Y-63103427D01*
X159226075Y-63456078D01*
X159229775Y-63466244D01*
X159344554Y-63830278D01*
X159347354Y-63840727D01*
X159429971Y-64213389D01*
X159431849Y-64224042D01*
X159481671Y-64602473D01*
X159482614Y-64613249D01*
X159499382Y-64997297D01*
X159499500Y-65002706D01*
X159499500Y-114997293D01*
X159499382Y-115002702D01*
X159482614Y-115386750D01*
X159481671Y-115397526D01*
X159431849Y-115775957D01*
X159429971Y-115786610D01*
X159347354Y-116159272D01*
X159344554Y-116169721D01*
X159229775Y-116533755D01*
X159226075Y-116543921D01*
X159080002Y-116896572D01*
X159075430Y-116906376D01*
X158899183Y-117244942D01*
X158893775Y-117254310D01*
X158688681Y-117576244D01*
X158682476Y-117585105D01*
X158450110Y-117887930D01*
X158443156Y-117896217D01*
X158185284Y-118177635D01*
X158177635Y-118185284D01*
X157896217Y-118443156D01*
X157887930Y-118450110D01*
X157585105Y-118682476D01*
X157576244Y-118688681D01*
X157254310Y-118893775D01*
X157244942Y-118899183D01*
X156906376Y-119075430D01*
X156896572Y-119080002D01*
X156543921Y-119226075D01*
X156533755Y-119229775D01*
X156169721Y-119344554D01*
X156159272Y-119347354D01*
X155786610Y-119429971D01*
X155775957Y-119431849D01*
X155397526Y-119481671D01*
X155386750Y-119482614D01*
X155002703Y-119499382D01*
X154997294Y-119499500D01*
X75002706Y-119499500D01*
X74997297Y-119499382D01*
X74613249Y-119482614D01*
X74602473Y-119481671D01*
X74224042Y-119431849D01*
X74213389Y-119429971D01*
X73840727Y-119347354D01*
X73830278Y-119344554D01*
X73466244Y-119229775D01*
X73456078Y-119226075D01*
X73103427Y-119080002D01*
X73093623Y-119075430D01*
X72755057Y-118899183D01*
X72745689Y-118893775D01*
X72423755Y-118688681D01*
X72414894Y-118682476D01*
X72112069Y-118450110D01*
X72103782Y-118443156D01*
X71822364Y-118185284D01*
X71814715Y-118177635D01*
X71556843Y-117896217D01*
X71549889Y-117887930D01*
X71317523Y-117585105D01*
X71311318Y-117576244D01*
X71106224Y-117254310D01*
X71100816Y-117244942D01*
X70973924Y-117001185D01*
X70924566Y-116906369D01*
X70919997Y-116896572D01*
X70840726Y-116705194D01*
X70773920Y-116543911D01*
X70770224Y-116533755D01*
X70725092Y-116390613D01*
X70655442Y-116169710D01*
X70652648Y-116159284D01*
X70570025Y-115786597D01*
X70568152Y-115775971D01*
X70518326Y-115397506D01*
X70517386Y-115386771D01*
X70500618Y-115002702D01*
X70500559Y-115000000D01*
X71794958Y-115000000D01*
X71815110Y-115358846D01*
X71815112Y-115358858D01*
X71875314Y-115713185D01*
X71875316Y-115713194D01*
X71974812Y-116058552D01*
X72112353Y-116390609D01*
X72112355Y-116390613D01*
X72286215Y-116705189D01*
X72286218Y-116705194D01*
X72494193Y-116998306D01*
X72566844Y-117079601D01*
X73884728Y-115761716D01*
X73970278Y-115879466D01*
X74120534Y-116029722D01*
X74238281Y-116115270D01*
X72920397Y-117433154D01*
X73001693Y-117505806D01*
X73294805Y-117713781D01*
X73294810Y-117713784D01*
X73609386Y-117887644D01*
X73609390Y-117887646D01*
X73941447Y-118025187D01*
X74286805Y-118124683D01*
X74286814Y-118124685D01*
X74641141Y-118184887D01*
X74641153Y-118184889D01*
X75000000Y-118205041D01*
X75358846Y-118184889D01*
X75358858Y-118184887D01*
X75713185Y-118124685D01*
X75713194Y-118124683D01*
X76058552Y-118025187D01*
X76390609Y-117887646D01*
X76390613Y-117887644D01*
X76705189Y-117713784D01*
X76705194Y-117713781D01*
X76998299Y-117505811D01*
X76998322Y-117505793D01*
X77079602Y-117433155D01*
X77079602Y-117433154D01*
X75761718Y-116115270D01*
X75879466Y-116029722D01*
X76029722Y-115879466D01*
X76115270Y-115761718D01*
X77433154Y-117079602D01*
X77433155Y-117079602D01*
X77505793Y-116998322D01*
X77505811Y-116998299D01*
X77713781Y-116705194D01*
X77713784Y-116705189D01*
X77887644Y-116390613D01*
X77887646Y-116390609D01*
X78025187Y-116058552D01*
X78124683Y-115713194D01*
X78124685Y-115713185D01*
X78184887Y-115358858D01*
X78184889Y-115358846D01*
X78205041Y-115000000D01*
X151794958Y-115000000D01*
X151815110Y-115358846D01*
X151815112Y-115358858D01*
X151875314Y-115713185D01*
X151875316Y-115713194D01*
X151974812Y-116058552D01*
X152112353Y-116390609D01*
X152112355Y-116390613D01*
X152286215Y-116705189D01*
X152286218Y-116705194D01*
X152494193Y-116998306D01*
X152566844Y-117079601D01*
X153884728Y-115761717D01*
X153970278Y-115879466D01*
X154120534Y-116029722D01*
X154238281Y-116115270D01*
X152920397Y-117433154D01*
X153001693Y-117505806D01*
X153294805Y-117713781D01*
X153294810Y-117713784D01*
X153609386Y-117887644D01*
X153609390Y-117887646D01*
X153941447Y-118025187D01*
X154286805Y-118124683D01*
X154286814Y-118124685D01*
X154641141Y-118184887D01*
X154641153Y-118184889D01*
X155000000Y-118205041D01*
X155358846Y-118184889D01*
X155358858Y-118184887D01*
X155713185Y-118124685D01*
X155713194Y-118124683D01*
X156058552Y-118025187D01*
X156390609Y-117887646D01*
X156390613Y-117887644D01*
X156705189Y-117713784D01*
X156705194Y-117713781D01*
X156998299Y-117505811D01*
X156998322Y-117505793D01*
X157079602Y-117433155D01*
X157079602Y-117433154D01*
X155761718Y-116115270D01*
X155879466Y-116029722D01*
X156029722Y-115879466D01*
X156115270Y-115761718D01*
X157433154Y-117079602D01*
X157433155Y-117079602D01*
X157505793Y-116998322D01*
X157505811Y-116998299D01*
X157713781Y-116705194D01*
X157713784Y-116705189D01*
X157887644Y-116390613D01*
X157887646Y-116390609D01*
X158025187Y-116058552D01*
X158124683Y-115713194D01*
X158124685Y-115713185D01*
X158184887Y-115358858D01*
X158184889Y-115358846D01*
X158205041Y-115000000D01*
X158184889Y-114641153D01*
X158184887Y-114641141D01*
X158124685Y-114286814D01*
X158124683Y-114286805D01*
X158025187Y-113941447D01*
X157887646Y-113609390D01*
X157887644Y-113609386D01*
X157713784Y-113294810D01*
X157713781Y-113294805D01*
X157505806Y-113001693D01*
X157433154Y-112920397D01*
X156115270Y-114238281D01*
X156029722Y-114120534D01*
X155879466Y-113970278D01*
X155761717Y-113884729D01*
X157079601Y-112566844D01*
X157079602Y-112566844D01*
X156998306Y-112494193D01*
X156705194Y-112286218D01*
X156705189Y-112286215D01*
X156390613Y-112112355D01*
X156390609Y-112112353D01*
X156058552Y-111974812D01*
X155713194Y-111875316D01*
X155713185Y-111875314D01*
X155358858Y-111815112D01*
X155358846Y-111815110D01*
X155000000Y-111794958D01*
X154641153Y-111815110D01*
X154641141Y-111815112D01*
X154286814Y-111875314D01*
X154286805Y-111875316D01*
X153941447Y-111974812D01*
X153609390Y-112112353D01*
X153609386Y-112112355D01*
X153294810Y-112286215D01*
X153294805Y-112286218D01*
X153001693Y-112494193D01*
X152920397Y-112566844D01*
X154238282Y-113884729D01*
X154120534Y-113970278D01*
X153970278Y-114120534D01*
X153884729Y-114238282D01*
X152566844Y-112920397D01*
X152494193Y-113001693D01*
X152286218Y-113294805D01*
X152286215Y-113294810D01*
X152112355Y-113609386D01*
X152112353Y-113609390D01*
X151974812Y-113941447D01*
X151875316Y-114286805D01*
X151875314Y-114286814D01*
X151815112Y-114641141D01*
X151815110Y-114641153D01*
X151794958Y-115000000D01*
X78205041Y-115000000D01*
X78184889Y-114641153D01*
X78184887Y-114641141D01*
X78124685Y-114286814D01*
X78124683Y-114286805D01*
X78025187Y-113941447D01*
X77887646Y-113609390D01*
X77887644Y-113609386D01*
X77713784Y-113294810D01*
X77713781Y-113294805D01*
X77505806Y-113001693D01*
X77433154Y-112920397D01*
X76115270Y-114238281D01*
X76029722Y-114120534D01*
X75879466Y-113970278D01*
X75761717Y-113884729D01*
X77079601Y-112566844D01*
X77079602Y-112566844D01*
X76998306Y-112494193D01*
X76705194Y-112286218D01*
X76705189Y-112286215D01*
X76390613Y-112112355D01*
X76390609Y-112112353D01*
X76058552Y-111974812D01*
X75713194Y-111875316D01*
X75713185Y-111875314D01*
X75358858Y-111815112D01*
X75358846Y-111815110D01*
X75000000Y-111794958D01*
X74641153Y-111815110D01*
X74641141Y-111815112D01*
X74286814Y-111875314D01*
X74286805Y-111875316D01*
X73941447Y-111974812D01*
X73609390Y-112112353D01*
X73609386Y-112112355D01*
X73294810Y-112286215D01*
X73294805Y-112286218D01*
X73001693Y-112494193D01*
X72920397Y-112566844D01*
X74238282Y-113884729D01*
X74120534Y-113970278D01*
X73970278Y-114120534D01*
X73884729Y-114238282D01*
X72566844Y-112920397D01*
X72494193Y-113001693D01*
X72286218Y-113294805D01*
X72286215Y-113294810D01*
X72112355Y-113609386D01*
X72112353Y-113609390D01*
X71974812Y-113941447D01*
X71875316Y-114286805D01*
X71875314Y-114286814D01*
X71815112Y-114641141D01*
X71815110Y-114641153D01*
X71794958Y-115000000D01*
X70500559Y-115000000D01*
X70500500Y-114997293D01*
X70500500Y-108969999D01*
X80584364Y-108969999D01*
X80584364Y-108970000D01*
X81481988Y-108970000D01*
X81449075Y-109027007D01*
X81415000Y-109154174D01*
X81415000Y-109285826D01*
X81449075Y-109412993D01*
X81481988Y-109470000D01*
X80584364Y-109470000D01*
X80641567Y-109683486D01*
X80641570Y-109683492D01*
X80741399Y-109897578D01*
X80876894Y-110091082D01*
X81043917Y-110258105D01*
X81237421Y-110393600D01*
X81451507Y-110493429D01*
X81451516Y-110493433D01*
X81665000Y-110550634D01*
X81665000Y-109653012D01*
X81722007Y-109685925D01*
X81849174Y-109720000D01*
X81980826Y-109720000D01*
X82107993Y-109685925D01*
X82165000Y-109653012D01*
X82165000Y-110550633D01*
X82378483Y-110493433D01*
X82378492Y-110493429D01*
X82592578Y-110393600D01*
X82786082Y-110258105D01*
X82953105Y-110091082D01*
X83083119Y-109905405D01*
X83137696Y-109861781D01*
X83207195Y-109854588D01*
X83269549Y-109886110D01*
X83286269Y-109905405D01*
X83416505Y-110091401D01*
X83583599Y-110258495D01*
X83680384Y-110326265D01*
X83777165Y-110394032D01*
X83777167Y-110394033D01*
X83777170Y-110394035D01*
X83991337Y-110493903D01*
X84219592Y-110555063D01*
X84399337Y-110570789D01*
X84454999Y-110575659D01*
X84455000Y-110575659D01*
X84455001Y-110575659D01*
X84510663Y-110570789D01*
X84690408Y-110555063D01*
X84918663Y-110493903D01*
X85132830Y-110394035D01*
X85326401Y-110258495D01*
X85493495Y-110091401D01*
X85623425Y-109905842D01*
X85678002Y-109862217D01*
X85747500Y-109855023D01*
X85809855Y-109886546D01*
X85826575Y-109905842D01*
X85956281Y-110091082D01*
X85956505Y-110091401D01*
X86123599Y-110258495D01*
X86220384Y-110326265D01*
X86317165Y-110394032D01*
X86317167Y-110394033D01*
X86317170Y-110394035D01*
X86531337Y-110493903D01*
X86759592Y-110555063D01*
X86939337Y-110570789D01*
X86994999Y-110575659D01*
X86995000Y-110575659D01*
X86995001Y-110575659D01*
X87050663Y-110570789D01*
X87230408Y-110555063D01*
X87458663Y-110493903D01*
X87672830Y-110394035D01*
X87866401Y-110258495D01*
X88033495Y-110091401D01*
X88163425Y-109905842D01*
X88218002Y-109862217D01*
X88287500Y-109855023D01*
X88349855Y-109886546D01*
X88366575Y-109905842D01*
X88496281Y-110091082D01*
X88496505Y-110091401D01*
X88663599Y-110258495D01*
X88760384Y-110326265D01*
X88857165Y-110394032D01*
X88857167Y-110394033D01*
X88857170Y-110394035D01*
X89071337Y-110493903D01*
X89299592Y-110555063D01*
X89479337Y-110570789D01*
X89534999Y-110575659D01*
X89535000Y-110575659D01*
X89535001Y-110575659D01*
X89590663Y-110570789D01*
X89748013Y-110557022D01*
X89816512Y-110570788D01*
X89846501Y-110592869D01*
X92104586Y-112850954D01*
X92134058Y-112870645D01*
X92178270Y-112900186D01*
X92227505Y-112933084D01*
X92227506Y-112933084D01*
X92227507Y-112933085D01*
X92227509Y-112933086D01*
X92364082Y-112989656D01*
X92364087Y-112989658D01*
X92364091Y-112989658D01*
X92364092Y-112989659D01*
X92509079Y-113018500D01*
X92509082Y-113018500D01*
X104340920Y-113018500D01*
X104438462Y-112999096D01*
X104485913Y-112989658D01*
X104622495Y-112933084D01*
X104671729Y-112900186D01*
X104671734Y-112900183D01*
X104696071Y-112883921D01*
X104745416Y-112850952D01*
X107003499Y-110592867D01*
X107064820Y-110559384D01*
X107101984Y-110557022D01*
X107259337Y-110570789D01*
X107314999Y-110575659D01*
X107315000Y-110575659D01*
X107315001Y-110575659D01*
X107370663Y-110570789D01*
X107528013Y-110557022D01*
X107596512Y-110570788D01*
X107626501Y-110592869D01*
X109272048Y-112238415D01*
X109272049Y-112238416D01*
X109376583Y-112342950D01*
X109376585Y-112342952D01*
X109499498Y-112425080D01*
X109499511Y-112425087D01*
X109636082Y-112481656D01*
X109636087Y-112481658D01*
X109636091Y-112481658D01*
X109636092Y-112481659D01*
X109781079Y-112510500D01*
X109781082Y-112510500D01*
X122628920Y-112510500D01*
X122726462Y-112491096D01*
X122773913Y-112481658D01*
X122910495Y-112425084D01*
X122959729Y-112392186D01*
X123033416Y-112342952D01*
X124783498Y-110592867D01*
X124844819Y-110559384D01*
X124881983Y-110557022D01*
X125024861Y-110569522D01*
X125094999Y-110575659D01*
X125095000Y-110575659D01*
X125095001Y-110575659D01*
X125150663Y-110570789D01*
X125308013Y-110557022D01*
X125376512Y-110570788D01*
X125406501Y-110592869D01*
X127410586Y-112596954D01*
X127440058Y-112616645D01*
X127484268Y-112646184D01*
X127484270Y-112646187D01*
X127484271Y-112646187D01*
X127533496Y-112679079D01*
X127533511Y-112679087D01*
X127590079Y-112702518D01*
X127590080Y-112702518D01*
X127670088Y-112735659D01*
X127786241Y-112758763D01*
X127805468Y-112762587D01*
X127815081Y-112764500D01*
X127815082Y-112764500D01*
X140154920Y-112764500D01*
X140252462Y-112745096D01*
X140299913Y-112735658D01*
X140436495Y-112679084D01*
X140485729Y-112646186D01*
X140485734Y-112646183D01*
X140510071Y-112629921D01*
X140559416Y-112596952D01*
X142563499Y-110592867D01*
X142624820Y-110559384D01*
X142661984Y-110557022D01*
X142819337Y-110570789D01*
X142874999Y-110575659D01*
X142875000Y-110575659D01*
X142875001Y-110575659D01*
X142930663Y-110570789D01*
X143110408Y-110555063D01*
X143338663Y-110493903D01*
X143552830Y-110394035D01*
X143746401Y-110258495D01*
X143913495Y-110091401D01*
X144043425Y-109905842D01*
X144098002Y-109862217D01*
X144167500Y-109855023D01*
X144229855Y-109886546D01*
X144246575Y-109905842D01*
X144376281Y-110091082D01*
X144376505Y-110091401D01*
X144543599Y-110258495D01*
X144640384Y-110326265D01*
X144737165Y-110394032D01*
X144737167Y-110394033D01*
X144737170Y-110394035D01*
X144951337Y-110493903D01*
X145179592Y-110555063D01*
X145359337Y-110570789D01*
X145414999Y-110575659D01*
X145415000Y-110575659D01*
X145415001Y-110575659D01*
X145470663Y-110570789D01*
X145650408Y-110555063D01*
X145878663Y-110493903D01*
X146092830Y-110394035D01*
X146286401Y-110258495D01*
X146408329Y-110136566D01*
X146469648Y-110103084D01*
X146539340Y-110108068D01*
X146595274Y-110149939D01*
X146612189Y-110180917D01*
X146661202Y-110312328D01*
X146661206Y-110312335D01*
X146747452Y-110427544D01*
X146747455Y-110427547D01*
X146862664Y-110513793D01*
X146862671Y-110513797D01*
X146997517Y-110564091D01*
X146997516Y-110564091D01*
X147004444Y-110564835D01*
X147057127Y-110570500D01*
X148852872Y-110570499D01*
X148912483Y-110564091D01*
X149047331Y-110513796D01*
X149162546Y-110427546D01*
X149248796Y-110312331D01*
X149299091Y-110177483D01*
X149305500Y-110117873D01*
X149305499Y-108322128D01*
X149299091Y-108262517D01*
X149297810Y-108259083D01*
X149248797Y-108127671D01*
X149248793Y-108127664D01*
X149162547Y-108012455D01*
X149162544Y-108012452D01*
X149047335Y-107926206D01*
X149047328Y-107926202D01*
X148912482Y-107875908D01*
X148912483Y-107875908D01*
X148852883Y-107869501D01*
X148852881Y-107869500D01*
X148852873Y-107869500D01*
X148852864Y-107869500D01*
X147057129Y-107869500D01*
X147057123Y-107869501D01*
X146997516Y-107875908D01*
X146862671Y-107926202D01*
X146862664Y-107926206D01*
X146747455Y-108012452D01*
X146747452Y-108012455D01*
X146661206Y-108127664D01*
X146661203Y-108127669D01*
X146612189Y-108259083D01*
X146570317Y-108315016D01*
X146504853Y-108339433D01*
X146436580Y-108324581D01*
X146408326Y-108303430D01*
X146286402Y-108181506D01*
X146286395Y-108181501D01*
X146092834Y-108045967D01*
X146092830Y-108045965D01*
X146020970Y-108012456D01*
X145878663Y-107946097D01*
X145878659Y-107946096D01*
X145878655Y-107946094D01*
X145650413Y-107884938D01*
X145650403Y-107884936D01*
X145415001Y-107864341D01*
X145414999Y-107864341D01*
X145179596Y-107884936D01*
X145179586Y-107884938D01*
X144951344Y-107946094D01*
X144951335Y-107946098D01*
X144737171Y-108045964D01*
X144737169Y-108045965D01*
X144543597Y-108181505D01*
X144376505Y-108348597D01*
X144246575Y-108534158D01*
X144191998Y-108577783D01*
X144122500Y-108584977D01*
X144060145Y-108553454D01*
X144043425Y-108534158D01*
X143913494Y-108348597D01*
X143746402Y-108181506D01*
X143746395Y-108181501D01*
X143552834Y-108045967D01*
X143552830Y-108045965D01*
X143480970Y-108012456D01*
X143338663Y-107946097D01*
X143338659Y-107946096D01*
X143338655Y-107946094D01*
X143110413Y-107884938D01*
X143110403Y-107884936D01*
X142875001Y-107864341D01*
X142874999Y-107864341D01*
X142639596Y-107884936D01*
X142639586Y-107884938D01*
X142411344Y-107946094D01*
X142411335Y-107946098D01*
X142197171Y-108045964D01*
X142197169Y-108045965D01*
X142003597Y-108181505D01*
X141836505Y-108348597D01*
X141706575Y-108534158D01*
X141651998Y-108577783D01*
X141582500Y-108584977D01*
X141520145Y-108553454D01*
X141503425Y-108534158D01*
X141373494Y-108348597D01*
X141206402Y-108181506D01*
X141206395Y-108181501D01*
X141012834Y-108045967D01*
X141012830Y-108045965D01*
X140940970Y-108012456D01*
X140798663Y-107946097D01*
X140798659Y-107946096D01*
X140798655Y-107946094D01*
X140570413Y-107884938D01*
X140570403Y-107884936D01*
X140335001Y-107864341D01*
X140334999Y-107864341D01*
X140099596Y-107884936D01*
X140099586Y-107884938D01*
X139971243Y-107919327D01*
X139901393Y-107917664D01*
X139851469Y-107887233D01*
X136872146Y-104907910D01*
X136838661Y-104846587D01*
X136843645Y-104776895D01*
X136885517Y-104720962D01*
X136950981Y-104696545D01*
X137000781Y-104703186D01*
X137051580Y-104720962D01*
X137072745Y-104728368D01*
X137072750Y-104728369D01*
X137251996Y-104748565D01*
X137252000Y-104748565D01*
X137252004Y-104748565D01*
X137431249Y-104728369D01*
X137431252Y-104728368D01*
X137431255Y-104728368D01*
X137601522Y-104668789D01*
X137754262Y-104572816D01*
X137881816Y-104445262D01*
X137977789Y-104292522D01*
X138016060Y-104183147D01*
X138056782Y-104126372D01*
X138092146Y-104107060D01*
X138201522Y-104068789D01*
X138354262Y-103972816D01*
X138437078Y-103890000D01*
X152323096Y-103890000D01*
X153124012Y-103890000D01*
X153106795Y-103899940D01*
X153050940Y-103955795D01*
X153011444Y-104024204D01*
X152991000Y-104100504D01*
X152991000Y-104179496D01*
X153011444Y-104255796D01*
X153050940Y-104324205D01*
X153106795Y-104380060D01*
X153124012Y-104390000D01*
X152323096Y-104390000D01*
X152325584Y-104402516D01*
X152325587Y-104402523D01*
X152393428Y-104566306D01*
X152393433Y-104566316D01*
X152491923Y-104713716D01*
X152491926Y-104713720D01*
X152617279Y-104839073D01*
X152617283Y-104839076D01*
X152764683Y-104937566D01*
X152764692Y-104937571D01*
X152928479Y-105005413D01*
X152928487Y-105005415D01*
X153102353Y-105039999D01*
X153102357Y-105040000D01*
X153341000Y-105040000D01*
X153341000Y-104440000D01*
X153841000Y-104440000D01*
X153841000Y-105040000D01*
X154079643Y-105040000D01*
X154079646Y-105039999D01*
X154253512Y-105005415D01*
X154253520Y-105005413D01*
X154417307Y-104937571D01*
X154417316Y-104937566D01*
X154564716Y-104839076D01*
X154564720Y-104839073D01*
X154690073Y-104713720D01*
X154690076Y-104713716D01*
X154788566Y-104566316D01*
X154788571Y-104566306D01*
X154856412Y-104402523D01*
X154856415Y-104402516D01*
X154858904Y-104390000D01*
X154057988Y-104390000D01*
X154075205Y-104380060D01*
X154131060Y-104324205D01*
X154170556Y-104255796D01*
X154191000Y-104179496D01*
X154191000Y-104100504D01*
X154170556Y-104024204D01*
X154131060Y-103955795D01*
X154075205Y-103899940D01*
X154057988Y-103890000D01*
X154858904Y-103890000D01*
X156123096Y-103890000D01*
X156924012Y-103890000D01*
X156906795Y-103899940D01*
X156850940Y-103955795D01*
X156811444Y-104024204D01*
X156791000Y-104100504D01*
X156791000Y-104179496D01*
X156811444Y-104255796D01*
X156850940Y-104324205D01*
X156906795Y-104380060D01*
X156924012Y-104390000D01*
X156123096Y-104390000D01*
X156125584Y-104402516D01*
X156125587Y-104402523D01*
X156193428Y-104566306D01*
X156193433Y-104566316D01*
X156291923Y-104713716D01*
X156291926Y-104713720D01*
X156417279Y-104839073D01*
X156417283Y-104839076D01*
X156564683Y-104937566D01*
X156564692Y-104937571D01*
X156728479Y-105005413D01*
X156728487Y-105005415D01*
X156902353Y-105039999D01*
X156902357Y-105040000D01*
X157141000Y-105040000D01*
X157141000Y-104440000D01*
X157641000Y-104440000D01*
X157641000Y-105040000D01*
X157879643Y-105040000D01*
X157879646Y-105039999D01*
X158053512Y-105005415D01*
X158053520Y-105005413D01*
X158217307Y-104937571D01*
X158217316Y-104937566D01*
X158364716Y-104839076D01*
X158364720Y-104839073D01*
X158490073Y-104713720D01*
X158490076Y-104713716D01*
X158588566Y-104566316D01*
X158588571Y-104566306D01*
X158656412Y-104402523D01*
X158656415Y-104402516D01*
X158658904Y-104390000D01*
X157857988Y-104390000D01*
X157875205Y-104380060D01*
X157931060Y-104324205D01*
X157970556Y-104255796D01*
X157991000Y-104179496D01*
X157991000Y-104100504D01*
X157970556Y-104024204D01*
X157931060Y-103955795D01*
X157875205Y-103899940D01*
X157857988Y-103890000D01*
X158658904Y-103890000D01*
X158656415Y-103877483D01*
X158656412Y-103877476D01*
X158588571Y-103713693D01*
X158588566Y-103713683D01*
X158490076Y-103566283D01*
X158490073Y-103566279D01*
X158364720Y-103440926D01*
X158364716Y-103440923D01*
X158217316Y-103342433D01*
X158217307Y-103342428D01*
X158053520Y-103274586D01*
X158053512Y-103274584D01*
X157879646Y-103240000D01*
X157641000Y-103240000D01*
X157641000Y-103840000D01*
X157141000Y-103840000D01*
X157141000Y-103240000D01*
X156902353Y-103240000D01*
X156728487Y-103274584D01*
X156728479Y-103274586D01*
X156564692Y-103342428D01*
X156564683Y-103342433D01*
X156417283Y-103440923D01*
X156417279Y-103440926D01*
X156291926Y-103566279D01*
X156291923Y-103566283D01*
X156193433Y-103713683D01*
X156193428Y-103713693D01*
X156125587Y-103877476D01*
X156125584Y-103877483D01*
X156123096Y-103890000D01*
X154858904Y-103890000D01*
X154856415Y-103877483D01*
X154856412Y-103877476D01*
X154788571Y-103713693D01*
X154788566Y-103713683D01*
X154690076Y-103566283D01*
X154690073Y-103566279D01*
X154564720Y-103440926D01*
X154564716Y-103440923D01*
X154417316Y-103342433D01*
X154417307Y-103342428D01*
X154253520Y-103274586D01*
X154253512Y-103274584D01*
X154079646Y-103240000D01*
X153841000Y-103240000D01*
X153841000Y-103840000D01*
X153341000Y-103840000D01*
X153341000Y-103240000D01*
X153102353Y-103240000D01*
X152928487Y-103274584D01*
X152928479Y-103274586D01*
X152764692Y-103342428D01*
X152764683Y-103342433D01*
X152617283Y-103440923D01*
X152617279Y-103440926D01*
X152491926Y-103566279D01*
X152491923Y-103566283D01*
X152393433Y-103713683D01*
X152393428Y-103713693D01*
X152325587Y-103877476D01*
X152325584Y-103877483D01*
X152323096Y-103890000D01*
X138437078Y-103890000D01*
X138481816Y-103845262D01*
X138577789Y-103692522D01*
X138637368Y-103522255D01*
X138646196Y-103443906D01*
X138657565Y-103343003D01*
X138657565Y-103342996D01*
X138637369Y-103163750D01*
X138637368Y-103163745D01*
X138577788Y-102993476D01*
X138481813Y-102840734D01*
X138479550Y-102837896D01*
X138478659Y-102835715D01*
X138478111Y-102834842D01*
X138478264Y-102834745D01*
X138453144Y-102773209D01*
X138452500Y-102760587D01*
X138452500Y-102595486D01*
X138472185Y-102528447D01*
X138524989Y-102482692D01*
X138594147Y-102472748D01*
X138617455Y-102478445D01*
X138776276Y-102534019D01*
X138776282Y-102534020D01*
X138776284Y-102534021D01*
X138776285Y-102534021D01*
X138776289Y-102534022D01*
X138955535Y-102554218D01*
X138955539Y-102554218D01*
X138955543Y-102554218D01*
X139134788Y-102534022D01*
X139134791Y-102534021D01*
X139134794Y-102534021D01*
X139305061Y-102474442D01*
X139457801Y-102378469D01*
X139585355Y-102250915D01*
X139681328Y-102098175D01*
X139740907Y-101927908D01*
X139761104Y-101748653D01*
X139740907Y-101569398D01*
X139740906Y-101569396D01*
X139740905Y-101569390D01*
X139681329Y-101399133D01*
X139671505Y-101383497D01*
X139652500Y-101317527D01*
X139652500Y-98599469D01*
X139672185Y-98532430D01*
X139688819Y-98511788D01*
X142950607Y-95250000D01*
X152323096Y-95250000D01*
X153124012Y-95250000D01*
X153106795Y-95259940D01*
X153050940Y-95315795D01*
X153011444Y-95384204D01*
X152991000Y-95460504D01*
X152991000Y-95539496D01*
X153011444Y-95615796D01*
X153050940Y-95684205D01*
X153106795Y-95740060D01*
X153124012Y-95750000D01*
X152323096Y-95750000D01*
X152325584Y-95762516D01*
X152325587Y-95762523D01*
X152393428Y-95926306D01*
X152393433Y-95926316D01*
X152491923Y-96073716D01*
X152491926Y-96073720D01*
X152617279Y-96199073D01*
X152617283Y-96199076D01*
X152764683Y-96297566D01*
X152764692Y-96297571D01*
X152928479Y-96365413D01*
X152928487Y-96365415D01*
X153102353Y-96399999D01*
X153102357Y-96400000D01*
X153341000Y-96400000D01*
X153341000Y-95800000D01*
X153841000Y-95800000D01*
X153841000Y-96400000D01*
X154079643Y-96400000D01*
X154079646Y-96399999D01*
X154253512Y-96365415D01*
X154253520Y-96365413D01*
X154417307Y-96297571D01*
X154417316Y-96297566D01*
X154564716Y-96199076D01*
X154564720Y-96199073D01*
X154690073Y-96073720D01*
X154690076Y-96073716D01*
X154788566Y-95926316D01*
X154788571Y-95926306D01*
X154856412Y-95762523D01*
X154856415Y-95762516D01*
X154858904Y-95750000D01*
X154057988Y-95750000D01*
X154075205Y-95740060D01*
X154131060Y-95684205D01*
X154170556Y-95615796D01*
X154191000Y-95539496D01*
X154191000Y-95460504D01*
X154170556Y-95384204D01*
X154131060Y-95315795D01*
X154075205Y-95259940D01*
X154057988Y-95250000D01*
X154858904Y-95250000D01*
X156123096Y-95250000D01*
X156924012Y-95250000D01*
X156906795Y-95259940D01*
X156850940Y-95315795D01*
X156811444Y-95384204D01*
X156791000Y-95460504D01*
X156791000Y-95539496D01*
X156811444Y-95615796D01*
X156850940Y-95684205D01*
X156906795Y-95740060D01*
X156924012Y-95750000D01*
X156123096Y-95750000D01*
X156125584Y-95762516D01*
X156125587Y-95762523D01*
X156193428Y-95926306D01*
X156193433Y-95926316D01*
X156291923Y-96073716D01*
X156291926Y-96073720D01*
X156417279Y-96199073D01*
X156417283Y-96199076D01*
X156564683Y-96297566D01*
X156564692Y-96297571D01*
X156728479Y-96365413D01*
X156728487Y-96365415D01*
X156902353Y-96399999D01*
X156902357Y-96400000D01*
X157141000Y-96400000D01*
X157141000Y-95800000D01*
X157641000Y-95800000D01*
X157641000Y-96400000D01*
X157879643Y-96400000D01*
X157879646Y-96399999D01*
X158053512Y-96365415D01*
X158053520Y-96365413D01*
X158217307Y-96297571D01*
X158217316Y-96297566D01*
X158364716Y-96199076D01*
X158364720Y-96199073D01*
X158490073Y-96073720D01*
X158490076Y-96073716D01*
X158588566Y-95926316D01*
X158588571Y-95926306D01*
X158656412Y-95762523D01*
X158656415Y-95762516D01*
X158658904Y-95750000D01*
X157857988Y-95750000D01*
X157875205Y-95740060D01*
X157931060Y-95684205D01*
X157970556Y-95615796D01*
X157991000Y-95539496D01*
X157991000Y-95460504D01*
X157970556Y-95384204D01*
X157931060Y-95315795D01*
X157875205Y-95259940D01*
X157857988Y-95250000D01*
X158658904Y-95250000D01*
X158656415Y-95237483D01*
X158656412Y-95237476D01*
X158588571Y-95073693D01*
X158588566Y-95073683D01*
X158490076Y-94926283D01*
X158490073Y-94926279D01*
X158364720Y-94800926D01*
X158364716Y-94800923D01*
X158217316Y-94702433D01*
X158217307Y-94702428D01*
X158053520Y-94634586D01*
X158053512Y-94634584D01*
X157879646Y-94600000D01*
X157641000Y-94600000D01*
X157641000Y-95200000D01*
X157141000Y-95200000D01*
X157141000Y-94600000D01*
X156902353Y-94600000D01*
X156728487Y-94634584D01*
X156728479Y-94634586D01*
X156564692Y-94702428D01*
X156564683Y-94702433D01*
X156417283Y-94800923D01*
X156417279Y-94800926D01*
X156291926Y-94926279D01*
X156291923Y-94926283D01*
X156193433Y-95073683D01*
X156193428Y-95073693D01*
X156125587Y-95237476D01*
X156125584Y-95237483D01*
X156123096Y-95250000D01*
X154858904Y-95250000D01*
X154856415Y-95237483D01*
X154856412Y-95237476D01*
X154788571Y-95073693D01*
X154788566Y-95073683D01*
X154690076Y-94926283D01*
X154690073Y-94926279D01*
X154564720Y-94800926D01*
X154564716Y-94800923D01*
X154417316Y-94702433D01*
X154417307Y-94702428D01*
X154253520Y-94634586D01*
X154253512Y-94634584D01*
X154079646Y-94600000D01*
X153841000Y-94600000D01*
X153841000Y-95200000D01*
X153341000Y-95200000D01*
X153341000Y-94600000D01*
X153102353Y-94600000D01*
X152928487Y-94634584D01*
X152928479Y-94634586D01*
X152764692Y-94702428D01*
X152764683Y-94702433D01*
X152617283Y-94800923D01*
X152617279Y-94800926D01*
X152491926Y-94926279D01*
X152491923Y-94926283D01*
X152393433Y-95073683D01*
X152393428Y-95073693D01*
X152325587Y-95237476D01*
X152325584Y-95237483D01*
X152323096Y-95250000D01*
X142950607Y-95250000D01*
X148433788Y-89766819D01*
X148495111Y-89733334D01*
X148521469Y-89730500D01*
X152083331Y-89730500D01*
X152083347Y-89730501D01*
X152090943Y-89730501D01*
X152249054Y-89730501D01*
X152249057Y-89730501D01*
X152401785Y-89689577D01*
X152451904Y-89660639D01*
X152538716Y-89610520D01*
X152650520Y-89498716D01*
X152650520Y-89498714D01*
X152660728Y-89488507D01*
X152660730Y-89488504D01*
X153227294Y-88921939D01*
X153288615Y-88888456D01*
X153347066Y-88889847D01*
X153366604Y-88895082D01*
X153443308Y-88915635D01*
X153605230Y-88929801D01*
X153669998Y-88935468D01*
X153670000Y-88935468D01*
X153670002Y-88935468D01*
X153726807Y-88930498D01*
X153896692Y-88915635D01*
X154116496Y-88856739D01*
X154322734Y-88760568D01*
X154509139Y-88630047D01*
X154670047Y-88469139D01*
X154800568Y-88282734D01*
X154827618Y-88224724D01*
X154873790Y-88172285D01*
X154940983Y-88153133D01*
X155007865Y-88173348D01*
X155052382Y-88224725D01*
X155079429Y-88282728D01*
X155079432Y-88282734D01*
X155209954Y-88469141D01*
X155370858Y-88630045D01*
X155370861Y-88630047D01*
X155557266Y-88760568D01*
X155763504Y-88856739D01*
X155763509Y-88856740D01*
X155763511Y-88856741D01*
X155816415Y-88870916D01*
X155983308Y-88915635D01*
X156145230Y-88929801D01*
X156209998Y-88935468D01*
X156210000Y-88935468D01*
X156210002Y-88935468D01*
X156266807Y-88930498D01*
X156436692Y-88915635D01*
X156656496Y-88856739D01*
X156862734Y-88760568D01*
X157049139Y-88630047D01*
X157210047Y-88469139D01*
X157340568Y-88282734D01*
X157436739Y-88076496D01*
X157495635Y-87856692D01*
X157515468Y-87630000D01*
X157514393Y-87617717D01*
X157495635Y-87403313D01*
X157495635Y-87403308D01*
X157436739Y-87183504D01*
X157340568Y-86977266D01*
X157210047Y-86790861D01*
X157210045Y-86790858D01*
X157049141Y-86629954D01*
X156862734Y-86499432D01*
X156862732Y-86499431D01*
X156656497Y-86403261D01*
X156656488Y-86403258D01*
X156436697Y-86344366D01*
X156436693Y-86344365D01*
X156436692Y-86344365D01*
X156436691Y-86344364D01*
X156436686Y-86344364D01*
X156210002Y-86324532D01*
X156209998Y-86324532D01*
X155983313Y-86344364D01*
X155983302Y-86344366D01*
X155887067Y-86370152D01*
X155817217Y-86368489D01*
X155767293Y-86338058D01*
X150666819Y-81237584D01*
X150633334Y-81176261D01*
X150630500Y-81149903D01*
X150630500Y-73764136D01*
X150650185Y-73697097D01*
X150702989Y-73651342D01*
X150772147Y-73641398D01*
X150786582Y-73644358D01*
X150903308Y-73675635D01*
X151047144Y-73688219D01*
X151129998Y-73695468D01*
X151130000Y-73695468D01*
X151130002Y-73695468D01*
X151186673Y-73690509D01*
X151356692Y-73675635D01*
X151576496Y-73616739D01*
X151782734Y-73520568D01*
X151969139Y-73390047D01*
X152130047Y-73229139D01*
X152260568Y-73042734D01*
X152287618Y-72984724D01*
X152333790Y-72932285D01*
X152400983Y-72913133D01*
X152467865Y-72933348D01*
X152512382Y-72984725D01*
X152539429Y-73042728D01*
X152539432Y-73042734D01*
X152669954Y-73229141D01*
X152830858Y-73390045D01*
X152830861Y-73390047D01*
X153017266Y-73520568D01*
X153223504Y-73616739D01*
X153223509Y-73616740D01*
X153223511Y-73616741D01*
X153276415Y-73630916D01*
X153443308Y-73675635D01*
X153587144Y-73688219D01*
X153669998Y-73695468D01*
X153670000Y-73695468D01*
X153670002Y-73695468D01*
X153726673Y-73690509D01*
X153896692Y-73675635D01*
X154116496Y-73616739D01*
X154322734Y-73520568D01*
X154509139Y-73390047D01*
X154670047Y-73229139D01*
X154800568Y-73042734D01*
X154827618Y-72984724D01*
X154873790Y-72932285D01*
X154940983Y-72913133D01*
X155007865Y-72933348D01*
X155052382Y-72984725D01*
X155079429Y-73042728D01*
X155079432Y-73042734D01*
X155209954Y-73229141D01*
X155370858Y-73390045D01*
X155370861Y-73390047D01*
X155557266Y-73520568D01*
X155763504Y-73616739D01*
X155763509Y-73616740D01*
X155763511Y-73616741D01*
X155816415Y-73630916D01*
X155983308Y-73675635D01*
X156127144Y-73688219D01*
X156209998Y-73695468D01*
X156210000Y-73695468D01*
X156210002Y-73695468D01*
X156266673Y-73690509D01*
X156436692Y-73675635D01*
X156656496Y-73616739D01*
X156862734Y-73520568D01*
X157049139Y-73390047D01*
X157210047Y-73229139D01*
X157340568Y-73042734D01*
X157436739Y-72836496D01*
X157495635Y-72616692D01*
X157515468Y-72390000D01*
X157495635Y-72163308D01*
X157436739Y-71943504D01*
X157340568Y-71737266D01*
X157210047Y-71550861D01*
X157210045Y-71550858D01*
X157049141Y-71389954D01*
X156862734Y-71259432D01*
X156862732Y-71259431D01*
X156656497Y-71163261D01*
X156656488Y-71163258D01*
X156436697Y-71104366D01*
X156436693Y-71104365D01*
X156436692Y-71104365D01*
X156436691Y-71104364D01*
X156436686Y-71104364D01*
X156210002Y-71084532D01*
X156209998Y-71084532D01*
X155983313Y-71104364D01*
X155983302Y-71104366D01*
X155763511Y-71163258D01*
X155763502Y-71163261D01*
X155557267Y-71259431D01*
X155557265Y-71259432D01*
X155370858Y-71389954D01*
X155209954Y-71550858D01*
X155079432Y-71737265D01*
X155079431Y-71737267D01*
X155052382Y-71795275D01*
X155006209Y-71847714D01*
X154939016Y-71866866D01*
X154872135Y-71846650D01*
X154827618Y-71795275D01*
X154800686Y-71737520D01*
X154800568Y-71737266D01*
X154676797Y-71560501D01*
X154670048Y-71550862D01*
X154670044Y-71550858D01*
X154509139Y-71389953D01*
X154504373Y-71386615D01*
X154473375Y-71364910D01*
X154429751Y-71310332D01*
X154420500Y-71263336D01*
X154420500Y-69776079D01*
X154391659Y-69631092D01*
X154391658Y-69631091D01*
X154391658Y-69631087D01*
X154391656Y-69631082D01*
X154335087Y-69494511D01*
X154335080Y-69494498D01*
X154252952Y-69371585D01*
X154252951Y-69371584D01*
X154148416Y-69267049D01*
X152314521Y-67433154D01*
X149881368Y-65000000D01*
X151794958Y-65000000D01*
X151815110Y-65358846D01*
X151815112Y-65358858D01*
X151875314Y-65713185D01*
X151875316Y-65713194D01*
X151974812Y-66058552D01*
X152112353Y-66390609D01*
X152112355Y-66390613D01*
X152286215Y-66705189D01*
X152286218Y-66705194D01*
X152494193Y-66998306D01*
X152566844Y-67079601D01*
X153884728Y-65761717D01*
X153970278Y-65879466D01*
X154120534Y-66029722D01*
X154238281Y-66115270D01*
X152920397Y-67433154D01*
X153001693Y-67505806D01*
X153294805Y-67713781D01*
X153294810Y-67713784D01*
X153609386Y-67887644D01*
X153609390Y-67887646D01*
X153941447Y-68025187D01*
X154286805Y-68124683D01*
X154286814Y-68124685D01*
X154641141Y-68184887D01*
X154641153Y-68184889D01*
X155000000Y-68205041D01*
X155358846Y-68184889D01*
X155358858Y-68184887D01*
X155713185Y-68124685D01*
X155713194Y-68124683D01*
X156058552Y-68025187D01*
X156390609Y-67887646D01*
X156390613Y-67887644D01*
X156705189Y-67713784D01*
X156705194Y-67713781D01*
X156998299Y-67505811D01*
X156998322Y-67505793D01*
X157079602Y-67433155D01*
X157079602Y-67433154D01*
X155761718Y-66115270D01*
X155879466Y-66029722D01*
X156029722Y-65879466D01*
X156115270Y-65761718D01*
X157433154Y-67079602D01*
X157433155Y-67079602D01*
X157505793Y-66998322D01*
X157505811Y-66998299D01*
X157713781Y-66705194D01*
X157713784Y-66705189D01*
X157887644Y-66390613D01*
X157887646Y-66390609D01*
X158025187Y-66058552D01*
X158124683Y-65713194D01*
X158124685Y-65713185D01*
X158184887Y-65358858D01*
X158184889Y-65358846D01*
X158205041Y-65000000D01*
X158184889Y-64641153D01*
X158184887Y-64641141D01*
X158124685Y-64286814D01*
X158124683Y-64286805D01*
X158025187Y-63941447D01*
X157887646Y-63609390D01*
X157887644Y-63609386D01*
X157713784Y-63294810D01*
X157713781Y-63294805D01*
X157505806Y-63001693D01*
X157433154Y-62920397D01*
X156115270Y-64238281D01*
X156029722Y-64120534D01*
X155879466Y-63970278D01*
X155761717Y-63884729D01*
X157079601Y-62566844D01*
X157079602Y-62566844D01*
X156998306Y-62494193D01*
X156705194Y-62286218D01*
X156705189Y-62286215D01*
X156390613Y-62112355D01*
X156390609Y-62112353D01*
X156058552Y-61974812D01*
X155713194Y-61875316D01*
X155713185Y-61875314D01*
X155358858Y-61815112D01*
X155358846Y-61815110D01*
X155000000Y-61794958D01*
X154641153Y-61815110D01*
X154641141Y-61815112D01*
X154286814Y-61875314D01*
X154286805Y-61875316D01*
X153941447Y-61974812D01*
X153609390Y-62112353D01*
X153609386Y-62112355D01*
X153294810Y-62286215D01*
X153294805Y-62286218D01*
X153001693Y-62494193D01*
X152920397Y-62566844D01*
X154238282Y-63884729D01*
X154120534Y-63970278D01*
X153970278Y-64120534D01*
X153884729Y-64238282D01*
X152566844Y-62920397D01*
X152494193Y-63001693D01*
X152286218Y-63294805D01*
X152286215Y-63294810D01*
X152112355Y-63609386D01*
X152112353Y-63609390D01*
X151974812Y-63941447D01*
X151875316Y-64286805D01*
X151875314Y-64286814D01*
X151815112Y-64641141D01*
X151815110Y-64641153D01*
X151794958Y-65000000D01*
X149881368Y-65000000D01*
X146528421Y-61647052D01*
X146528414Y-61647046D01*
X146454729Y-61597812D01*
X146454729Y-61597813D01*
X146405491Y-61564913D01*
X146268917Y-61508343D01*
X146268907Y-61508340D01*
X146123920Y-61479500D01*
X146123918Y-61479500D01*
X91366082Y-61479500D01*
X91366080Y-61479500D01*
X91221092Y-61508340D01*
X91221082Y-61508343D01*
X91084511Y-61564912D01*
X91084498Y-61564919D01*
X90961584Y-61647048D01*
X90961580Y-61647051D01*
X89211500Y-63397130D01*
X89150177Y-63430615D01*
X89113012Y-63432977D01*
X88900002Y-63414341D01*
X88899999Y-63414341D01*
X88664596Y-63434936D01*
X88664586Y-63434938D01*
X88436344Y-63496094D01*
X88436335Y-63496098D01*
X88222171Y-63595964D01*
X88222169Y-63595965D01*
X88028600Y-63731503D01*
X87906284Y-63853819D01*
X87844961Y-63887303D01*
X87775269Y-63882319D01*
X87719336Y-63840447D01*
X87702421Y-63809470D01*
X87653354Y-63677913D01*
X87653350Y-63677906D01*
X87567190Y-63562812D01*
X87567187Y-63562809D01*
X87452093Y-63476649D01*
X87452086Y-63476645D01*
X87317379Y-63426403D01*
X87317372Y-63426401D01*
X87257844Y-63420000D01*
X86610000Y-63420000D01*
X86610000Y-64336988D01*
X86552993Y-64304075D01*
X86425826Y-64270000D01*
X86294174Y-64270000D01*
X86167007Y-64304075D01*
X86110000Y-64336988D01*
X86110000Y-63420000D01*
X85462155Y-63420000D01*
X85402627Y-63426401D01*
X85402620Y-63426403D01*
X85267913Y-63476645D01*
X85267906Y-63476649D01*
X85152812Y-63562809D01*
X85152809Y-63562812D01*
X85066649Y-63677906D01*
X85066645Y-63677913D01*
X85016403Y-63812620D01*
X85016401Y-63812627D01*
X85010000Y-63872155D01*
X85010000Y-64520000D01*
X85926988Y-64520000D01*
X85894075Y-64577007D01*
X85860000Y-64704174D01*
X85860000Y-64835826D01*
X85894075Y-64962993D01*
X85926988Y-65020000D01*
X85010000Y-65020000D01*
X85010000Y-65667844D01*
X85016401Y-65727372D01*
X85016403Y-65727379D01*
X85066645Y-65862086D01*
X85066649Y-65862093D01*
X85152809Y-65977187D01*
X85152812Y-65977190D01*
X85267906Y-66063350D01*
X85267913Y-66063354D01*
X85402620Y-66113596D01*
X85402627Y-66113598D01*
X85462155Y-66119999D01*
X85462172Y-66120000D01*
X86110000Y-66120000D01*
X86110000Y-65203012D01*
X86167007Y-65235925D01*
X86294174Y-65270000D01*
X86425826Y-65270000D01*
X86552993Y-65235925D01*
X86610000Y-65203012D01*
X86610000Y-66120000D01*
X87257828Y-66120000D01*
X87257844Y-66119999D01*
X87317372Y-66113598D01*
X87317379Y-66113596D01*
X87452086Y-66063354D01*
X87452093Y-66063350D01*
X87567187Y-65977190D01*
X87567190Y-65977187D01*
X87653350Y-65862093D01*
X87653354Y-65862086D01*
X87702422Y-65730529D01*
X87744293Y-65674595D01*
X87809757Y-65650178D01*
X87878030Y-65665030D01*
X87906282Y-65686178D01*
X88028599Y-65808495D01*
X88096623Y-65856125D01*
X88140248Y-65910701D01*
X88149500Y-65957700D01*
X88149500Y-72463918D01*
X88149500Y-72463920D01*
X88149499Y-72463920D01*
X88178340Y-72608907D01*
X88178343Y-72608917D01*
X88234912Y-72745488D01*
X88234915Y-72745494D01*
X88234916Y-72745495D01*
X88243748Y-72758713D01*
X88243749Y-72758716D01*
X88317046Y-72868414D01*
X88317052Y-72868421D01*
X91365047Y-75916415D01*
X91398532Y-75977738D01*
X91393548Y-76047430D01*
X91351676Y-76103363D01*
X91288174Y-76127624D01*
X91204596Y-76134936D01*
X91204586Y-76134938D01*
X90976344Y-76196094D01*
X90976335Y-76196098D01*
X90762171Y-76295964D01*
X90762169Y-76295965D01*
X90568597Y-76431505D01*
X90401505Y-76598597D01*
X90271575Y-76784158D01*
X90216998Y-76827783D01*
X90147500Y-76834977D01*
X90085145Y-76803454D01*
X90068425Y-76784158D01*
X89938494Y-76598597D01*
X89771402Y-76431506D01*
X89771395Y-76431501D01*
X89577834Y-76295967D01*
X89577830Y-76295965D01*
X89498940Y-76259178D01*
X89363663Y-76196097D01*
X89363659Y-76196096D01*
X89363655Y-76196094D01*
X89135413Y-76134938D01*
X89135403Y-76134936D01*
X88900001Y-76114341D01*
X88899999Y-76114341D01*
X88664596Y-76134936D01*
X88664586Y-76134938D01*
X88436344Y-76196094D01*
X88436335Y-76196098D01*
X88222171Y-76295964D01*
X88222169Y-76295965D01*
X88028597Y-76431505D01*
X87861505Y-76598597D01*
X87731575Y-76784158D01*
X87676998Y-76827783D01*
X87607500Y-76834977D01*
X87545145Y-76803454D01*
X87528425Y-76784158D01*
X87398494Y-76598597D01*
X87231402Y-76431506D01*
X87231395Y-76431501D01*
X87037834Y-76295967D01*
X87037830Y-76295965D01*
X86958940Y-76259178D01*
X86823663Y-76196097D01*
X86823659Y-76196096D01*
X86823655Y-76196094D01*
X86595413Y-76134938D01*
X86595403Y-76134936D01*
X86360001Y-76114341D01*
X86359999Y-76114341D01*
X86124596Y-76134936D01*
X86124586Y-76134938D01*
X85896344Y-76196094D01*
X85896335Y-76196098D01*
X85682171Y-76295964D01*
X85682169Y-76295965D01*
X85488597Y-76431505D01*
X85321505Y-76598597D01*
X85185965Y-76792169D01*
X85185964Y-76792171D01*
X85086098Y-77006335D01*
X85086094Y-77006344D01*
X85024938Y-77234586D01*
X85024936Y-77234596D01*
X85004341Y-77469999D01*
X85004341Y-77470000D01*
X85024936Y-77705403D01*
X85024938Y-77705413D01*
X85086094Y-77933655D01*
X85086096Y-77933659D01*
X85086097Y-77933663D01*
X85166004Y-78105023D01*
X85185965Y-78147830D01*
X85185967Y-78147834D01*
X85228538Y-78208631D01*
X85321505Y-78341401D01*
X85488599Y-78508495D01*
X85565135Y-78562086D01*
X85682165Y-78644032D01*
X85682167Y-78644033D01*
X85682170Y-78644035D01*
X85896337Y-78743903D01*
X86124592Y-78805063D01*
X86295319Y-78820000D01*
X86359999Y-78825659D01*
X86360000Y-78825659D01*
X86360001Y-78825659D01*
X86424681Y-78820000D01*
X86595408Y-78805063D01*
X86823663Y-78743903D01*
X87037830Y-78644035D01*
X87231401Y-78508495D01*
X87398495Y-78341401D01*
X87528425Y-78155842D01*
X87583002Y-78112217D01*
X87652500Y-78105023D01*
X87714855Y-78136546D01*
X87731575Y-78155842D01*
X87861500Y-78341395D01*
X87861505Y-78341401D01*
X88028599Y-78508495D01*
X88105135Y-78562086D01*
X88222165Y-78644032D01*
X88222167Y-78644033D01*
X88222170Y-78644035D01*
X88436337Y-78743903D01*
X88664592Y-78805063D01*
X88835319Y-78820000D01*
X88899999Y-78825659D01*
X88900000Y-78825659D01*
X88900001Y-78825659D01*
X88964681Y-78820000D01*
X89135408Y-78805063D01*
X89363663Y-78743903D01*
X89577830Y-78644035D01*
X89771401Y-78508495D01*
X89938495Y-78341401D01*
X90068425Y-78155842D01*
X90123002Y-78112217D01*
X90192500Y-78105023D01*
X90254855Y-78136546D01*
X90271575Y-78155842D01*
X90401500Y-78341395D01*
X90401505Y-78341401D01*
X90568599Y-78508495D01*
X90645135Y-78562086D01*
X90762165Y-78644032D01*
X90762167Y-78644033D01*
X90762170Y-78644035D01*
X90976337Y-78743903D01*
X91204592Y-78805063D01*
X91288173Y-78812375D01*
X91353241Y-78837827D01*
X91394220Y-78894418D01*
X91398098Y-78964180D01*
X91365046Y-79023584D01*
X89211500Y-81177130D01*
X89150177Y-81210615D01*
X89113012Y-81212977D01*
X88900002Y-81194341D01*
X88899999Y-81194341D01*
X88664596Y-81214936D01*
X88664586Y-81214938D01*
X88436344Y-81276094D01*
X88436335Y-81276098D01*
X88222171Y-81375964D01*
X88222169Y-81375965D01*
X88028600Y-81511503D01*
X87906284Y-81633819D01*
X87844961Y-81667303D01*
X87775269Y-81662319D01*
X87719336Y-81620447D01*
X87702421Y-81589470D01*
X87653354Y-81457913D01*
X87653350Y-81457906D01*
X87567190Y-81342812D01*
X87567187Y-81342809D01*
X87452093Y-81256649D01*
X87452086Y-81256645D01*
X87317379Y-81206403D01*
X87317372Y-81206401D01*
X87257844Y-81200000D01*
X86610000Y-81200000D01*
X86610000Y-82116988D01*
X86552993Y-82084075D01*
X86425826Y-82050000D01*
X86294174Y-82050000D01*
X86167007Y-82084075D01*
X86110000Y-82116988D01*
X86110000Y-81200000D01*
X85462155Y-81200000D01*
X85402627Y-81206401D01*
X85402620Y-81206403D01*
X85267913Y-81256645D01*
X85267906Y-81256649D01*
X85152812Y-81342809D01*
X85152809Y-81342812D01*
X85066649Y-81457906D01*
X85066645Y-81457913D01*
X85016403Y-81592620D01*
X85016401Y-81592627D01*
X85010000Y-81652155D01*
X85010000Y-82300000D01*
X85926988Y-82300000D01*
X85894075Y-82357007D01*
X85860000Y-82484174D01*
X85860000Y-82615826D01*
X85894075Y-82742993D01*
X85926988Y-82800000D01*
X85010000Y-82800000D01*
X85010000Y-83447844D01*
X85016401Y-83507372D01*
X85016403Y-83507379D01*
X85066645Y-83642086D01*
X85066649Y-83642093D01*
X85152809Y-83757187D01*
X85152812Y-83757190D01*
X85267906Y-83843350D01*
X85267913Y-83843354D01*
X85402620Y-83893596D01*
X85402627Y-83893598D01*
X85462155Y-83899999D01*
X85462172Y-83900000D01*
X86110000Y-83900000D01*
X86110000Y-82983012D01*
X86167007Y-83015925D01*
X86294174Y-83050000D01*
X86425826Y-83050000D01*
X86552993Y-83015925D01*
X86610000Y-82983012D01*
X86610000Y-83900000D01*
X87257828Y-83900000D01*
X87257844Y-83899999D01*
X87317372Y-83893598D01*
X87317379Y-83893596D01*
X87452086Y-83843354D01*
X87452093Y-83843350D01*
X87567187Y-83757190D01*
X87567190Y-83757187D01*
X87653350Y-83642093D01*
X87653354Y-83642086D01*
X87702422Y-83510529D01*
X87744293Y-83454595D01*
X87809757Y-83430178D01*
X87878030Y-83445030D01*
X87906282Y-83466178D01*
X88028599Y-83588495D01*
X88096623Y-83636125D01*
X88140248Y-83690701D01*
X88149500Y-83737700D01*
X88149500Y-85642819D01*
X88129815Y-85709858D01*
X88113181Y-85730500D01*
X82345050Y-91498630D01*
X82345044Y-91498638D01*
X82295812Y-91572318D01*
X82295813Y-91572319D01*
X82262921Y-91621546D01*
X82262914Y-91621558D01*
X82206342Y-91758136D01*
X82206340Y-91758142D01*
X82177500Y-91903129D01*
X82177500Y-91903132D01*
X82177500Y-98596868D01*
X82177500Y-98596870D01*
X82177499Y-98596870D01*
X82206340Y-98741857D01*
X82206343Y-98741867D01*
X82262913Y-98878439D01*
X82262914Y-98878441D01*
X82262916Y-98878445D01*
X82277171Y-98899779D01*
X82277236Y-98899876D01*
X82277235Y-98899876D01*
X82345046Y-99001364D01*
X82345052Y-99001371D01*
X88748181Y-105404499D01*
X88781666Y-105465822D01*
X88784500Y-105492180D01*
X88784500Y-108032298D01*
X88764815Y-108099337D01*
X88731625Y-108133872D01*
X88663595Y-108181507D01*
X88496505Y-108348597D01*
X88366575Y-108534158D01*
X88311998Y-108577783D01*
X88242500Y-108584977D01*
X88180145Y-108553454D01*
X88163425Y-108534158D01*
X88033494Y-108348597D01*
X87866402Y-108181506D01*
X87866395Y-108181501D01*
X87672834Y-108045967D01*
X87672830Y-108045965D01*
X87600970Y-108012456D01*
X87458663Y-107946097D01*
X87458659Y-107946096D01*
X87458655Y-107946094D01*
X87230413Y-107884938D01*
X87230403Y-107884936D01*
X86995001Y-107864341D01*
X86994999Y-107864341D01*
X86759596Y-107884936D01*
X86759586Y-107884938D01*
X86531344Y-107946094D01*
X86531335Y-107946098D01*
X86317171Y-108045964D01*
X86317169Y-108045965D01*
X86123597Y-108181505D01*
X85956505Y-108348597D01*
X85826575Y-108534158D01*
X85771998Y-108577783D01*
X85702500Y-108584977D01*
X85640145Y-108553454D01*
X85623425Y-108534158D01*
X85493494Y-108348597D01*
X85326402Y-108181506D01*
X85326395Y-108181501D01*
X85132834Y-108045967D01*
X85132830Y-108045965D01*
X85060970Y-108012456D01*
X84918663Y-107946097D01*
X84918659Y-107946096D01*
X84918655Y-107946094D01*
X84690413Y-107884938D01*
X84690403Y-107884936D01*
X84455001Y-107864341D01*
X84454999Y-107864341D01*
X84219596Y-107884936D01*
X84219586Y-107884938D01*
X83991344Y-107946094D01*
X83991335Y-107946098D01*
X83777171Y-108045964D01*
X83777169Y-108045965D01*
X83583597Y-108181505D01*
X83416508Y-108348594D01*
X83286269Y-108534595D01*
X83231692Y-108578219D01*
X83162193Y-108585412D01*
X83099839Y-108553890D01*
X83083119Y-108534594D01*
X82953113Y-108348926D01*
X82953108Y-108348920D01*
X82786082Y-108181894D01*
X82592578Y-108046399D01*
X82378492Y-107946570D01*
X82378486Y-107946567D01*
X82165000Y-107889364D01*
X82165000Y-108786988D01*
X82107993Y-108754075D01*
X81980826Y-108720000D01*
X81849174Y-108720000D01*
X81722007Y-108754075D01*
X81665000Y-108786988D01*
X81665000Y-107889364D01*
X81664999Y-107889364D01*
X81451513Y-107946567D01*
X81451507Y-107946570D01*
X81237422Y-108046399D01*
X81237420Y-108046400D01*
X81043926Y-108181886D01*
X81043920Y-108181891D01*
X80876891Y-108348920D01*
X80876886Y-108348926D01*
X80741400Y-108542420D01*
X80741399Y-108542422D01*
X80641570Y-108756507D01*
X80641567Y-108756513D01*
X80584364Y-108969999D01*
X70500500Y-108969999D01*
X70500500Y-88614994D01*
X71869859Y-88614994D01*
X71869859Y-88615005D01*
X71890385Y-88862729D01*
X71890387Y-88862738D01*
X71951412Y-89103717D01*
X72051266Y-89331364D01*
X72151564Y-89484882D01*
X72851212Y-88785234D01*
X72862482Y-88827292D01*
X72934890Y-88952708D01*
X73037292Y-89055110D01*
X73162708Y-89127518D01*
X73204765Y-89138787D01*
X72504942Y-89838609D01*
X72551768Y-89875055D01*
X72551770Y-89875056D01*
X72770385Y-89993364D01*
X72770396Y-89993369D01*
X73005506Y-90074083D01*
X73250707Y-90115000D01*
X73499293Y-90115000D01*
X73744493Y-90074083D01*
X73979603Y-89993369D01*
X73979614Y-89993364D01*
X74198228Y-89875057D01*
X74198231Y-89875055D01*
X74245056Y-89838609D01*
X73545234Y-89138787D01*
X73587292Y-89127518D01*
X73712708Y-89055110D01*
X73815110Y-88952708D01*
X73887518Y-88827292D01*
X73898787Y-88785234D01*
X74598434Y-89484882D01*
X74698731Y-89331369D01*
X74798587Y-89103717D01*
X74859612Y-88862738D01*
X74859614Y-88862729D01*
X74880141Y-88615005D01*
X74880141Y-88614994D01*
X77519357Y-88614994D01*
X77519357Y-88615005D01*
X77539890Y-88862812D01*
X77539892Y-88862824D01*
X77600936Y-89103881D01*
X77700826Y-89331606D01*
X77836833Y-89539782D01*
X77836836Y-89539785D01*
X78005256Y-89722738D01*
X78201491Y-89875474D01*
X78201493Y-89875475D01*
X78419332Y-89993364D01*
X78420190Y-89993828D01*
X78639141Y-90068994D01*
X78653964Y-90074083D01*
X78655386Y-90074571D01*
X78900665Y-90115500D01*
X79149335Y-90115500D01*
X79394614Y-90074571D01*
X79629810Y-89993828D01*
X79848509Y-89875474D01*
X80044744Y-89722738D01*
X80213164Y-89539785D01*
X80349173Y-89331607D01*
X80449063Y-89103881D01*
X80510108Y-88862821D01*
X80510651Y-88856269D01*
X80530643Y-88615005D01*
X80530643Y-88614994D01*
X80510109Y-88367187D01*
X80510107Y-88367175D01*
X80449063Y-88126118D01*
X80349173Y-87898393D01*
X80213166Y-87690217D01*
X80146424Y-87617716D01*
X80044744Y-87507262D01*
X79848509Y-87354526D01*
X79848507Y-87354525D01*
X79848506Y-87354524D01*
X79629811Y-87236172D01*
X79629802Y-87236169D01*
X79394616Y-87155429D01*
X79149335Y-87114500D01*
X78900665Y-87114500D01*
X78655383Y-87155429D01*
X78420197Y-87236169D01*
X78420188Y-87236172D01*
X78201493Y-87354524D01*
X78005257Y-87507261D01*
X77836833Y-87690217D01*
X77700826Y-87898393D01*
X77600936Y-88126118D01*
X77539892Y-88367175D01*
X77539890Y-88367187D01*
X77519357Y-88614994D01*
X74880141Y-88614994D01*
X74859614Y-88367270D01*
X74859612Y-88367261D01*
X74798587Y-88126282D01*
X74698731Y-87898630D01*
X74598434Y-87745116D01*
X73898787Y-88444764D01*
X73887518Y-88402708D01*
X73815110Y-88277292D01*
X73712708Y-88174890D01*
X73587292Y-88102482D01*
X73545235Y-88091212D01*
X74245057Y-87391390D01*
X74245056Y-87391389D01*
X74198229Y-87354943D01*
X73979614Y-87236635D01*
X73979603Y-87236630D01*
X73744493Y-87155916D01*
X73499293Y-87115000D01*
X73250707Y-87115000D01*
X73005506Y-87155916D01*
X72770396Y-87236630D01*
X72770390Y-87236632D01*
X72551761Y-87354949D01*
X72504942Y-87391388D01*
X72504942Y-87391390D01*
X73204765Y-88091212D01*
X73162708Y-88102482D01*
X73037292Y-88174890D01*
X72934890Y-88277292D01*
X72862482Y-88402708D01*
X72851212Y-88444764D01*
X72151564Y-87745116D01*
X72051267Y-87898632D01*
X71951412Y-88126282D01*
X71890387Y-88367261D01*
X71890385Y-88367270D01*
X71869859Y-88614994D01*
X70500500Y-88614994D01*
X70500500Y-65002706D01*
X70500559Y-65000000D01*
X71794958Y-65000000D01*
X71815110Y-65358846D01*
X71815112Y-65358858D01*
X71875314Y-65713185D01*
X71875316Y-65713194D01*
X71974812Y-66058552D01*
X72112353Y-66390609D01*
X72112355Y-66390613D01*
X72286215Y-66705189D01*
X72286218Y-66705194D01*
X72494193Y-66998306D01*
X72566844Y-67079601D01*
X73884728Y-65761716D01*
X73970278Y-65879466D01*
X74120534Y-66029722D01*
X74238281Y-66115270D01*
X72920397Y-67433154D01*
X73001693Y-67505806D01*
X73294805Y-67713781D01*
X73294810Y-67713784D01*
X73609386Y-67887644D01*
X73609390Y-67887646D01*
X73941447Y-68025187D01*
X74286805Y-68124683D01*
X74286814Y-68124685D01*
X74641141Y-68184887D01*
X74641153Y-68184889D01*
X75000000Y-68205041D01*
X75358846Y-68184889D01*
X75358858Y-68184887D01*
X75713185Y-68124685D01*
X75713194Y-68124683D01*
X76058552Y-68025187D01*
X76390609Y-67887646D01*
X76390613Y-67887644D01*
X76705189Y-67713784D01*
X76705194Y-67713781D01*
X76998299Y-67505811D01*
X76998322Y-67505793D01*
X77079602Y-67433155D01*
X77079602Y-67433154D01*
X75761718Y-66115270D01*
X75879466Y-66029722D01*
X76029722Y-65879466D01*
X76115270Y-65761718D01*
X77433154Y-67079602D01*
X77433155Y-67079602D01*
X77505793Y-66998322D01*
X77505811Y-66998299D01*
X77713781Y-66705194D01*
X77713784Y-66705189D01*
X77887644Y-66390613D01*
X77887646Y-66390609D01*
X78025187Y-66058552D01*
X78124683Y-65713194D01*
X78124685Y-65713185D01*
X78184887Y-65358858D01*
X78184889Y-65358846D01*
X78205041Y-65000000D01*
X78184889Y-64641153D01*
X78184887Y-64641141D01*
X78124685Y-64286814D01*
X78124683Y-64286805D01*
X78025187Y-63941447D01*
X77887646Y-63609390D01*
X77887644Y-63609386D01*
X77713784Y-63294810D01*
X77713781Y-63294805D01*
X77505806Y-63001693D01*
X77433154Y-62920397D01*
X76115270Y-64238281D01*
X76029722Y-64120534D01*
X75879466Y-63970278D01*
X75761717Y-63884729D01*
X77079601Y-62566844D01*
X77079602Y-62566844D01*
X76998306Y-62494193D01*
X76705194Y-62286218D01*
X76705189Y-62286215D01*
X76390613Y-62112355D01*
X76390609Y-62112353D01*
X76058552Y-61974812D01*
X75713194Y-61875316D01*
X75713185Y-61875314D01*
X75358858Y-61815112D01*
X75358846Y-61815110D01*
X75000000Y-61794958D01*
X74641153Y-61815110D01*
X74641141Y-61815112D01*
X74286814Y-61875314D01*
X74286805Y-61875316D01*
X73941447Y-61974812D01*
X73609390Y-62112353D01*
X73609386Y-62112355D01*
X73294810Y-62286215D01*
X73294805Y-62286218D01*
X73001693Y-62494193D01*
X72920397Y-62566844D01*
X74238282Y-63884729D01*
X74120534Y-63970278D01*
X73970278Y-64120534D01*
X73884729Y-64238282D01*
X72566844Y-62920397D01*
X72494193Y-63001693D01*
X72286218Y-63294805D01*
X72286215Y-63294810D01*
X72112355Y-63609386D01*
X72112353Y-63609390D01*
X71974812Y-63941447D01*
X71875316Y-64286805D01*
X71875314Y-64286814D01*
X71815112Y-64641141D01*
X71815110Y-64641153D01*
X71794958Y-65000000D01*
X70500559Y-65000000D01*
X70500618Y-64997297D01*
X70507668Y-64835826D01*
X70517386Y-64613226D01*
X70518326Y-64602495D01*
X70568152Y-64224025D01*
X70570025Y-64213405D01*
X70652649Y-63840709D01*
X70655440Y-63830295D01*
X70770230Y-63466227D01*
X70773917Y-63456095D01*
X70920003Y-63103412D01*
X70924561Y-63093638D01*
X71100822Y-62755045D01*
X71106217Y-62745700D01*
X71311325Y-62423744D01*
X71317515Y-62414905D01*
X71549896Y-62112060D01*
X71556834Y-62103791D01*
X71814726Y-61822352D01*
X71822352Y-61814726D01*
X72103791Y-61556834D01*
X72112060Y-61549896D01*
X72414905Y-61317515D01*
X72423744Y-61311325D01*
X72745700Y-61106217D01*
X72755045Y-61100822D01*
X73093638Y-60924561D01*
X73103412Y-60920003D01*
X73456095Y-60773917D01*
X73466227Y-60770230D01*
X73830295Y-60655440D01*
X73840709Y-60652649D01*
X74213405Y-60570025D01*
X74224025Y-60568152D01*
X74602495Y-60518326D01*
X74613226Y-60517386D01*
X74997297Y-60500617D01*
X75002706Y-60500500D01*
X75065892Y-60500500D01*
X154934108Y-60500500D01*
X154997294Y-60500500D01*
X155002702Y-60500617D01*
G37*
%TD.AperFunction*%
%TD*%
M02*
