M48
; DRILL file {KiCad 8.0.6} date 2024-11-20T18:21:02+0000
; FORMAT={-:-/ absolute / inch / decimal}
; #@! TF.CreationDate,2024-11-20T18:21:02+00:00
; #@! TF.GenerationSoftware,Kicad,Pcbnew,8.0.6
; #@! TF.FileFunction,Plated,1,2,PTH
FMAT,2
INCH
; #@! TA.AperFunction,Plated,PTH,ViaDrill
T1C0.0118
; #@! TA.AperFunction,Plated,PTH,ComponentDrill
T2C0.0236
; #@! TA.AperFunction,Plated,PTH,ComponentDrill
T3C0.0394
; #@! TA.AperFunction,Plated,PTH,ComponentDrill
T4C0.0433
; #@! TA.AperFunction,Plated,PTH,ComponentDrill
T5C0.1063
%
G90
G05
T1
X3.405Y-2.745
X3.42Y-3.365
X3.425Y-3.625
X3.53Y-3.135
X3.57Y-2.685
X3.61Y-3.575
X3.62Y-2.84
X3.71Y-3.595
X3.7106Y-2.8924
X3.74Y-2.975
X3.74Y-3.38
X3.74Y-3.67
X3.825Y-3.115
X3.835Y-3.82
X3.875Y-4.05
X3.935Y-3.5
X3.985Y-4.195
X4.105Y-3.905
X4.13Y-4.105
X4.2444Y-3.3216
X4.245Y-3.215
X4.245Y-3.25
X4.245Y-3.2868
X4.3948Y-3.1829
X4.415Y-3.655
X4.42Y-3.41
X4.435Y-3.11
X4.4625Y-3.3225
X4.475Y-3.17
X4.4968Y-3.215
X4.525Y-3.25
X4.55Y-3.285
X4.5736Y-3.115
X4.5994Y-3.145
X4.72Y-3.29
X5.075Y-3.175
X5.135Y-3.385
X5.235Y-3.385
X5.335Y-3.385
X5.3523Y-4.045
X5.38Y-4.03
X5.39Y-2.705
X5.4Y-3.77
X5.4036Y-4.0922
X5.4272Y-4.0686
X5.4509Y-3.9814
X5.4707Y-4.0059
X5.4999Y-3.6999
X5.51Y-3.235
X5.54Y-2.915
X5.555Y-2.7
X5.61Y-3.565
X5.64Y-2.915
X5.68Y-3.535
X5.685Y-3.245
X5.725Y-3.095
X5.74Y-2.915
X5.77Y-4.195
X5.805Y-2.655
X5.945Y-3.93
X6.04Y-3.125
T3
X3.225Y-4.3
X3.325Y-4.3
X3.4Y-2.55
X3.4Y-3.05
X3.4Y-3.25
X3.4Y-3.75
X3.425Y-4.3
X3.5Y-2.55
X3.5Y-3.05
X3.5Y-3.25
X3.5Y-3.75
X3.525Y-4.3
X3.6Y-2.55
X3.6Y-3.05
X3.6Y-3.25
X3.6Y-3.75
X3.625Y-4.3
X3.7Y-2.55
X3.7Y-3.05
X3.7Y-3.25
X3.7Y-3.75
X3.725Y-4.3
X3.8Y-2.55
X3.8Y-3.05
X3.8Y-3.25
X3.8Y-3.75
X3.9Y-2.55
X3.9Y-3.05
X3.9Y-3.25
X3.9Y-3.75
X3.925Y-4.3
X4.0Y-2.55
X4.0Y-3.05
X4.0Y-3.25
X4.0Y-3.75
X4.025Y-4.3
X4.1Y-2.55
X4.1Y-3.05
X4.1Y-3.25
X4.1Y-3.75
X4.125Y-4.3
X4.225Y-4.3
X4.325Y-4.3
X4.425Y-4.3
X4.625Y-4.3
X4.725Y-4.3
X4.75Y-2.85
X4.75Y-3.45
X4.825Y-4.3
X4.85Y-2.85
X4.85Y-3.45
X4.925Y-4.3
X4.95Y-2.85
X4.95Y-3.45
X5.025Y-4.3
X5.05Y-2.85
X5.05Y-3.45
X5.125Y-4.3
X5.15Y-2.85
X5.15Y-3.45
X5.25Y-2.85
X5.25Y-3.45
X5.325Y-4.3
X5.3496Y-2.55
X5.35Y-2.85
X5.35Y-3.45
X5.425Y-4.3
X5.4496Y-2.55
X5.45Y-2.85
X5.45Y-3.45
X5.525Y-4.3
X5.5496Y-2.55
X5.55Y-2.85
X5.55Y-3.45
X5.625Y-4.3
X5.6496Y-2.55
X5.65Y-2.85
X5.65Y-3.45
X5.725Y-4.3
X5.75Y-2.85
X5.75Y-3.45
X5.825Y-4.3
X5.85Y-2.85
X5.85Y-3.45
X5.95Y-2.85
X5.95Y-3.45
X6.05Y-2.85
X6.05Y-3.45
X6.15Y-2.85
X6.15Y-3.45
T4
X2.8888Y-3.4888
X3.1112Y-3.4888
T5
X2.9528Y-2.5591
X2.9528Y-4.5276
X6.1024Y-2.5591
X6.1024Y-4.5276
T2
G00X6.0351Y-3.7598
M15
G01X6.0587Y-3.7598
M16
G05
G00X6.0351Y-4.1
M15
G01X6.0587Y-4.1
M16
G05
G00X6.1847Y-3.7598
M15
G01X6.2083Y-3.7598
M16
G05
G00X6.1847Y-4.1
M15
G01X6.2083Y-4.1
M16
G05
M30
