%TF.GenerationSoftware,KiCad,Pcbnew,8.0.6*%
%TF.CreationDate,2024-11-20T18:20:58+00:00*%
%TF.ProjectId,NORMMotorControlBoard,4e4f524d-4d6f-4746-9f72-436f6e74726f,rev?*%
%TF.SameCoordinates,Original*%
%TF.FileFunction,Soldermask,Bot*%
%TF.FilePolarity,Negative*%
%FSLAX46Y46*%
G04 Gerber Fmt 4.6, Leading zero omitted, Abs format (unit mm)*
G04 Created by KiCad (PCBNEW 8.0.6) date 2024-11-20 18:20:58*
%MOMM*%
%LPD*%
G01*
G04 APERTURE LIST*
%ADD10C,0.010000*%
%ADD11R,1.700000X1.700000*%
%ADD12O,1.700000X1.700000*%
%ADD13C,5.400000*%
%ADD14C,2.000000*%
%ADD15R,1.600000X1.600000*%
%ADD16O,1.600000X1.600000*%
G04 APERTURE END LIST*
D10*
%TO.C,J5*%
X153925000Y-94851000D02*
X153959000Y-94854000D01*
X153993000Y-94858000D01*
X154026000Y-94864000D01*
X154059000Y-94872000D01*
X154092000Y-94882000D01*
X154124000Y-94893000D01*
X154155000Y-94906000D01*
X154186000Y-94921000D01*
X154216000Y-94937000D01*
X154245000Y-94955000D01*
X154273000Y-94974000D01*
X154300000Y-94995000D01*
X154326000Y-95017000D01*
X154351000Y-95040000D01*
X154374000Y-95065000D01*
X154396000Y-95091000D01*
X154417000Y-95118000D01*
X154436000Y-95146000D01*
X154454000Y-95175000D01*
X154470000Y-95205000D01*
X154485000Y-95236000D01*
X154498000Y-95267000D01*
X154509000Y-95299000D01*
X154519000Y-95332000D01*
X154527000Y-95365000D01*
X154533000Y-95398000D01*
X154537000Y-95432000D01*
X154540000Y-95466000D01*
X154541000Y-95500000D01*
X154540000Y-95534000D01*
X154537000Y-95568000D01*
X154533000Y-95602000D01*
X154527000Y-95635000D01*
X154519000Y-95668000D01*
X154509000Y-95701000D01*
X154498000Y-95733000D01*
X154485000Y-95764000D01*
X154470000Y-95795000D01*
X154454000Y-95825000D01*
X154436000Y-95854000D01*
X154417000Y-95882000D01*
X154396000Y-95909000D01*
X154374000Y-95935000D01*
X154351000Y-95960000D01*
X154326000Y-95983000D01*
X154300000Y-96005000D01*
X154273000Y-96026000D01*
X154245000Y-96045000D01*
X154216000Y-96063000D01*
X154186000Y-96079000D01*
X154155000Y-96094000D01*
X154124000Y-96107000D01*
X154092000Y-96118000D01*
X154059000Y-96128000D01*
X154026000Y-96136000D01*
X153993000Y-96142000D01*
X153959000Y-96146000D01*
X153925000Y-96149000D01*
X153891000Y-96150000D01*
X153291000Y-96150000D01*
X153257000Y-96149000D01*
X153223000Y-96146000D01*
X153189000Y-96142000D01*
X153156000Y-96136000D01*
X153123000Y-96128000D01*
X153090000Y-96118000D01*
X153058000Y-96107000D01*
X153027000Y-96094000D01*
X152996000Y-96079000D01*
X152966000Y-96063000D01*
X152937000Y-96045000D01*
X152909000Y-96026000D01*
X152882000Y-96005000D01*
X152856000Y-95983000D01*
X152831000Y-95960000D01*
X152808000Y-95935000D01*
X152786000Y-95909000D01*
X152765000Y-95882000D01*
X152746000Y-95854000D01*
X152728000Y-95825000D01*
X152712000Y-95795000D01*
X152697000Y-95764000D01*
X152684000Y-95733000D01*
X152673000Y-95701000D01*
X152663000Y-95668000D01*
X152655000Y-95635000D01*
X152649000Y-95602000D01*
X152645000Y-95568000D01*
X152642000Y-95534000D01*
X152641000Y-95500000D01*
X152642000Y-95466000D01*
X152645000Y-95432000D01*
X152649000Y-95398000D01*
X152655000Y-95365000D01*
X152663000Y-95332000D01*
X152673000Y-95299000D01*
X152684000Y-95267000D01*
X152697000Y-95236000D01*
X152712000Y-95205000D01*
X152728000Y-95175000D01*
X152746000Y-95146000D01*
X152765000Y-95118000D01*
X152786000Y-95091000D01*
X152808000Y-95065000D01*
X152831000Y-95040000D01*
X152856000Y-95017000D01*
X152882000Y-94995000D01*
X152909000Y-94974000D01*
X152937000Y-94955000D01*
X152966000Y-94937000D01*
X152996000Y-94921000D01*
X153027000Y-94906000D01*
X153058000Y-94893000D01*
X153090000Y-94882000D01*
X153123000Y-94872000D01*
X153156000Y-94864000D01*
X153189000Y-94858000D01*
X153223000Y-94854000D01*
X153257000Y-94851000D01*
X153291000Y-94850000D01*
X153891000Y-94850000D01*
X153925000Y-94851000D01*
G36*
X153925000Y-94851000D02*
G01*
X153959000Y-94854000D01*
X153993000Y-94858000D01*
X154026000Y-94864000D01*
X154059000Y-94872000D01*
X154092000Y-94882000D01*
X154124000Y-94893000D01*
X154155000Y-94906000D01*
X154186000Y-94921000D01*
X154216000Y-94937000D01*
X154245000Y-94955000D01*
X154273000Y-94974000D01*
X154300000Y-94995000D01*
X154326000Y-95017000D01*
X154351000Y-95040000D01*
X154374000Y-95065000D01*
X154396000Y-95091000D01*
X154417000Y-95118000D01*
X154436000Y-95146000D01*
X154454000Y-95175000D01*
X154470000Y-95205000D01*
X154485000Y-95236000D01*
X154498000Y-95267000D01*
X154509000Y-95299000D01*
X154519000Y-95332000D01*
X154527000Y-95365000D01*
X154533000Y-95398000D01*
X154537000Y-95432000D01*
X154540000Y-95466000D01*
X154541000Y-95500000D01*
X154540000Y-95534000D01*
X154537000Y-95568000D01*
X154533000Y-95602000D01*
X154527000Y-95635000D01*
X154519000Y-95668000D01*
X154509000Y-95701000D01*
X154498000Y-95733000D01*
X154485000Y-95764000D01*
X154470000Y-95795000D01*
X154454000Y-95825000D01*
X154436000Y-95854000D01*
X154417000Y-95882000D01*
X154396000Y-95909000D01*
X154374000Y-95935000D01*
X154351000Y-95960000D01*
X154326000Y-95983000D01*
X154300000Y-96005000D01*
X154273000Y-96026000D01*
X154245000Y-96045000D01*
X154216000Y-96063000D01*
X154186000Y-96079000D01*
X154155000Y-96094000D01*
X154124000Y-96107000D01*
X154092000Y-96118000D01*
X154059000Y-96128000D01*
X154026000Y-96136000D01*
X153993000Y-96142000D01*
X153959000Y-96146000D01*
X153925000Y-96149000D01*
X153891000Y-96150000D01*
X153291000Y-96150000D01*
X153257000Y-96149000D01*
X153223000Y-96146000D01*
X153189000Y-96142000D01*
X153156000Y-96136000D01*
X153123000Y-96128000D01*
X153090000Y-96118000D01*
X153058000Y-96107000D01*
X153027000Y-96094000D01*
X152996000Y-96079000D01*
X152966000Y-96063000D01*
X152937000Y-96045000D01*
X152909000Y-96026000D01*
X152882000Y-96005000D01*
X152856000Y-95983000D01*
X152831000Y-95960000D01*
X152808000Y-95935000D01*
X152786000Y-95909000D01*
X152765000Y-95882000D01*
X152746000Y-95854000D01*
X152728000Y-95825000D01*
X152712000Y-95795000D01*
X152697000Y-95764000D01*
X152684000Y-95733000D01*
X152673000Y-95701000D01*
X152663000Y-95668000D01*
X152655000Y-95635000D01*
X152649000Y-95602000D01*
X152645000Y-95568000D01*
X152642000Y-95534000D01*
X152641000Y-95500000D01*
X152642000Y-95466000D01*
X152645000Y-95432000D01*
X152649000Y-95398000D01*
X152655000Y-95365000D01*
X152663000Y-95332000D01*
X152673000Y-95299000D01*
X152684000Y-95267000D01*
X152697000Y-95236000D01*
X152712000Y-95205000D01*
X152728000Y-95175000D01*
X152746000Y-95146000D01*
X152765000Y-95118000D01*
X152786000Y-95091000D01*
X152808000Y-95065000D01*
X152831000Y-95040000D01*
X152856000Y-95017000D01*
X152882000Y-94995000D01*
X152909000Y-94974000D01*
X152937000Y-94955000D01*
X152966000Y-94937000D01*
X152996000Y-94921000D01*
X153027000Y-94906000D01*
X153058000Y-94893000D01*
X153090000Y-94882000D01*
X153123000Y-94872000D01*
X153156000Y-94864000D01*
X153189000Y-94858000D01*
X153223000Y-94854000D01*
X153257000Y-94851000D01*
X153291000Y-94850000D01*
X153891000Y-94850000D01*
X153925000Y-94851000D01*
G37*
X153925000Y-103491000D02*
X153959000Y-103494000D01*
X153993000Y-103498000D01*
X154026000Y-103504000D01*
X154059000Y-103512000D01*
X154092000Y-103522000D01*
X154124000Y-103533000D01*
X154155000Y-103546000D01*
X154186000Y-103561000D01*
X154216000Y-103577000D01*
X154245000Y-103595000D01*
X154273000Y-103614000D01*
X154300000Y-103635000D01*
X154326000Y-103657000D01*
X154351000Y-103680000D01*
X154374000Y-103705000D01*
X154396000Y-103731000D01*
X154417000Y-103758000D01*
X154436000Y-103786000D01*
X154454000Y-103815000D01*
X154470000Y-103845000D01*
X154485000Y-103876000D01*
X154498000Y-103907000D01*
X154509000Y-103939000D01*
X154519000Y-103972000D01*
X154527000Y-104005000D01*
X154533000Y-104038000D01*
X154537000Y-104072000D01*
X154540000Y-104106000D01*
X154541000Y-104140000D01*
X154540000Y-104174000D01*
X154537000Y-104208000D01*
X154533000Y-104242000D01*
X154527000Y-104275000D01*
X154519000Y-104308000D01*
X154509000Y-104341000D01*
X154498000Y-104373000D01*
X154485000Y-104404000D01*
X154470000Y-104435000D01*
X154454000Y-104465000D01*
X154436000Y-104494000D01*
X154417000Y-104522000D01*
X154396000Y-104549000D01*
X154374000Y-104575000D01*
X154351000Y-104600000D01*
X154326000Y-104623000D01*
X154300000Y-104645000D01*
X154273000Y-104666000D01*
X154245000Y-104685000D01*
X154216000Y-104703000D01*
X154186000Y-104719000D01*
X154155000Y-104734000D01*
X154124000Y-104747000D01*
X154092000Y-104758000D01*
X154059000Y-104768000D01*
X154026000Y-104776000D01*
X153993000Y-104782000D01*
X153959000Y-104786000D01*
X153925000Y-104789000D01*
X153891000Y-104790000D01*
X153291000Y-104790000D01*
X153257000Y-104789000D01*
X153223000Y-104786000D01*
X153189000Y-104782000D01*
X153156000Y-104776000D01*
X153123000Y-104768000D01*
X153090000Y-104758000D01*
X153058000Y-104747000D01*
X153027000Y-104734000D01*
X152996000Y-104719000D01*
X152966000Y-104703000D01*
X152937000Y-104685000D01*
X152909000Y-104666000D01*
X152882000Y-104645000D01*
X152856000Y-104623000D01*
X152831000Y-104600000D01*
X152808000Y-104575000D01*
X152786000Y-104549000D01*
X152765000Y-104522000D01*
X152746000Y-104494000D01*
X152728000Y-104465000D01*
X152712000Y-104435000D01*
X152697000Y-104404000D01*
X152684000Y-104373000D01*
X152673000Y-104341000D01*
X152663000Y-104308000D01*
X152655000Y-104275000D01*
X152649000Y-104242000D01*
X152645000Y-104208000D01*
X152642000Y-104174000D01*
X152641000Y-104140000D01*
X152642000Y-104106000D01*
X152645000Y-104072000D01*
X152649000Y-104038000D01*
X152655000Y-104005000D01*
X152663000Y-103972000D01*
X152673000Y-103939000D01*
X152684000Y-103907000D01*
X152697000Y-103876000D01*
X152712000Y-103845000D01*
X152728000Y-103815000D01*
X152746000Y-103786000D01*
X152765000Y-103758000D01*
X152786000Y-103731000D01*
X152808000Y-103705000D01*
X152831000Y-103680000D01*
X152856000Y-103657000D01*
X152882000Y-103635000D01*
X152909000Y-103614000D01*
X152937000Y-103595000D01*
X152966000Y-103577000D01*
X152996000Y-103561000D01*
X153027000Y-103546000D01*
X153058000Y-103533000D01*
X153090000Y-103522000D01*
X153123000Y-103512000D01*
X153156000Y-103504000D01*
X153189000Y-103498000D01*
X153223000Y-103494000D01*
X153257000Y-103491000D01*
X153291000Y-103490000D01*
X153891000Y-103490000D01*
X153925000Y-103491000D01*
G36*
X153925000Y-103491000D02*
G01*
X153959000Y-103494000D01*
X153993000Y-103498000D01*
X154026000Y-103504000D01*
X154059000Y-103512000D01*
X154092000Y-103522000D01*
X154124000Y-103533000D01*
X154155000Y-103546000D01*
X154186000Y-103561000D01*
X154216000Y-103577000D01*
X154245000Y-103595000D01*
X154273000Y-103614000D01*
X154300000Y-103635000D01*
X154326000Y-103657000D01*
X154351000Y-103680000D01*
X154374000Y-103705000D01*
X154396000Y-103731000D01*
X154417000Y-103758000D01*
X154436000Y-103786000D01*
X154454000Y-103815000D01*
X154470000Y-103845000D01*
X154485000Y-103876000D01*
X154498000Y-103907000D01*
X154509000Y-103939000D01*
X154519000Y-103972000D01*
X154527000Y-104005000D01*
X154533000Y-104038000D01*
X154537000Y-104072000D01*
X154540000Y-104106000D01*
X154541000Y-104140000D01*
X154540000Y-104174000D01*
X154537000Y-104208000D01*
X154533000Y-104242000D01*
X154527000Y-104275000D01*
X154519000Y-104308000D01*
X154509000Y-104341000D01*
X154498000Y-104373000D01*
X154485000Y-104404000D01*
X154470000Y-104435000D01*
X154454000Y-104465000D01*
X154436000Y-104494000D01*
X154417000Y-104522000D01*
X154396000Y-104549000D01*
X154374000Y-104575000D01*
X154351000Y-104600000D01*
X154326000Y-104623000D01*
X154300000Y-104645000D01*
X154273000Y-104666000D01*
X154245000Y-104685000D01*
X154216000Y-104703000D01*
X154186000Y-104719000D01*
X154155000Y-104734000D01*
X154124000Y-104747000D01*
X154092000Y-104758000D01*
X154059000Y-104768000D01*
X154026000Y-104776000D01*
X153993000Y-104782000D01*
X153959000Y-104786000D01*
X153925000Y-104789000D01*
X153891000Y-104790000D01*
X153291000Y-104790000D01*
X153257000Y-104789000D01*
X153223000Y-104786000D01*
X153189000Y-104782000D01*
X153156000Y-104776000D01*
X153123000Y-104768000D01*
X153090000Y-104758000D01*
X153058000Y-104747000D01*
X153027000Y-104734000D01*
X152996000Y-104719000D01*
X152966000Y-104703000D01*
X152937000Y-104685000D01*
X152909000Y-104666000D01*
X152882000Y-104645000D01*
X152856000Y-104623000D01*
X152831000Y-104600000D01*
X152808000Y-104575000D01*
X152786000Y-104549000D01*
X152765000Y-104522000D01*
X152746000Y-104494000D01*
X152728000Y-104465000D01*
X152712000Y-104435000D01*
X152697000Y-104404000D01*
X152684000Y-104373000D01*
X152673000Y-104341000D01*
X152663000Y-104308000D01*
X152655000Y-104275000D01*
X152649000Y-104242000D01*
X152645000Y-104208000D01*
X152642000Y-104174000D01*
X152641000Y-104140000D01*
X152642000Y-104106000D01*
X152645000Y-104072000D01*
X152649000Y-104038000D01*
X152655000Y-104005000D01*
X152663000Y-103972000D01*
X152673000Y-103939000D01*
X152684000Y-103907000D01*
X152697000Y-103876000D01*
X152712000Y-103845000D01*
X152728000Y-103815000D01*
X152746000Y-103786000D01*
X152765000Y-103758000D01*
X152786000Y-103731000D01*
X152808000Y-103705000D01*
X152831000Y-103680000D01*
X152856000Y-103657000D01*
X152882000Y-103635000D01*
X152909000Y-103614000D01*
X152937000Y-103595000D01*
X152966000Y-103577000D01*
X152996000Y-103561000D01*
X153027000Y-103546000D01*
X153058000Y-103533000D01*
X153090000Y-103522000D01*
X153123000Y-103512000D01*
X153156000Y-103504000D01*
X153189000Y-103498000D01*
X153223000Y-103494000D01*
X153257000Y-103491000D01*
X153291000Y-103490000D01*
X153891000Y-103490000D01*
X153925000Y-103491000D01*
G37*
X157725000Y-94851000D02*
X157759000Y-94854000D01*
X157793000Y-94858000D01*
X157826000Y-94864000D01*
X157859000Y-94872000D01*
X157892000Y-94882000D01*
X157924000Y-94893000D01*
X157955000Y-94906000D01*
X157986000Y-94921000D01*
X158016000Y-94937000D01*
X158045000Y-94955000D01*
X158073000Y-94974000D01*
X158100000Y-94995000D01*
X158126000Y-95017000D01*
X158151000Y-95040000D01*
X158174000Y-95065000D01*
X158196000Y-95091000D01*
X158217000Y-95118000D01*
X158236000Y-95146000D01*
X158254000Y-95175000D01*
X158270000Y-95205000D01*
X158285000Y-95236000D01*
X158298000Y-95267000D01*
X158309000Y-95299000D01*
X158319000Y-95332000D01*
X158327000Y-95365000D01*
X158333000Y-95398000D01*
X158337000Y-95432000D01*
X158340000Y-95466000D01*
X158341000Y-95500000D01*
X158340000Y-95534000D01*
X158337000Y-95568000D01*
X158333000Y-95602000D01*
X158327000Y-95635000D01*
X158319000Y-95668000D01*
X158309000Y-95701000D01*
X158298000Y-95733000D01*
X158285000Y-95764000D01*
X158270000Y-95795000D01*
X158254000Y-95825000D01*
X158236000Y-95854000D01*
X158217000Y-95882000D01*
X158196000Y-95909000D01*
X158174000Y-95935000D01*
X158151000Y-95960000D01*
X158126000Y-95983000D01*
X158100000Y-96005000D01*
X158073000Y-96026000D01*
X158045000Y-96045000D01*
X158016000Y-96063000D01*
X157986000Y-96079000D01*
X157955000Y-96094000D01*
X157924000Y-96107000D01*
X157892000Y-96118000D01*
X157859000Y-96128000D01*
X157826000Y-96136000D01*
X157793000Y-96142000D01*
X157759000Y-96146000D01*
X157725000Y-96149000D01*
X157691000Y-96150000D01*
X157091000Y-96150000D01*
X157057000Y-96149000D01*
X157023000Y-96146000D01*
X156989000Y-96142000D01*
X156956000Y-96136000D01*
X156923000Y-96128000D01*
X156890000Y-96118000D01*
X156858000Y-96107000D01*
X156827000Y-96094000D01*
X156796000Y-96079000D01*
X156766000Y-96063000D01*
X156737000Y-96045000D01*
X156709000Y-96026000D01*
X156682000Y-96005000D01*
X156656000Y-95983000D01*
X156631000Y-95960000D01*
X156608000Y-95935000D01*
X156586000Y-95909000D01*
X156565000Y-95882000D01*
X156546000Y-95854000D01*
X156528000Y-95825000D01*
X156512000Y-95795000D01*
X156497000Y-95764000D01*
X156484000Y-95733000D01*
X156473000Y-95701000D01*
X156463000Y-95668000D01*
X156455000Y-95635000D01*
X156449000Y-95602000D01*
X156445000Y-95568000D01*
X156442000Y-95534000D01*
X156441000Y-95500000D01*
X156442000Y-95466000D01*
X156445000Y-95432000D01*
X156449000Y-95398000D01*
X156455000Y-95365000D01*
X156463000Y-95332000D01*
X156473000Y-95299000D01*
X156484000Y-95267000D01*
X156497000Y-95236000D01*
X156512000Y-95205000D01*
X156528000Y-95175000D01*
X156546000Y-95146000D01*
X156565000Y-95118000D01*
X156586000Y-95091000D01*
X156608000Y-95065000D01*
X156631000Y-95040000D01*
X156656000Y-95017000D01*
X156682000Y-94995000D01*
X156709000Y-94974000D01*
X156737000Y-94955000D01*
X156766000Y-94937000D01*
X156796000Y-94921000D01*
X156827000Y-94906000D01*
X156858000Y-94893000D01*
X156890000Y-94882000D01*
X156923000Y-94872000D01*
X156956000Y-94864000D01*
X156989000Y-94858000D01*
X157023000Y-94854000D01*
X157057000Y-94851000D01*
X157091000Y-94850000D01*
X157691000Y-94850000D01*
X157725000Y-94851000D01*
G36*
X157725000Y-94851000D02*
G01*
X157759000Y-94854000D01*
X157793000Y-94858000D01*
X157826000Y-94864000D01*
X157859000Y-94872000D01*
X157892000Y-94882000D01*
X157924000Y-94893000D01*
X157955000Y-94906000D01*
X157986000Y-94921000D01*
X158016000Y-94937000D01*
X158045000Y-94955000D01*
X158073000Y-94974000D01*
X158100000Y-94995000D01*
X158126000Y-95017000D01*
X158151000Y-95040000D01*
X158174000Y-95065000D01*
X158196000Y-95091000D01*
X158217000Y-95118000D01*
X158236000Y-95146000D01*
X158254000Y-95175000D01*
X158270000Y-95205000D01*
X158285000Y-95236000D01*
X158298000Y-95267000D01*
X158309000Y-95299000D01*
X158319000Y-95332000D01*
X158327000Y-95365000D01*
X158333000Y-95398000D01*
X158337000Y-95432000D01*
X158340000Y-95466000D01*
X158341000Y-95500000D01*
X158340000Y-95534000D01*
X158337000Y-95568000D01*
X158333000Y-95602000D01*
X158327000Y-95635000D01*
X158319000Y-95668000D01*
X158309000Y-95701000D01*
X158298000Y-95733000D01*
X158285000Y-95764000D01*
X158270000Y-95795000D01*
X158254000Y-95825000D01*
X158236000Y-95854000D01*
X158217000Y-95882000D01*
X158196000Y-95909000D01*
X158174000Y-95935000D01*
X158151000Y-95960000D01*
X158126000Y-95983000D01*
X158100000Y-96005000D01*
X158073000Y-96026000D01*
X158045000Y-96045000D01*
X158016000Y-96063000D01*
X157986000Y-96079000D01*
X157955000Y-96094000D01*
X157924000Y-96107000D01*
X157892000Y-96118000D01*
X157859000Y-96128000D01*
X157826000Y-96136000D01*
X157793000Y-96142000D01*
X157759000Y-96146000D01*
X157725000Y-96149000D01*
X157691000Y-96150000D01*
X157091000Y-96150000D01*
X157057000Y-96149000D01*
X157023000Y-96146000D01*
X156989000Y-96142000D01*
X156956000Y-96136000D01*
X156923000Y-96128000D01*
X156890000Y-96118000D01*
X156858000Y-96107000D01*
X156827000Y-96094000D01*
X156796000Y-96079000D01*
X156766000Y-96063000D01*
X156737000Y-96045000D01*
X156709000Y-96026000D01*
X156682000Y-96005000D01*
X156656000Y-95983000D01*
X156631000Y-95960000D01*
X156608000Y-95935000D01*
X156586000Y-95909000D01*
X156565000Y-95882000D01*
X156546000Y-95854000D01*
X156528000Y-95825000D01*
X156512000Y-95795000D01*
X156497000Y-95764000D01*
X156484000Y-95733000D01*
X156473000Y-95701000D01*
X156463000Y-95668000D01*
X156455000Y-95635000D01*
X156449000Y-95602000D01*
X156445000Y-95568000D01*
X156442000Y-95534000D01*
X156441000Y-95500000D01*
X156442000Y-95466000D01*
X156445000Y-95432000D01*
X156449000Y-95398000D01*
X156455000Y-95365000D01*
X156463000Y-95332000D01*
X156473000Y-95299000D01*
X156484000Y-95267000D01*
X156497000Y-95236000D01*
X156512000Y-95205000D01*
X156528000Y-95175000D01*
X156546000Y-95146000D01*
X156565000Y-95118000D01*
X156586000Y-95091000D01*
X156608000Y-95065000D01*
X156631000Y-95040000D01*
X156656000Y-95017000D01*
X156682000Y-94995000D01*
X156709000Y-94974000D01*
X156737000Y-94955000D01*
X156766000Y-94937000D01*
X156796000Y-94921000D01*
X156827000Y-94906000D01*
X156858000Y-94893000D01*
X156890000Y-94882000D01*
X156923000Y-94872000D01*
X156956000Y-94864000D01*
X156989000Y-94858000D01*
X157023000Y-94854000D01*
X157057000Y-94851000D01*
X157091000Y-94850000D01*
X157691000Y-94850000D01*
X157725000Y-94851000D01*
G37*
X157725000Y-103491000D02*
X157759000Y-103494000D01*
X157793000Y-103498000D01*
X157826000Y-103504000D01*
X157859000Y-103512000D01*
X157892000Y-103522000D01*
X157924000Y-103533000D01*
X157955000Y-103546000D01*
X157986000Y-103561000D01*
X158016000Y-103577000D01*
X158045000Y-103595000D01*
X158073000Y-103614000D01*
X158100000Y-103635000D01*
X158126000Y-103657000D01*
X158151000Y-103680000D01*
X158174000Y-103705000D01*
X158196000Y-103731000D01*
X158217000Y-103758000D01*
X158236000Y-103786000D01*
X158254000Y-103815000D01*
X158270000Y-103845000D01*
X158285000Y-103876000D01*
X158298000Y-103907000D01*
X158309000Y-103939000D01*
X158319000Y-103972000D01*
X158327000Y-104005000D01*
X158333000Y-104038000D01*
X158337000Y-104072000D01*
X158340000Y-104106000D01*
X158341000Y-104140000D01*
X158340000Y-104174000D01*
X158337000Y-104208000D01*
X158333000Y-104242000D01*
X158327000Y-104275000D01*
X158319000Y-104308000D01*
X158309000Y-104341000D01*
X158298000Y-104373000D01*
X158285000Y-104404000D01*
X158270000Y-104435000D01*
X158254000Y-104465000D01*
X158236000Y-104494000D01*
X158217000Y-104522000D01*
X158196000Y-104549000D01*
X158174000Y-104575000D01*
X158151000Y-104600000D01*
X158126000Y-104623000D01*
X158100000Y-104645000D01*
X158073000Y-104666000D01*
X158045000Y-104685000D01*
X158016000Y-104703000D01*
X157986000Y-104719000D01*
X157955000Y-104734000D01*
X157924000Y-104747000D01*
X157892000Y-104758000D01*
X157859000Y-104768000D01*
X157826000Y-104776000D01*
X157793000Y-104782000D01*
X157759000Y-104786000D01*
X157725000Y-104789000D01*
X157691000Y-104790000D01*
X157091000Y-104790000D01*
X157057000Y-104789000D01*
X157023000Y-104786000D01*
X156989000Y-104782000D01*
X156956000Y-104776000D01*
X156923000Y-104768000D01*
X156890000Y-104758000D01*
X156858000Y-104747000D01*
X156827000Y-104734000D01*
X156796000Y-104719000D01*
X156766000Y-104703000D01*
X156737000Y-104685000D01*
X156709000Y-104666000D01*
X156682000Y-104645000D01*
X156656000Y-104623000D01*
X156631000Y-104600000D01*
X156608000Y-104575000D01*
X156586000Y-104549000D01*
X156565000Y-104522000D01*
X156546000Y-104494000D01*
X156528000Y-104465000D01*
X156512000Y-104435000D01*
X156497000Y-104404000D01*
X156484000Y-104373000D01*
X156473000Y-104341000D01*
X156463000Y-104308000D01*
X156455000Y-104275000D01*
X156449000Y-104242000D01*
X156445000Y-104208000D01*
X156442000Y-104174000D01*
X156441000Y-104140000D01*
X156442000Y-104106000D01*
X156445000Y-104072000D01*
X156449000Y-104038000D01*
X156455000Y-104005000D01*
X156463000Y-103972000D01*
X156473000Y-103939000D01*
X156484000Y-103907000D01*
X156497000Y-103876000D01*
X156512000Y-103845000D01*
X156528000Y-103815000D01*
X156546000Y-103786000D01*
X156565000Y-103758000D01*
X156586000Y-103731000D01*
X156608000Y-103705000D01*
X156631000Y-103680000D01*
X156656000Y-103657000D01*
X156682000Y-103635000D01*
X156709000Y-103614000D01*
X156737000Y-103595000D01*
X156766000Y-103577000D01*
X156796000Y-103561000D01*
X156827000Y-103546000D01*
X156858000Y-103533000D01*
X156890000Y-103522000D01*
X156923000Y-103512000D01*
X156956000Y-103504000D01*
X156989000Y-103498000D01*
X157023000Y-103494000D01*
X157057000Y-103491000D01*
X157091000Y-103490000D01*
X157691000Y-103490000D01*
X157725000Y-103491000D01*
G36*
X157725000Y-103491000D02*
G01*
X157759000Y-103494000D01*
X157793000Y-103498000D01*
X157826000Y-103504000D01*
X157859000Y-103512000D01*
X157892000Y-103522000D01*
X157924000Y-103533000D01*
X157955000Y-103546000D01*
X157986000Y-103561000D01*
X158016000Y-103577000D01*
X158045000Y-103595000D01*
X158073000Y-103614000D01*
X158100000Y-103635000D01*
X158126000Y-103657000D01*
X158151000Y-103680000D01*
X158174000Y-103705000D01*
X158196000Y-103731000D01*
X158217000Y-103758000D01*
X158236000Y-103786000D01*
X158254000Y-103815000D01*
X158270000Y-103845000D01*
X158285000Y-103876000D01*
X158298000Y-103907000D01*
X158309000Y-103939000D01*
X158319000Y-103972000D01*
X158327000Y-104005000D01*
X158333000Y-104038000D01*
X158337000Y-104072000D01*
X158340000Y-104106000D01*
X158341000Y-104140000D01*
X158340000Y-104174000D01*
X158337000Y-104208000D01*
X158333000Y-104242000D01*
X158327000Y-104275000D01*
X158319000Y-104308000D01*
X158309000Y-104341000D01*
X158298000Y-104373000D01*
X158285000Y-104404000D01*
X158270000Y-104435000D01*
X158254000Y-104465000D01*
X158236000Y-104494000D01*
X158217000Y-104522000D01*
X158196000Y-104549000D01*
X158174000Y-104575000D01*
X158151000Y-104600000D01*
X158126000Y-104623000D01*
X158100000Y-104645000D01*
X158073000Y-104666000D01*
X158045000Y-104685000D01*
X158016000Y-104703000D01*
X157986000Y-104719000D01*
X157955000Y-104734000D01*
X157924000Y-104747000D01*
X157892000Y-104758000D01*
X157859000Y-104768000D01*
X157826000Y-104776000D01*
X157793000Y-104782000D01*
X157759000Y-104786000D01*
X157725000Y-104789000D01*
X157691000Y-104790000D01*
X157091000Y-104790000D01*
X157057000Y-104789000D01*
X157023000Y-104786000D01*
X156989000Y-104782000D01*
X156956000Y-104776000D01*
X156923000Y-104768000D01*
X156890000Y-104758000D01*
X156858000Y-104747000D01*
X156827000Y-104734000D01*
X156796000Y-104719000D01*
X156766000Y-104703000D01*
X156737000Y-104685000D01*
X156709000Y-104666000D01*
X156682000Y-104645000D01*
X156656000Y-104623000D01*
X156631000Y-104600000D01*
X156608000Y-104575000D01*
X156586000Y-104549000D01*
X156565000Y-104522000D01*
X156546000Y-104494000D01*
X156528000Y-104465000D01*
X156512000Y-104435000D01*
X156497000Y-104404000D01*
X156484000Y-104373000D01*
X156473000Y-104341000D01*
X156463000Y-104308000D01*
X156455000Y-104275000D01*
X156449000Y-104242000D01*
X156445000Y-104208000D01*
X156442000Y-104174000D01*
X156441000Y-104140000D01*
X156442000Y-104106000D01*
X156445000Y-104072000D01*
X156449000Y-104038000D01*
X156455000Y-104005000D01*
X156463000Y-103972000D01*
X156473000Y-103939000D01*
X156484000Y-103907000D01*
X156497000Y-103876000D01*
X156512000Y-103845000D01*
X156528000Y-103815000D01*
X156546000Y-103786000D01*
X156565000Y-103758000D01*
X156586000Y-103731000D01*
X156608000Y-103705000D01*
X156631000Y-103680000D01*
X156656000Y-103657000D01*
X156682000Y-103635000D01*
X156709000Y-103614000D01*
X156737000Y-103595000D01*
X156766000Y-103577000D01*
X156796000Y-103561000D01*
X156827000Y-103546000D01*
X156858000Y-103533000D01*
X156890000Y-103522000D01*
X156923000Y-103512000D01*
X156956000Y-103504000D01*
X156989000Y-103498000D01*
X157023000Y-103494000D01*
X157057000Y-103491000D01*
X157091000Y-103490000D01*
X157691000Y-103490000D01*
X157725000Y-103491000D01*
G37*
%TD*%
D11*
%TO.C,J2*%
X112395000Y-109220000D03*
D12*
X109855000Y-109220000D03*
X107315000Y-109220000D03*
X104775000Y-109220000D03*
X102235000Y-109220000D03*
X99695000Y-109220000D03*
%TD*%
D13*
%TO.C,H3*%
X75000000Y-115000000D03*
%TD*%
%TO.C,H4*%
X155000000Y-115000000D03*
%TD*%
D12*
%TO.C,M1*%
X86360000Y-77470000D03*
X88900000Y-77470000D03*
X91440000Y-77470000D03*
X93980000Y-77470000D03*
X96520000Y-77470000D03*
X99060000Y-77470000D03*
X101600000Y-77470000D03*
D11*
X104140000Y-77470000D03*
X104140000Y-64770000D03*
D12*
X101600000Y-64770000D03*
X99060000Y-64770000D03*
X96520000Y-64770000D03*
X93980000Y-64770000D03*
X91440000Y-64770000D03*
X88900000Y-64770000D03*
D11*
X86360000Y-64770000D03*
%TD*%
%TO.C,J4*%
X147955000Y-109220000D03*
D12*
X145415000Y-109220000D03*
X142875000Y-109220000D03*
X140335000Y-109220000D03*
X137795000Y-109220000D03*
X135255000Y-109220000D03*
%TD*%
D14*
%TO.C,SW1*%
X73375000Y-88615000D03*
X79025000Y-88615000D03*
%TD*%
D15*
%TO.C,A1*%
X120650000Y-87630000D03*
D16*
X123190000Y-87630000D03*
X125730000Y-87630000D03*
X128270000Y-87630000D03*
X130810000Y-87630000D03*
X133350000Y-87630000D03*
X135890000Y-87630000D03*
X138430000Y-87630000D03*
X140970000Y-87630000D03*
X143510000Y-87630000D03*
X146050000Y-87630000D03*
X148590000Y-87630000D03*
X151130000Y-87630000D03*
X153670000Y-87630000D03*
X156210000Y-87630000D03*
X156210000Y-72390000D03*
X153670000Y-72390000D03*
X151130000Y-72390000D03*
X148590000Y-72390000D03*
X146050000Y-72390000D03*
X143510000Y-72390000D03*
X140970000Y-72390000D03*
X138430000Y-72390000D03*
X135890000Y-72390000D03*
X133350000Y-72390000D03*
X130810000Y-72390000D03*
X128270000Y-72390000D03*
X125730000Y-72390000D03*
X123190000Y-72390000D03*
X120650000Y-72390000D03*
%TD*%
D13*
%TO.C,H1*%
X75000000Y-65000000D03*
%TD*%
D11*
%TO.C,J6*%
X143500000Y-64770000D03*
D12*
X140960000Y-64770000D03*
X138420000Y-64770000D03*
X135880000Y-64770000D03*
%TD*%
D11*
%TO.C,J3*%
X130175000Y-109220000D03*
D12*
X127635000Y-109220000D03*
X125095000Y-109220000D03*
X122555000Y-109220000D03*
X120015000Y-109220000D03*
X117475000Y-109220000D03*
%TD*%
%TO.C,M2*%
X86360000Y-95250000D03*
X88900000Y-95250000D03*
X91440000Y-95250000D03*
X93980000Y-95250000D03*
X96520000Y-95250000D03*
X99060000Y-95250000D03*
X101600000Y-95250000D03*
D11*
X104140000Y-95250000D03*
X104140000Y-82550000D03*
D12*
X101600000Y-82550000D03*
X99060000Y-82550000D03*
X96520000Y-82550000D03*
X93980000Y-82550000D03*
X91440000Y-82550000D03*
X88900000Y-82550000D03*
D11*
X86360000Y-82550000D03*
%TD*%
%TO.C,J1*%
X94615000Y-109220000D03*
D12*
X92075000Y-109220000D03*
X89535000Y-109220000D03*
X86995000Y-109220000D03*
X84455000Y-109220000D03*
X81915000Y-109220000D03*
%TD*%
D13*
%TO.C,H2*%
X155000000Y-65000000D03*
%TD*%
M02*
