M48
; DRILL file {KiCad 8.0.6} date 2025-02-17T21:26:14+0000
; FORMAT={-:-/ absolute / inch / decimal}
; #@! TF.CreationDate,2025-02-17T21:26:14+00:00
; #@! TF.GenerationSoftware,Kicad,Pcbnew,8.0.6
; #@! TF.FileFunction,Plated,1,2,PTH
FMAT,2
INCH
; #@! TA.AperFunction,Plated,PTH,ViaDrill
T1C0.0118
; #@! TA.AperFunction,Plated,PTH,ComponentDrill
T2C0.0295
; #@! TA.AperFunction,Plated,PTH,ComponentDrill
T3C0.0315
; #@! TA.AperFunction,Plated,PTH,ComponentDrill
T4C0.0394
; #@! TA.AperFunction,Plated,PTH,ComponentDrill
T5C0.0433
; #@! TA.AperFunction,Plated,PTH,ComponentDrill
T6C0.0689
; #@! TA.AperFunction,Plated,PTH,ComponentDrill
T7C0.1063
; #@! TA.AperFunction,Plated,PTH,ComponentDrill
T8C0.1260
%
G90
G05
T1
X8.56Y-8.72
X8.65Y-8.62
X8.69Y-8.8
X8.69Y-9.31
X8.7Y-9.06
X8.74Y-10.13
X8.74Y-10.57
X8.75Y-9.98
X8.7551Y-8.9015
X8.79Y-9.5
X8.8Y-9.73
X8.81Y-8.99
X8.81Y-9.07
X8.82Y-9.19
X8.82Y-10.73
X8.85Y-6.88
X8.86Y-8.74
X8.86Y-10.64
X8.9Y-8.48
X9.0Y-8.84
X9.02Y-9.18
X9.02Y-9.55
X9.036Y-10.4666
X9.05Y-8.7
X9.06Y-11.15
X9.08Y-6.88
X9.11Y-9.27
X9.12Y-9.3
X9.18Y-10.09
X9.18Y-10.34
X9.2821Y-11.1993
X9.29Y-10.32
X9.36Y-10.16
X9.39Y-6.21
X9.44Y-8.4
X9.52Y-5.98
X9.54Y-11.1
X9.72Y-8.64
X9.76Y-8.03
X9.85Y-10.59
X9.94Y-8.01
X10.05Y-11.25
X10.09Y-6.53
X10.1Y-9.81
X10.12Y-5.31
X10.19Y-7.67
X10.3622Y-9.1063
X10.3898Y-9.1457
X10.4173Y-9.1693
X10.44Y-7.15
X10.4409Y-9.1929
X10.47Y-7.87
X10.48Y-10.21
X10.65Y-11.24
X10.79Y-5.96
X10.82Y-8.99
X10.82Y-9.85
X10.85Y-10.99
X10.88Y-11.17
X10.94Y-6.29
X10.96Y-8.61
X11.07Y-8.07
X11.21Y-9.88
T2
X8.9503Y-11.0677
X9.029Y-11.0677
X9.1078Y-11.0677
X9.1865Y-11.0677
X9.252Y-5.4724
X9.2653Y-11.0677
X9.3307Y-5.4724
X9.344Y-11.0677
X9.4094Y-5.4724
X9.4882Y-5.4724
X9.5669Y-5.4724
X9.6457Y-5.4724
X10.6693Y-5.4724
X10.748Y-5.4724
X10.797Y-11.0829
X10.8268Y-5.4724
X10.8758Y-11.0829
X10.9055Y-5.4724
X10.9545Y-11.0829
X10.9843Y-5.4724
X11.0333Y-11.0829
X11.063Y-5.4724
X11.112Y-11.0829
X11.1908Y-11.0829
T3
X10.4006Y-8.4496
X10.4006Y-8.7496
X10.5006Y-8.4496
X10.5006Y-8.7496
X10.6006Y-8.4496
X10.6006Y-8.7496
X10.7006Y-8.4496
X10.7006Y-8.7496
X10.8006Y-8.4496
X10.8006Y-8.7496
X10.9006Y-8.4496
X10.9006Y-8.7496
X11.0006Y-8.4496
X11.0006Y-8.7496
X11.1006Y-8.4496
X11.1006Y-8.7496
T4
X8.6098Y-8.372
X8.6098Y-8.472
X8.6098Y-8.572
X8.6098Y-8.672
X8.6098Y-8.772
X8.6098Y-8.872
X8.6098Y-8.972
X8.6098Y-9.072
X8.6098Y-9.172
X8.6098Y-9.272
X8.6098Y-9.372
X8.6098Y-9.472
X8.6098Y-9.572
X8.6098Y-9.672
X8.6098Y-9.772
X8.96Y-10.12
X8.96Y-10.22
X8.96Y-10.32
X8.96Y-10.42
X8.96Y-10.52
X8.96Y-10.62
X8.96Y-10.72
X8.96Y-10.82
X9.2098Y-8.372
X9.2098Y-8.472
X9.2098Y-8.572
X9.2098Y-8.672
X9.2098Y-8.772
X9.2098Y-8.872
X9.2098Y-8.972
X9.2098Y-9.072
X9.2098Y-9.172
X9.2098Y-9.272
X9.2098Y-9.372
X9.2098Y-9.472
X9.2098Y-9.572
X9.2098Y-9.672
X9.2098Y-9.772
X9.5991Y-9.2897
X9.6991Y-9.2897
X9.7991Y-9.2897
X9.8991Y-9.2897
X9.9991Y-9.2897
X10.0991Y-9.2897
X10.248Y-7.2324
X10.348Y-7.2324
X10.448Y-7.2324
X10.548Y-7.2324
X10.648Y-7.2324
X10.748Y-7.2324
T5
X9.654Y-11.1455
X9.8764Y-11.1455
T6
X9.4155Y-6.682
X9.4155Y-6.882
X9.4486Y-9.6352
X9.4486Y-9.8352
X9.6286Y-7.1691
X9.8286Y-7.1691
X10.0286Y-7.1691
X10.2331Y-11.2205
X10.3185Y-9.3531
X10.4331Y-11.2205
X10.5185Y-9.3531
X10.7185Y-9.3531
X10.8985Y-6.687
X10.8985Y-6.887
X10.9316Y-9.6401
X10.9316Y-9.8401
T7
X8.6614Y-11.0236
X8.8583Y-6.2992
X11.2205Y-6.2992
X11.2205Y-10.2362
T8
X9.4038Y-5.7433
X9.4038Y-7.2394
X9.4276Y-9.2828
X9.4276Y-10.7789
X10.9196Y-5.7433
X10.9196Y-7.2394
X10.9433Y-9.2828
X10.9433Y-10.7789
M30
