%TF.GenerationSoftware,KiCad,Pcbnew,8.0.6*%
%TF.CreationDate,2025-02-17T21:26:12+00:00*%
%TF.ProjectId,NORMMotorControlBoard,4e4f524d-4d6f-4746-9f72-436f6e74726f,rev?*%
%TF.SameCoordinates,Original*%
%TF.FileFunction,Soldermask,Bot*%
%TF.FilePolarity,Negative*%
%FSLAX46Y46*%
G04 Gerber Fmt 4.6, Leading zero omitted, Abs format (unit mm)*
G04 Created by KiCad (PCBNEW 8.0.6) date 2025-02-17 21:26:12*
%MOMM*%
%LPD*%
G01*
G04 APERTURE LIST*
G04 Aperture macros list*
%AMRoundRect*
0 Rectangle with rounded corners*
0 $1 Rounding radius*
0 $2 $3 $4 $5 $6 $7 $8 $9 X,Y pos of 4 corners*
0 Add a 4 corners polygon primitive as box body*
4,1,4,$2,$3,$4,$5,$6,$7,$8,$9,$2,$3,0*
0 Add four circle primitives for the rounded corners*
1,1,$1+$1,$2,$3*
1,1,$1+$1,$4,$5*
1,1,$1+$1,$6,$7*
1,1,$1+$1,$8,$9*
0 Add four rect primitives between the rounded corners*
20,1,$1+$1,$2,$3,$4,$5,0*
20,1,$1+$1,$4,$5,$6,$7,0*
20,1,$1+$1,$6,$7,$8,$9,0*
20,1,$1+$1,$8,$9,$2,$3,0*%
G04 Aperture macros list end*
%ADD10RoundRect,0.250000X-0.350000X-0.625000X0.350000X-0.625000X0.350000X0.625000X-0.350000X0.625000X0*%
%ADD11O,1.200000X1.750000*%
%ADD12R,2.800000X2.800000*%
%ADD13C,2.800000*%
%ADD14RoundRect,0.250000X0.350000X0.625000X-0.350000X0.625000X-0.350000X-0.625000X0.350000X-0.625000X0*%
%ADD15C,5.400000*%
%ADD16C,3.700000*%
%ADD17R,1.700000X1.700000*%
%ADD18O,1.700000X1.700000*%
%ADD19R,1.600000X1.600000*%
%ADD20O,1.600000X1.600000*%
%ADD21C,2.000000*%
G04 APERTURE END LIST*
D10*
%TO.C,J3*%
X227337565Y-281120640D03*
D11*
X229337565Y-281120640D03*
X231337565Y-281120640D03*
X233337565Y-281120640D03*
X235337565Y-281120640D03*
X237337565Y-281120640D03*
%TD*%
D12*
%TO.C,J5*%
X265000000Y-285000000D03*
D13*
X259920000Y-285000000D03*
%TD*%
D14*
%TO.C,J1*%
X245000000Y-139000000D03*
D11*
X243000000Y-139000000D03*
X241000000Y-139000000D03*
X239000000Y-139000000D03*
X237000000Y-139000000D03*
X235000000Y-139000000D03*
%TD*%
D15*
%TO.C,H1*%
X225000000Y-160000000D03*
%TD*%
D12*
%TO.C,U2*%
X277663293Y-249938641D03*
D13*
X277663293Y-244858641D03*
D12*
X272250680Y-237568126D03*
D16*
X277960680Y-273783126D03*
X277960680Y-235783126D03*
D13*
X267170680Y-237568126D03*
D16*
X239460680Y-273783126D03*
X239460680Y-235783126D03*
D13*
X262090680Y-237568126D03*
D17*
X256517921Y-235959569D03*
D18*
X253977921Y-235959569D03*
X251437921Y-235959569D03*
X248897921Y-235959569D03*
X246357921Y-235959569D03*
X243817921Y-235959569D03*
D12*
X239995680Y-244733126D03*
D13*
X239995680Y-249813126D03*
%TD*%
D19*
%TO.C,U3*%
X264175000Y-222240000D03*
D20*
X266715000Y-222240000D03*
X269255000Y-222240000D03*
X271795000Y-222240000D03*
X274335000Y-222240000D03*
X276875000Y-222240000D03*
X279415000Y-222240000D03*
X281955000Y-222240000D03*
X281955000Y-214620000D03*
X279415000Y-214620000D03*
X276875000Y-214620000D03*
X274335000Y-214620000D03*
X271795000Y-214620000D03*
X269255000Y-214620000D03*
X266715000Y-214620000D03*
X264175000Y-214620000D03*
%TD*%
D15*
%TO.C,H2*%
X285000000Y-160000000D03*
%TD*%
%TO.C,H3*%
X220000000Y-280000000D03*
%TD*%
D19*
%TO.C,A1*%
X218690000Y-212650000D03*
D20*
X218690000Y-215190000D03*
X218690000Y-217730000D03*
X218690000Y-220270000D03*
X218690000Y-222810000D03*
X218690000Y-225350000D03*
X218690000Y-227890000D03*
X218690000Y-230430000D03*
X218690000Y-232970000D03*
X218690000Y-235510000D03*
X218690000Y-238050000D03*
X218690000Y-240590000D03*
X218690000Y-243130000D03*
X218690000Y-245670000D03*
X218690000Y-248210000D03*
X233930000Y-248210000D03*
X233930000Y-245670000D03*
X233930000Y-243130000D03*
X233930000Y-240590000D03*
X233930000Y-238050000D03*
X233930000Y-235510000D03*
X233930000Y-232970000D03*
X233930000Y-230430000D03*
X233930000Y-227890000D03*
X233930000Y-225350000D03*
X233930000Y-222810000D03*
X233930000Y-220270000D03*
X233930000Y-217730000D03*
X233930000Y-215190000D03*
X233930000Y-212650000D03*
%TD*%
D10*
%TO.C,J4*%
X274245064Y-281505674D03*
D11*
X276245064Y-281505674D03*
X278245064Y-281505674D03*
X280245064Y-281505674D03*
X282245064Y-281505674D03*
X284245064Y-281505674D03*
%TD*%
D21*
%TO.C,SW1*%
X245211741Y-283096595D03*
X250861741Y-283096595D03*
%TD*%
D15*
%TO.C,H4*%
X285000000Y-260000000D03*
%TD*%
D17*
%TO.C,J6*%
X227584000Y-274828000D03*
D18*
X227584000Y-272288000D03*
X227584000Y-269748000D03*
X227584000Y-267208000D03*
X227584000Y-264668000D03*
X227584000Y-262128000D03*
X227584000Y-259588000D03*
X227584000Y-257048000D03*
%TD*%
D14*
%TO.C,J2*%
X281000000Y-139000000D03*
D11*
X279000000Y-139000000D03*
X277000000Y-139000000D03*
X275000000Y-139000000D03*
X273000000Y-139000000D03*
X271000000Y-139000000D03*
%TD*%
D12*
%TO.C,U1*%
X239154568Y-169724018D03*
D13*
X239154568Y-174804018D03*
D12*
X244567181Y-182094533D03*
D16*
X238857181Y-145879533D03*
X238857181Y-183879533D03*
D13*
X249647181Y-182094533D03*
D16*
X277357181Y-145879533D03*
X277357181Y-183879533D03*
D13*
X254727181Y-182094533D03*
D17*
X260299940Y-183703090D03*
D18*
X262839940Y-183703090D03*
X265379940Y-183703090D03*
X267919940Y-183703090D03*
X270459940Y-183703090D03*
X272999940Y-183703090D03*
D12*
X276822181Y-174929533D03*
D13*
X276822181Y-169849533D03*
%TD*%
M02*
