M48
; DRILL file {KiCad 8.0.6} date 2024-10-30T22:23:01+0000
; FORMAT={-:-/ absolute / inch / decimal}
; #@! TF.CreationDate,2024-10-30T22:23:01+00:00
; #@! TF.GenerationSoftware,Kicad,Pcbnew,8.0.6
; #@! TF.FileFunction,Plated,1,2,PTH
FMAT,2
INCH
; #@! TA.AperFunction,Plated,PTH,ViaDrill
T1C0.0118
; #@! TA.AperFunction,Plated,PTH,ComponentDrill
T2C0.0394
; #@! TA.AperFunction,Plated,PTH,ComponentDrill
T3C0.0433
; #@! TA.AperFunction,Plated,PTH,ComponentDrill
T4C0.0689
; #@! TA.AperFunction,Plated,PTH,ComponentDrill
T5C0.1063
%
G90
G05
T1
X2.99Y-4.07
X3.01Y-2.93
X3.37Y-3.3
X3.61Y-3.21
X3.68Y-3.45
X3.9Y-4.13
X3.9Y-4.43
X3.91Y-4.24
X4.08Y-3.16
X4.19Y-3.31
X4.23Y-3.99
X4.285Y-2.865
X4.45Y-2.65
X4.5Y-3.83
X4.62Y-4.11
X4.66Y-2.45
X4.66Y-3.09
X4.67Y-3.53
X4.95Y-2.75
X4.95Y-3.0
X5.06Y-3.91
X5.14Y-2.58
X5.26Y-2.93
X5.32Y-3.74
X5.35Y-2.74
X5.37Y-3.09
X5.45Y-2.66
X5.5Y-4.23
X5.51Y-3.01
X5.51Y-3.56
X5.67Y-3.95
X5.72Y-2.66
X5.7833Y-4.0938
X5.8Y-3.11
X5.8139Y-4.0861
X5.84Y-2.55
X5.84Y-3.49
X5.88Y-3.91
X6.11Y-3.1
X6.21Y-4.34
T2
X3.3Y-2.6
X3.3Y-2.7
X3.3Y-2.8
X3.3Y-2.9
X3.3Y-3.0
X3.3Y-3.1
X3.3Y-3.5
X3.3Y-3.6
X3.3Y-3.7
X3.3Y-3.8
X3.3Y-3.9
X3.3Y-4.0
X3.3Y-4.3002
X3.4Y-4.3002
X3.5Y-4.3002
X3.6Y-4.3002
X3.7Y-4.3002
X3.8Y-4.3002
X4.0Y-2.6
X4.0Y-2.7
X4.0Y-2.8
X4.0Y-2.9
X4.0Y-3.0
X4.0Y-3.1
X4.0Y-3.5
X4.0Y-3.6
X4.0Y-3.7
X4.0Y-3.8
X4.0Y-3.9
X4.0Y-4.0
X4.0Y-4.3002
X4.1Y-4.3002
X4.2Y-4.3002
X4.3Y-4.3002
X4.4Y-4.3002
X4.5Y-4.3002
X4.7Y-2.8
X4.7Y-3.4
X4.7Y-4.3002
X4.8Y-2.8
X4.8Y-3.4
X4.8Y-4.3002
X4.9Y-2.8
X4.9Y-3.4
X4.9Y-4.3002
X5.0Y-2.8
X5.0Y-3.4
X5.0Y-4.3002
X5.1Y-2.8
X5.1Y-3.4
X5.1Y-4.3002
X5.2Y-2.8
X5.2Y-3.4
X5.2Y-4.3002
X5.3Y-2.6
X5.3Y-2.8
X5.3Y-3.4
X5.3495Y-4.3002
X5.4Y-2.6
X5.4Y-2.8
X5.4Y-3.4
X5.4495Y-4.3002
X5.5Y-2.6
X5.5Y-2.8
X5.5Y-3.4
X5.5495Y-4.3002
X5.6Y-2.6
X5.6Y-2.8
X5.6Y-3.4
X5.6495Y-4.3002
X5.7Y-2.8
X5.7Y-3.4
X5.7495Y-4.3002
X5.8Y-2.8
X5.8Y-3.4
X5.8495Y-4.3002
X5.9Y-2.8
X5.9Y-3.4
X6.0Y-2.8
X6.0Y-3.4
X6.1Y-2.8
X6.1Y-3.4
T3
X2.8888Y-3.4888
X3.1112Y-3.4888
T4
X6.1Y-3.8
X6.1Y-4.0
T5
X2.9528Y-2.5591
X2.9528Y-4.5276
X6.1024Y-2.5591
X6.1024Y-4.5276
M30
